<svg width="35" height="48" viewBox="0 0 35 48" fill="none" xmlns="http://www.w3.org/2000/svg">
<path d="M34.6426 39.6211V48H1.90039V40.9102L16.9824 25.0547C18.3145 23.5293 19.3887 22.165 20.2051 20.9619C21.0215 19.7373 21.6123 18.6309 21.9775 17.6426C22.3643 16.6543 22.5576 15.7627 22.5576 14.9678C22.5576 13.6143 22.3535 12.4863 21.9453 11.584C21.5586 10.6602 20.9785 9.96191 20.2051 9.48926C19.4531 9.0166 18.5186 8.78027 17.4014 8.78027C16.2842 8.78027 15.3066 9.10254 14.4688 9.74707C13.6309 10.3916 12.9756 11.2725 12.5029 12.3896C12.0518 13.5068 11.8262 14.7637 11.8262 16.1602H0.933594C0.933594 13.2813 1.63184 10.6494 3.02832 8.26465C4.44629 5.87988 6.41211 3.97852 8.92578 2.56055C11.4395 1.12109 14.3506 0.401367 17.6592 0.401367C21.1182 0.401367 24.0186 0.938477 26.3604 2.0127C28.7021 3.08691 30.4639 4.64453 31.6455 6.68555C32.8486 8.70508 33.4502 11.1436 33.4502 14.001C33.4502 15.6338 33.1924 17.2021 32.6768 18.7061C32.1611 20.21 31.4199 21.7031 30.4531 23.1855C29.4863 24.6465 28.3047 26.1504 26.9082 27.6973C25.5332 29.2441 23.9648 30.8877 22.2031 32.6279L16.1445 39.6211H34.6426Z" fill="#30ACFF" fill-opacity="0.3"/>
</svg>
