<svg width="35" height="49" viewBox="0 0 35 49" fill="none" xmlns="http://www.w3.org/2000/svg">
<path d="M11.7939 19.9951H17.0791C18.4326 19.9951 19.5391 19.7588 20.3984 19.2861C21.2793 18.792 21.9346 18.1045 22.3643 17.2236C22.7939 16.3213 23.0088 15.2578 23.0088 14.0332C23.0088 13.0879 22.8047 12.2178 22.3965 11.4229C22.0098 10.6279 21.4082 9.99414 20.5918 9.52148C19.7754 9.02734 18.7334 8.78027 17.4658 8.78027C16.6064 8.78027 15.7686 8.96289 14.9521 9.32812C14.1357 9.67188 13.459 10.166 12.9219 10.8105C12.4062 11.4551 12.1484 12.2393 12.1484 13.1631H1.25586C1.25586 10.499 1.98633 8.22168 3.44727 6.33105C4.92969 4.41895 6.87402 2.95801 9.28027 1.94824C11.708 0.916992 14.3184 0.401367 17.1113 0.401367C20.4414 0.401367 23.3633 0.916992 25.877 1.94824C28.3906 2.95801 30.3457 4.46191 31.7422 6.45996C33.1602 8.43652 33.8691 10.8857 33.8691 13.8076C33.8691 15.4189 33.4932 16.9336 32.7412 18.3516C31.9893 19.7695 30.9365 21.0156 29.583 22.0898C28.2295 23.1641 26.6396 24.0127 24.8135 24.6357C23.0088 25.2373 21.0322 25.5381 18.8838 25.5381H11.7939V19.9951ZM11.7939 28.084V22.6699H18.8838C21.2256 22.6699 23.3633 22.9385 25.2969 23.4756C27.2305 23.9912 28.8955 24.7646 30.292 25.7959C31.6885 26.8271 32.7627 28.1055 33.5146 29.6309C34.2666 31.1348 34.6426 32.8643 34.6426 34.8193C34.6426 37.0107 34.2021 38.9658 33.3213 40.6846C32.4404 42.4033 31.2051 43.8535 29.6152 45.0352C28.0254 46.2168 26.167 47.1191 24.04 47.7422C21.9131 48.3438 19.6035 48.6445 17.1113 48.6445C15.1562 48.6445 13.2012 48.3867 11.2461 47.8711C9.29102 47.334 7.50781 46.5176 5.89648 45.4219C4.28516 44.3047 2.98535 42.8867 1.99707 41.168C1.03027 39.4277 0.546875 37.3545 0.546875 34.9482H11.4395C11.4395 35.9365 11.708 36.8389 12.2451 37.6553C12.8037 38.4502 13.5449 39.084 14.4688 39.5566C15.3926 40.0293 16.3916 40.2656 17.4658 40.2656C18.7979 40.2656 19.9258 40.0186 20.8496 39.5244C21.7949 39.0088 22.5146 38.3213 23.0088 37.4619C23.5029 36.6025 23.75 35.6465 23.75 34.5938C23.75 33.0039 23.4814 31.7363 22.9443 30.791C22.4287 29.8457 21.666 29.1582 20.6562 28.7285C19.668 28.2988 18.4756 28.084 17.0791 28.084H11.7939Z" fill="#30ACFF" fill-opacity="0.3"/>
</svg>
