<svg width="272" height="131" viewBox="0 0 272 131" fill="none" xmlns="http://www.w3.org/2000/svg">
<path d="M271.233 1V0.690543H270.923H4.0769C2.24914 0.690543 0.767448 2.17224 0.767448 4V126.734C0.767448 128.562 2.24915 130.043 4.07691 130.043H270.923H271.233V129.734V1Z" fill="url(#paint0_linear_1_5457)" stroke="url(#paint1_linear_1_5457)" stroke-width="0.618913"/>
<path d="M72.128 77.4972C69.7843 77.4972 67.695 77.0947 65.8603 76.2898C64.0374 75.4848 62.5873 74.3662 61.5101 72.9339C60.4448 71.4898 59.8648 69.8149 59.7701 67.9091H64.2445C64.3392 69.081 64.7417 70.093 65.4519 70.9453C66.1621 71.7857 67.0913 72.4368 68.2395 72.8984C69.3877 73.3601 70.6602 73.5909 72.057 73.5909C73.6195 73.5909 75.0045 73.3187 76.2118 72.7741C77.4192 72.2296 78.3662 71.4721 79.0528 70.5014C79.7393 69.5308 80.0826 68.4062 80.0826 67.1278C80.0826 65.7902 79.7511 64.6125 79.0883 63.5945C78.4254 62.5646 77.4547 61.7597 76.1763 61.1797C74.8979 60.5997 73.3354 60.3097 71.4888 60.3097H68.5769V56.4034H71.4888C72.933 56.4034 74.1995 56.143 75.2886 55.6222C76.3894 55.1013 77.2476 54.3674 77.8631 53.4205C78.4905 52.4735 78.8042 51.3608 78.8042 50.0824C78.8042 48.8513 78.5319 47.7801 77.9874 46.8686C77.4429 45.9571 76.6735 45.2469 75.6792 44.7379C74.6967 44.2289 73.5367 43.9744 72.1991 43.9744C70.9443 43.9744 69.7606 44.2053 68.6479 44.6669C67.5471 45.1167 66.6475 45.7737 65.9491 46.6378C65.2507 47.4901 64.8719 48.5199 64.8127 49.7273H60.5513C60.6224 47.8215 61.1965 46.1525 62.2736 44.7202C63.3508 43.276 64.7594 42.1515 66.4995 41.3466C68.2514 40.5417 70.1749 40.1392 72.2701 40.1392C74.5191 40.1392 76.4486 40.5949 78.0584 41.5064C79.6683 42.406 80.9053 43.5956 81.7694 45.0753C82.6335 46.5549 83.0655 48.1529 83.0655 49.8693C83.0655 51.9171 82.527 53.6631 81.4498 55.1072C80.3844 56.5514 78.9344 57.5516 77.0996 58.108V58.392C79.396 58.7708 81.1894 59.7474 82.4796 61.3217C83.7699 62.8842 84.415 64.8196 84.415 67.1278C84.415 69.1046 83.8764 70.8802 82.7992 72.4545C81.7339 74.017 80.2779 75.2481 78.4313 76.1477C76.5847 77.0473 74.4836 77.4972 72.128 77.4972ZM103.538 77.4972C100.863 77.4972 98.584 76.7692 96.7019 75.3132C94.8198 73.8454 93.3816 71.7206 92.3873 68.9389C91.393 66.1454 90.8958 62.7718 90.8958 58.8182C90.8958 54.8883 91.393 51.5324 92.3873 48.7507C93.3934 45.9571 94.8376 43.8265 96.7197 42.3587C98.6136 40.879 100.886 40.1392 103.538 40.1392C106.189 40.1392 108.456 40.879 110.338 42.3587C112.232 43.8265 113.676 45.9571 114.671 48.7507C115.677 51.5324 116.18 54.8883 116.18 58.8182C116.18 62.7718 115.683 66.1454 114.688 68.9389C113.694 71.7206 112.256 73.8454 110.374 75.3132C108.492 76.7692 106.213 77.4972 103.538 77.4972ZM103.538 73.5909C106.189 73.5909 108.249 72.3125 109.717 69.7557C111.185 67.1989 111.919 63.553 111.919 58.8182C111.919 55.6695 111.581 52.9884 110.906 50.7749C110.244 48.5613 109.285 46.8745 108.03 45.7145C106.787 44.5545 105.29 43.9744 103.538 43.9744C100.91 43.9744 98.8563 45.2706 97.3766 47.8629C95.897 50.4434 95.1572 54.0952 95.1572 58.8182C95.1572 61.9669 95.4886 64.642 96.1515 66.8438C96.8144 69.0455 97.7672 70.7204 99.0101 71.8686C100.265 73.0168 101.774 73.5909 103.538 73.5909ZM134.788 77.4972C132.113 77.4972 129.834 76.7692 127.952 75.3132C126.07 73.8454 124.632 71.7206 123.637 68.9389C122.643 66.1454 122.146 62.7718 122.146 58.8182C122.146 54.8883 122.643 51.5324 123.637 48.7507C124.643 45.9571 126.088 43.8265 127.97 42.3587C129.864 40.879 132.136 40.1392 134.788 40.1392C137.439 40.1392 139.706 40.879 141.588 42.3587C143.482 43.8265 144.926 45.9571 145.921 48.7507C146.927 51.5324 147.43 54.8883 147.43 58.8182C147.43 62.7718 146.933 66.1454 145.938 68.9389C144.944 71.7206 143.506 73.8454 141.624 75.3132C139.742 76.7692 137.463 77.4972 134.788 77.4972ZM134.788 73.5909C137.439 73.5909 139.499 72.3125 140.967 69.7557C142.435 67.1989 143.169 63.553 143.169 58.8182C143.169 55.6695 142.831 52.9884 142.156 50.7749C141.494 48.5613 140.535 46.8745 139.28 45.7145C138.037 44.5545 136.54 43.9744 134.788 43.9744C132.16 43.9744 130.106 45.2706 128.627 47.8629C127.147 50.4434 126.407 54.0952 126.407 58.8182C126.407 61.9669 126.739 64.642 127.401 66.8438C128.064 69.0455 129.017 70.7204 130.26 71.8686C131.515 73.0168 133.024 73.5909 134.788 73.5909ZM166.038 77.4972C163.363 77.4972 161.084 76.7692 159.202 75.3132C157.32 73.8454 155.882 71.7206 154.887 68.9389C153.893 66.1454 153.396 62.7718 153.396 58.8182C153.396 54.8883 153.893 51.5324 154.887 48.7507C155.893 45.9571 157.338 43.8265 159.22 42.3587C161.114 40.879 163.386 40.1392 166.038 40.1392C168.689 40.1392 170.956 40.879 172.838 42.3587C174.732 43.8265 176.176 45.9571 177.171 48.7507C178.177 51.5324 178.68 54.8883 178.68 58.8182C178.68 62.7718 178.183 66.1454 177.188 68.9389C176.194 71.7206 174.756 73.8454 172.874 75.3132C170.992 76.7692 168.713 77.4972 166.038 77.4972ZM166.038 73.5909C168.689 73.5909 170.749 72.3125 172.217 69.7557C173.685 67.1989 174.419 63.553 174.419 58.8182C174.419 55.6695 174.081 52.9884 173.406 50.7749C172.744 48.5613 171.785 46.8745 170.53 45.7145C169.287 44.5545 167.79 43.9744 166.038 43.9744C163.41 43.9744 161.356 45.2706 159.877 47.8629C158.397 50.4434 157.657 54.0952 157.657 58.8182C157.657 61.9669 157.989 64.642 158.651 66.8438C159.314 69.0455 160.267 70.7204 161.51 71.8686C162.765 73.0168 164.274 73.5909 166.038 73.5909ZM196.151 70.608V47.1705H200.129V70.608H196.151ZM186.421 60.8778V56.9006H209.859V60.8778H186.421Z" fill="url(#paint2_linear_1_5457)"/>
<path d="M87.1969 93H86.3198L88.8567 86.0909H89.7204L92.2573 93H91.3802L89.3155 87.1839H89.2616L87.1969 93ZM87.5208 90.3011H91.0563V91.0433H87.5208V90.3011ZM96.896 88.9787L96.1808 89.1811C96.1358 89.0619 96.0694 88.9461 95.9817 88.8336C95.8963 88.7189 95.7793 88.6245 95.6309 88.5502C95.4824 88.476 95.2924 88.4389 95.0607 88.4389C94.7436 88.4389 94.4794 88.512 94.268 88.6582C94.0588 88.8021 93.9542 88.9854 93.9542 89.2081C93.9542 89.406 94.0262 89.5623 94.1701 89.677C94.3141 89.7917 94.539 89.8873 94.8448 89.9638L95.614 90.1527C96.0773 90.2652 96.4225 90.4372 96.6497 90.6689C96.8769 90.8983 96.9904 91.194 96.9904 91.5561C96.9904 91.853 96.905 92.1184 96.734 92.3523C96.5654 92.5862 96.3292 92.7706 96.0256 92.9055C95.722 93.0405 95.3689 93.108 94.9663 93.108C94.4378 93.108 94.0003 92.9933 93.654 92.7638C93.3076 92.5344 93.0883 92.1993 92.9961 91.7585L93.7518 91.5696C93.8238 91.8485 93.9598 92.0576 94.16 92.1971C94.3624 92.3365 94.6267 92.4062 94.9528 92.4062C95.3239 92.4062 95.6185 92.3275 95.8367 92.1701C96.0571 92.0104 96.1673 91.8192 96.1673 91.5966C96.1673 91.4167 96.1043 91.266 95.9784 91.1445C95.8524 91.0208 95.659 90.9286 95.3981 90.8679L94.5345 90.6655C94.0599 90.553 93.7113 90.3787 93.4887 90.1426C93.2683 89.9042 93.158 89.6062 93.158 89.2486C93.158 88.9562 93.2401 88.6976 93.4043 88.4727C93.5707 88.2478 93.7968 88.0712 94.0824 87.943C94.3703 87.8148 94.6964 87.7507 95.0607 87.7507C95.5735 87.7507 95.9761 87.8632 96.2685 88.0881C96.5631 88.313 96.7723 88.6098 96.896 88.9787ZM101.859 88.9787L101.144 89.1811C101.099 89.0619 101.033 88.9461 100.945 88.8336C100.86 88.7189 100.743 88.6245 100.594 88.5502C100.446 88.476 100.256 88.4389 100.024 88.4389C99.707 88.4389 99.4427 88.512 99.2313 88.6582C99.0222 88.8021 98.9176 88.9854 98.9176 89.2081C98.9176 89.406 98.9896 89.5623 99.1335 89.677C99.2774 89.7917 99.5023 89.8873 99.8082 89.9638L100.577 90.1527C101.041 90.2652 101.386 90.4372 101.613 90.6689C101.84 90.8983 101.954 91.194 101.954 91.5561C101.954 91.853 101.868 92.1184 101.697 92.3523C101.529 92.5862 101.293 92.7706 100.989 92.9055C100.685 93.0405 100.332 93.108 99.9297 93.108C99.4011 93.108 98.9637 92.9933 98.6173 92.7638C98.271 92.5344 98.0517 92.1993 97.9595 91.7585L98.7152 91.5696C98.7871 91.8485 98.9232 92.0576 99.1234 92.1971C99.3258 92.3365 99.5901 92.4062 99.9162 92.4062C100.287 92.4062 100.582 92.3275 100.8 92.1701C101.02 92.0104 101.131 91.8192 101.131 91.5966C101.131 91.4167 101.068 91.266 100.942 91.1445C100.816 91.0208 100.622 90.9286 100.361 90.8679L99.4978 90.6655C99.0233 90.553 98.6747 90.3787 98.452 90.1426C98.2316 89.9042 98.1214 89.6062 98.1214 89.2486C98.1214 88.9562 98.2035 88.6976 98.3677 88.4727C98.5341 88.2478 98.7602 88.0712 99.0458 87.943C99.3337 87.8148 99.6598 87.7507 100.024 87.7507C100.537 87.7507 100.939 87.8632 101.232 88.0881C101.526 88.313 101.736 88.6098 101.859 88.9787ZM105.325 93.108C104.826 93.108 104.395 92.9978 104.033 92.7773C103.673 92.5547 103.395 92.2443 103.2 91.8462C103.006 91.4459 102.909 90.9804 102.909 90.4496C102.909 89.9188 103.006 89.451 103.2 89.0462C103.395 88.6391 103.667 88.322 104.016 88.0948C104.367 87.8654 104.776 87.7507 105.244 87.7507C105.514 87.7507 105.78 87.7957 106.043 87.8857C106.307 87.9756 106.546 88.1218 106.762 88.3242C106.978 88.5244 107.15 88.7898 107.278 89.1204C107.406 89.451 107.47 89.8581 107.47 90.3416V90.679H103.476V89.9908H106.661C106.661 89.6984 106.602 89.4375 106.485 89.2081C106.371 88.9787 106.206 88.7976 105.993 88.665C105.781 88.5323 105.532 88.4659 105.244 88.4659C104.927 88.4659 104.652 88.5446 104.421 88.7021C104.191 88.8572 104.015 89.0597 103.891 89.3093C103.767 89.5589 103.706 89.8266 103.706 90.1122V90.571C103.706 90.9624 103.773 91.2941 103.908 91.5662C104.045 91.8361 104.235 92.0419 104.478 92.1836C104.721 92.323 105.003 92.3928 105.325 92.3928C105.534 92.3928 105.723 92.3635 105.892 92.305C106.063 92.2443 106.21 92.1544 106.334 92.0352C106.457 91.9137 106.553 91.763 106.62 91.5831L107.389 91.799C107.309 92.0599 107.172 92.2893 106.981 92.4872C106.79 92.6829 106.554 92.8358 106.273 92.946C105.992 93.054 105.676 93.108 105.325 93.108ZM110.935 87.8182V88.4929H108.25V87.8182H110.935ZM109.032 86.5767H109.829V91.5156C109.829 91.7405 109.861 91.9092 109.926 92.0217C109.994 92.1319 110.079 92.2061 110.183 92.2443C110.289 92.2803 110.4 92.2983 110.517 92.2983C110.605 92.2983 110.676 92.2938 110.733 92.2848C110.789 92.2736 110.834 92.2646 110.868 92.2578L111.03 92.973C110.976 92.9933 110.9 93.0135 110.804 93.0337C110.707 93.0562 110.584 93.0675 110.436 93.0675C110.211 93.0675 109.991 93.0191 109.775 92.9224C109.561 92.8257 109.383 92.6784 109.242 92.4805C109.102 92.2826 109.032 92.0329 109.032 91.7315V86.5767ZM115.71 88.9787L114.995 89.1811C114.95 89.0619 114.884 88.9461 114.796 88.8336C114.711 88.7189 114.594 88.6245 114.445 88.5502C114.297 88.476 114.107 88.4389 113.875 88.4389C113.558 88.4389 113.294 88.512 113.082 88.6582C112.873 88.8021 112.769 88.9854 112.769 89.2081C112.769 89.406 112.841 89.5623 112.985 89.677C113.129 89.7917 113.353 89.8873 113.659 89.9638L114.428 90.1527C114.892 90.2652 115.237 90.4372 115.464 90.6689C115.691 90.8983 115.805 91.194 115.805 91.5561C115.805 91.853 115.719 92.1184 115.548 92.3523C115.38 92.5862 115.144 92.7706 114.84 92.9055C114.536 93.0405 114.183 93.108 113.781 93.108C113.252 93.108 112.815 92.9933 112.468 92.7638C112.122 92.5344 111.903 92.1993 111.811 91.7585L112.566 91.5696C112.638 91.8485 112.774 92.0576 112.974 92.1971C113.177 92.3365 113.441 92.4062 113.767 92.4062C114.138 92.4062 114.433 92.3275 114.651 92.1701C114.872 92.0104 114.982 91.8192 114.982 91.5966C114.982 91.4167 114.919 91.266 114.793 91.1445C114.667 91.0208 114.473 90.9286 114.213 90.8679L113.349 90.6655C112.874 90.553 112.526 90.3787 112.303 90.1426C112.083 89.9042 111.973 89.6062 111.973 89.2486C111.973 88.9562 112.055 88.6976 112.219 88.4727C112.385 88.2478 112.611 88.0712 112.897 87.943C113.185 87.8148 113.511 87.7507 113.875 87.7507C114.388 87.7507 114.791 87.8632 115.083 88.0881C115.378 88.313 115.587 88.6098 115.71 88.9787ZM121.929 87.8182V88.4929H119.243V87.8182H121.929ZM120.026 86.5767H120.822V91.5156C120.822 91.7405 120.855 91.9092 120.92 92.0217C120.988 92.1319 121.073 92.2061 121.176 92.2443C121.282 92.2803 121.394 92.2983 121.51 92.2983C121.598 92.2983 121.67 92.2938 121.726 92.2848C121.783 92.2736 121.828 92.2646 121.861 92.2578L122.023 92.973C121.969 92.9933 121.894 93.0135 121.797 93.0337C121.7 93.0562 121.578 93.0675 121.429 93.0675C121.205 93.0675 120.984 93.0191 120.768 92.9224C120.555 92.8257 120.377 92.6784 120.235 92.4805C120.096 92.2826 120.026 92.0329 120.026 91.7315V86.5767ZM125.176 93.108C124.708 93.108 124.298 92.9966 123.944 92.774C123.594 92.5513 123.319 92.2398 123.121 91.8395C122.926 91.4392 122.828 90.9714 122.828 90.4361C122.828 89.8963 122.926 89.4251 123.121 89.0225C123.319 88.62 123.594 88.3074 123.944 88.0847C124.298 87.862 124.708 87.7507 125.176 87.7507C125.644 87.7507 126.053 87.862 126.404 88.0847C126.757 88.3074 127.031 88.62 127.227 89.0225C127.425 89.4251 127.524 89.8963 127.524 90.4361C127.524 90.9714 127.425 91.4392 127.227 91.8395C127.031 92.2398 126.757 92.5513 126.404 92.774C126.053 92.9966 125.644 93.108 125.176 93.108ZM125.176 92.3928C125.531 92.3928 125.824 92.3017 126.053 92.1195C126.282 91.9373 126.452 91.6978 126.562 91.4009C126.673 91.104 126.728 90.7824 126.728 90.4361C126.728 90.0897 126.673 89.767 126.562 89.4679C126.452 89.1687 126.282 88.927 126.053 88.7425C125.824 88.5581 125.531 88.4659 125.176 88.4659C124.82 88.4659 124.528 88.5581 124.299 88.7425C124.069 88.927 123.9 89.1687 123.789 89.4679C123.679 89.767 123.624 90.0897 123.624 90.4361C123.624 90.7824 123.679 91.104 123.789 91.4009C123.9 91.6978 124.069 91.9373 124.299 92.1195C124.528 92.3017 124.82 92.3928 125.176 92.3928ZM131.519 93V86.0909H132.315V88.6413H132.383C132.441 88.5514 132.522 88.4367 132.626 88.2972C132.731 88.1555 132.882 88.0296 133.078 87.9194C133.276 87.8069 133.543 87.7507 133.881 87.7507C134.317 87.7507 134.701 87.8598 135.034 88.0779C135.367 88.2961 135.627 88.6054 135.814 89.0057C136 89.406 136.094 89.8783 136.094 90.4226C136.094 90.9714 136 91.447 135.814 91.8496C135.627 92.2499 135.368 92.5603 135.038 92.7807C134.707 92.9989 134.326 93.108 133.894 93.108C133.561 93.108 133.295 93.0529 133.094 92.9426C132.894 92.8302 132.74 92.7031 132.632 92.5614C132.524 92.4175 132.441 92.2983 132.383 92.2038H132.288V93H131.519ZM132.302 90.4091C132.302 90.8004 132.359 91.1457 132.474 91.4448C132.588 91.7417 132.756 91.9744 132.976 92.1431C133.197 92.3095 133.467 92.3928 133.786 92.3928C134.119 92.3928 134.397 92.305 134.619 92.1296C134.844 91.9519 135.013 91.7135 135.125 91.4144C135.24 91.113 135.297 90.7779 135.297 90.4091C135.297 90.0447 135.241 89.7164 135.129 89.424C135.019 89.1294 134.851 88.8966 134.626 88.7257C134.403 88.5525 134.123 88.4659 133.786 88.4659C133.462 88.4659 133.19 88.548 132.97 88.7122C132.749 88.8741 132.583 89.1013 132.47 89.3936C132.358 89.6838 132.302 90.0223 132.302 90.4091ZM140.577 90.8814V87.8182H141.373V93H140.577V92.1229H140.523C140.402 92.386 140.213 92.6098 139.956 92.7942C139.7 92.9764 139.376 93.0675 138.985 93.0675C138.661 93.0675 138.373 92.9966 138.121 92.8549C137.869 92.711 137.671 92.4951 137.527 92.2072C137.383 91.9171 137.311 91.5516 137.311 91.1108V87.8182H138.108V91.0568C138.108 91.4347 138.213 91.736 138.425 91.9609C138.638 92.1858 138.911 92.2983 139.241 92.2983C139.439 92.2983 139.64 92.2477 139.845 92.1465C140.052 92.0453 140.225 91.8901 140.365 91.6809C140.506 91.4718 140.577 91.2053 140.577 90.8814ZM143.344 94.9432C143.209 94.9432 143.089 94.9319 142.983 94.9094C142.878 94.8892 142.804 94.869 142.764 94.8487L142.966 94.147C143.16 94.1965 143.331 94.2145 143.479 94.201C143.628 94.1875 143.759 94.1212 143.874 94.002C143.991 93.885 144.098 93.695 144.194 93.4318L144.343 93.027L142.427 87.8182H143.29L144.721 91.9474H144.775L146.205 87.8182H147.069L144.869 93.7557C144.77 94.0233 144.648 94.2449 144.501 94.4203C144.355 94.598 144.185 94.7295 143.992 94.815C143.801 94.9004 143.585 94.9432 143.344 94.9432ZM152.316 93.1214C151.988 93.1214 151.69 93.0596 151.422 92.9359C151.155 92.81 150.942 92.6289 150.785 92.3928C150.627 92.1544 150.549 91.8665 150.549 91.5291C150.549 91.2322 150.607 90.9916 150.724 90.8072C150.841 90.6205 150.997 90.4743 151.193 90.3686C151.389 90.2629 151.604 90.1842 151.841 90.1325C152.079 90.0785 152.319 90.0357 152.559 90.0043C152.874 89.9638 153.129 89.9334 153.325 89.9132C153.523 89.8907 153.667 89.8536 153.757 89.8018C153.849 89.7501 153.895 89.6602 153.895 89.532V89.505C153.895 89.1721 153.804 88.9135 153.622 88.729C153.442 88.5446 153.169 88.4524 152.802 88.4524C152.422 88.4524 152.124 88.5356 151.908 88.7021C151.692 88.8685 151.54 89.0462 151.453 89.2351L150.697 88.9652C150.832 88.6503 151.012 88.4052 151.237 88.2298C151.464 88.0521 151.711 87.9284 151.979 87.8587C152.249 87.7867 152.514 87.7507 152.775 87.7507C152.942 87.7507 153.133 87.771 153.349 87.8114C153.567 87.8497 153.777 87.9295 153.979 88.051C154.184 88.1724 154.354 88.3557 154.489 88.6009C154.624 88.846 154.691 89.1744 154.691 89.5859V93H153.895V92.2983H153.855C153.801 92.4107 153.711 92.5311 153.585 92.6593C153.459 92.7875 153.291 92.8965 153.082 92.9865C152.873 93.0765 152.618 93.1214 152.316 93.1214ZM152.438 92.4062C152.753 92.4062 153.018 92.3444 153.234 92.2207C153.452 92.097 153.616 91.9373 153.726 91.7417C153.839 91.546 153.895 91.3402 153.895 91.1243V90.3956C153.861 90.4361 153.787 90.4732 153.672 90.5069C153.56 90.5384 153.43 90.5665 153.281 90.5913C153.135 90.6138 152.992 90.634 152.853 90.652C152.716 90.6677 152.604 90.6812 152.519 90.6925C152.312 90.7195 152.118 90.7633 151.938 90.824C151.761 90.8825 151.617 90.9714 151.507 91.0906C151.399 91.2075 151.345 91.3672 151.345 91.5696C151.345 91.8462 151.447 92.0554 151.652 92.1971C151.859 92.3365 152.121 92.4062 152.438 92.4062ZM156.941 89.8828V93H156.144V87.8182H156.914V88.6278H156.981C157.103 88.3647 157.287 88.1533 157.534 87.9936C157.782 87.8317 158.101 87.7507 158.492 87.7507C158.843 87.7507 159.15 87.8227 159.413 87.9666C159.677 88.1083 159.881 88.3242 160.027 88.6143C160.174 88.9022 160.247 89.2666 160.247 89.7074V93H159.451V89.7614C159.451 89.3543 159.345 89.0372 159.133 88.81C158.922 88.5806 158.632 88.4659 158.263 88.4659C158.009 88.4659 157.782 88.521 157.582 88.6312C157.384 88.7414 157.227 88.9022 157.113 89.1136C156.998 89.325 156.941 89.5814 156.941 89.8828ZM163.658 93.108C163.226 93.108 162.845 92.9989 162.515 92.7807C162.184 92.5603 161.925 92.2499 161.739 91.8496C161.552 91.447 161.459 90.9714 161.459 90.4226C161.459 89.8783 161.552 89.406 161.739 89.0057C161.925 88.6054 162.185 88.2961 162.518 88.0779C162.851 87.8598 163.235 87.7507 163.672 87.7507C164.009 87.7507 164.276 87.8069 164.471 87.9194C164.669 88.0296 164.82 88.1555 164.923 88.2972C165.029 88.4367 165.111 88.5514 165.17 88.6413H165.237V86.0909H166.033V93H165.264V92.2038H165.17C165.111 92.2983 165.028 92.4175 164.92 92.5614C164.812 92.7031 164.658 92.8302 164.458 92.9426C164.258 93.0529 163.991 93.108 163.658 93.108ZM163.766 92.3928C164.086 92.3928 164.355 92.3095 164.576 92.1431C164.796 91.9744 164.964 91.7417 165.079 91.4448C165.193 91.1457 165.251 90.8004 165.251 90.4091C165.251 90.0223 165.194 89.6838 165.082 89.3936C164.969 89.1013 164.803 88.8741 164.583 88.7122C164.362 88.548 164.09 88.4659 163.766 88.4659C163.429 88.4659 163.148 88.5525 162.923 88.7257C162.7 88.8966 162.533 89.1294 162.42 89.424C162.31 89.7164 162.255 90.0447 162.255 90.4091C162.255 90.7779 162.311 91.113 162.424 91.4144C162.538 91.7135 162.707 91.9519 162.93 92.1296C163.154 92.305 163.433 92.3928 163.766 92.3928ZM173.944 88.9787L173.229 89.1811C173.184 89.0619 173.118 88.9461 173.03 88.8336C172.945 88.7189 172.828 88.6245 172.679 88.5502C172.531 88.476 172.341 88.4389 172.109 88.4389C171.792 88.4389 171.528 88.512 171.316 88.6582C171.107 88.8021 171.003 88.9854 171.003 89.2081C171.003 89.406 171.075 89.5623 171.218 89.677C171.362 89.7917 171.587 89.8873 171.893 89.9638L172.662 90.1527C173.126 90.2652 173.471 90.4372 173.698 90.6689C173.925 90.8983 174.039 91.194 174.039 91.5561C174.039 91.853 173.953 92.1184 173.782 92.3523C173.614 92.5862 173.378 92.7706 173.074 92.9055C172.77 93.0405 172.417 93.108 172.015 93.108C171.486 93.108 171.049 92.9933 170.702 92.7638C170.356 92.5344 170.137 92.1993 170.044 91.7585L170.8 91.5696C170.872 91.8485 171.008 92.0576 171.208 92.1971C171.411 92.3365 171.675 92.4062 172.001 92.4062C172.372 92.4062 172.667 92.3275 172.885 92.1701C173.105 92.0104 173.216 91.8192 173.216 91.5966C173.216 91.4167 173.153 91.266 173.027 91.1445C172.901 91.0208 172.707 90.9286 172.446 90.8679L171.583 90.6655C171.108 90.553 170.76 90.3787 170.537 90.1426C170.317 89.9042 170.206 89.6062 170.206 89.2486C170.206 88.9562 170.288 88.6976 170.453 88.4727C170.619 88.2478 170.845 88.0712 171.131 87.943C171.419 87.8148 171.745 87.7507 172.109 87.7507C172.622 87.7507 173.024 87.8632 173.317 88.0881C173.611 88.313 173.821 88.6098 173.944 88.9787ZM177.41 93.108C176.911 93.108 176.48 92.9978 176.118 92.7773C175.758 92.5547 175.48 92.2443 175.284 91.8462C175.091 91.4459 174.994 90.9804 174.994 90.4496C174.994 89.9188 175.091 89.451 175.284 89.0462C175.48 88.6391 175.752 88.322 176.101 88.0948C176.452 87.8654 176.861 87.7507 177.329 87.7507C177.599 87.7507 177.865 87.7957 178.128 87.8857C178.392 87.9756 178.631 88.1218 178.847 88.3242C179.063 88.5244 179.235 88.7898 179.363 89.1204C179.491 89.451 179.555 89.8581 179.555 90.3416V90.679H175.561V89.9908H178.746C178.746 89.6984 178.687 89.4375 178.57 89.2081C178.456 88.9787 178.291 88.7976 178.078 88.665C177.866 88.5323 177.617 88.4659 177.329 88.4659C177.012 88.4659 176.737 88.5446 176.506 88.7021C176.276 88.8572 176.1 89.0597 175.976 89.3093C175.852 89.5589 175.791 89.8266 175.791 90.1122V90.571C175.791 90.9624 175.858 91.2941 175.993 91.5662C176.13 91.8361 176.32 92.0419 176.563 92.1836C176.806 92.323 177.088 92.3928 177.41 92.3928C177.619 92.3928 177.808 92.3635 177.977 92.305C178.148 92.2443 178.295 92.1544 178.419 92.0352C178.542 91.9137 178.638 91.763 178.705 91.5831L179.474 91.799C179.393 92.0599 179.257 92.2893 179.066 92.4872C178.875 92.6829 178.639 92.8358 178.358 92.946C178.077 93.054 177.761 93.108 177.41 93.108ZM181.563 86.0909V93H180.767V86.0909H181.563ZM183.817 86.0909V93H183.021V86.0909H183.817Z" fill="url(#paint3_linear_1_5457)"/>
<defs>
<linearGradient id="paint0_linear_1_5457" x1="87.7935" y1="65.367" x2="291.175" y2="65.367" gradientUnits="userSpaceOnUse">
<stop stop-color="#1E2F41"/>
<stop offset="1" stop-color="#1E2F41" stop-opacity="0"/>
</linearGradient>
<linearGradient id="paint1_linear_1_5457" x1="30.0769" y1="-5.5" x2="115.077" y2="65" gradientUnits="userSpaceOnUse">
<stop stop-color="#259EFA"/>
<stop offset="1" stop-color="#347E8E" stop-opacity="0"/>
</linearGradient>
<linearGradient id="paint2_linear_1_5457" x1="74.1147" y1="56" x2="259.82" y2="53.3224" gradientUnits="userSpaceOnUse">
<stop stop-color="#4C76C9"/>
<stop offset="0.463542" stop-color="#29C4A8" stop-opacity="0.536458"/>
<stop offset="1" stop-color="white" stop-opacity="0"/>
</linearGradient>
<linearGradient id="paint3_linear_1_5457" x1="97.308" y1="89.0492" x2="212.674" y2="83.3056" gradientUnits="userSpaceOnUse">
<stop stop-color="#4C76C9"/>
<stop offset="0.463542" stop-color="#29C4A8" stop-opacity="0.536458"/>
<stop offset="1" stop-color="white" stop-opacity="0"/>
</linearGradient>
</defs>
</svg>
