<svg width="272" height="131" viewBox="0 0 272 131" fill="none" xmlns="http://www.w3.org/2000/svg">
<path d="M1.0769 0.424918H0.767448V0.734375V129.468V129.778H1.0769H270.923H271.233V129.468V0.734375V0.424918H270.923H1.0769Z" fill="url(#paint0_linear_1_5461)" stroke="url(#paint1_linear_1_5461)" stroke-width="0.618913"/>
<path d="M69.6252 40.3707V76.7344H65.2218V44.9872H65.0087L56.1309 50.8821V46.4077L65.2218 40.3707H69.6252ZM84.2559 71.7628L83.9718 73.6804C83.7706 75.0298 83.4628 76.474 83.0485 78.0128C82.646 79.5516 82.2258 81.0017 81.7878 82.3629C81.3499 83.7242 80.9888 84.8073 80.7047 85.6122H77.5087C77.6626 84.8546 77.8638 83.8544 78.1124 82.6115C78.361 81.3686 78.6096 79.9777 78.8582 78.4389C79.1186 76.9119 79.3316 75.3494 79.4974 73.7514L79.7104 71.7628H84.2559ZM91.9485 76.7344V73.5384L103.951 60.3991C105.36 58.8603 106.52 57.5227 107.431 56.3864C108.343 55.2382 109.018 54.161 109.456 53.1548C109.905 52.1368 110.13 51.0715 110.13 49.9588C110.13 48.6804 109.823 47.5736 109.207 46.6385C108.603 45.7034 107.775 44.9813 106.721 44.4723C105.668 43.9633 104.484 43.7088 103.17 43.7088C101.773 43.7088 100.554 43.9988 99.5125 44.5788C98.4826 45.147 97.6836 45.946 97.1154 46.9759C96.5591 48.0057 96.2809 49.2131 96.2809 50.598H92.0906C92.0906 48.4673 92.5818 46.5971 93.5643 44.9872C94.5468 43.3774 95.8844 42.1226 97.5771 41.223C99.2816 40.3234 101.193 39.8736 103.312 39.8736C105.443 39.8736 107.331 40.3234 108.976 41.223C110.622 42.1226 111.912 43.3359 112.847 44.8629C113.782 46.3899 114.25 48.0885 114.25 49.9588C114.25 51.2964 114.007 52.6044 113.522 53.8828C113.048 55.1494 112.22 56.5639 111.036 58.1264C109.864 59.6771 108.236 61.571 106.153 63.8082L97.9855 72.544V72.8281H114.889V76.7344H91.9485ZM136.355 76.7344V49.4616H140.404V53.723H140.759C141.327 52.267 142.244 51.1366 143.511 50.3317C144.778 49.5149 146.299 49.1065 148.074 49.1065C149.873 49.1065 151.371 49.5149 152.566 50.3317C153.774 51.1366 154.715 52.267 155.39 53.723H155.674C156.372 52.3144 157.42 51.1958 158.816 50.3672C160.213 49.5268 161.888 49.1065 163.841 49.1065C166.28 49.1065 168.274 49.87 169.825 51.397C171.376 52.9122 172.151 55.2737 172.151 58.4815V76.7344H167.961V58.4815C167.961 56.4692 167.41 55.031 166.309 54.1669C165.208 53.3028 163.912 52.8707 162.421 52.8707C160.503 52.8707 159.018 53.4508 157.964 54.6108C156.911 55.759 156.384 57.215 156.384 58.9787V76.7344H152.123V58.0554C152.123 56.5047 151.619 55.2559 150.613 54.3089C149.607 53.3501 148.311 52.8707 146.725 52.8707C145.636 52.8707 144.618 53.1607 143.671 53.7408C142.736 54.3208 141.978 55.1257 141.398 56.1555C140.83 57.1735 140.546 58.3513 140.546 59.6889V76.7344H136.355ZM184.003 40.3707V76.7344H179.813V40.3707H184.003ZM195.868 60.3281V76.7344H191.678V49.4616H195.726V53.723H196.081C196.72 52.3381 197.691 51.2254 198.993 50.3849C200.295 49.5327 201.976 49.1065 204.036 49.1065C205.882 49.1065 207.498 49.4853 208.883 50.2429C210.268 50.9886 211.345 52.125 212.115 53.652C212.884 55.1671 213.269 57.0848 213.269 59.4048V76.7344H209.078V59.6889C209.078 57.5464 208.522 55.8774 207.409 54.6818C206.297 53.4744 204.77 52.8707 202.828 52.8707C201.491 52.8707 200.295 53.1607 199.242 53.7408C198.2 54.3208 197.377 55.1671 196.774 56.2798C196.17 57.3925 195.868 58.742 195.868 60.3281Z" fill="url(#paint2_linear_1_5461)"/>
<path d="M109.197 92.7344H108.32L110.857 85.8253H111.72L114.257 92.7344H113.38L111.316 86.9183H111.262L109.197 92.7344ZM109.521 90.0355H113.056V90.7777H109.521V90.0355ZM117.331 92.8423C116.845 92.8423 116.427 92.7276 116.076 92.4982C115.725 92.2688 115.455 91.9528 115.266 91.5502C115.077 91.1477 114.983 90.6877 114.983 90.1705C114.983 89.6442 115.079 89.1797 115.273 88.7772C115.468 88.3723 115.741 88.0563 116.089 87.8292C116.44 87.5998 116.849 87.4851 117.317 87.4851C117.681 87.4851 118.01 87.5526 118.302 87.6875C118.595 87.8224 118.834 88.0114 119.021 88.2543C119.207 88.4972 119.323 88.7805 119.368 89.1044H118.572C118.511 88.8683 118.376 88.6591 118.167 88.4769C117.96 88.2925 117.681 88.2003 117.331 88.2003C117.02 88.2003 116.748 88.2812 116.514 88.4432C116.283 88.6029 116.102 88.8289 115.971 89.1213C115.843 89.4114 115.779 89.7521 115.779 90.1435C115.779 90.5438 115.842 90.8924 115.968 91.1893C116.096 91.4862 116.276 91.7167 116.507 91.8809C116.741 92.045 117.016 92.1271 117.331 92.1271C117.538 92.1271 117.725 92.0911 117.894 92.0192C118.063 91.9472 118.206 91.8438 118.322 91.7088C118.439 91.5739 118.523 91.4119 118.572 91.223H119.368C119.323 91.5289 119.212 91.8044 119.034 92.0495C118.859 92.2924 118.626 92.4859 118.336 92.6298C118.048 92.7715 117.713 92.8423 117.331 92.8423ZM122.786 87.5526V88.2273H120.1V87.5526H122.786ZM120.883 86.3111H121.679V91.25C121.679 91.4749 121.712 91.6436 121.777 91.756C121.844 91.8662 121.93 91.9405 122.033 91.9787C122.139 92.0147 122.25 92.0327 122.367 92.0327C122.455 92.0327 122.527 92.0282 122.583 92.0192C122.64 92.0079 122.685 91.9989 122.718 91.9922L122.88 92.7074C122.826 92.7276 122.751 92.7479 122.654 92.7681C122.557 92.7906 122.435 92.8018 122.286 92.8018C122.062 92.8018 121.841 92.7535 121.625 92.6568C121.412 92.5601 121.234 92.4128 121.092 92.2148C120.953 92.0169 120.883 91.7673 120.883 91.4659V86.3111ZM123.983 92.7344V87.5526H124.779V92.7344H123.983ZM124.388 86.6889C124.233 86.6889 124.099 86.6361 123.987 86.5304C123.877 86.4247 123.821 86.2976 123.821 86.1491C123.821 86.0007 123.877 85.8736 123.987 85.7679C124.099 85.6622 124.233 85.6094 124.388 85.6094C124.543 85.6094 124.676 85.6622 124.786 85.7679C124.899 85.8736 124.955 86.0007 124.955 86.1491C124.955 86.2976 124.899 86.4247 124.786 86.5304C124.676 86.6361 124.543 86.6889 124.388 86.6889ZM130.475 87.5526L128.559 92.7344H127.749L125.833 87.5526H126.697L128.127 91.6818H128.181L129.611 87.5526H130.475ZM133.513 92.8423C133.014 92.8423 132.583 92.7321 132.221 92.5117C131.861 92.2891 131.583 91.9787 131.387 91.5806C131.194 91.1803 131.097 90.7147 131.097 90.1839C131.097 89.6532 131.194 89.1854 131.387 88.7805C131.583 88.3735 131.855 88.0563 132.204 87.8292C132.555 87.5998 132.964 87.4851 133.432 87.4851C133.702 87.4851 133.968 87.5301 134.231 87.62C134.495 87.71 134.734 87.8562 134.95 88.0586C135.166 88.2588 135.338 88.5241 135.466 88.8548C135.594 89.1854 135.658 89.5924 135.658 90.076V90.4134H131.664V89.7251H134.849C134.849 89.4328 134.79 89.1719 134.673 88.9425C134.559 88.7131 134.394 88.532 134.181 88.3993C133.969 88.2666 133.72 88.2003 133.432 88.2003C133.115 88.2003 132.84 88.279 132.609 88.4364C132.379 88.5916 132.203 88.794 132.079 89.0437C131.955 89.2933 131.894 89.561 131.894 89.8466V90.3054C131.894 90.6967 131.961 91.0285 132.096 91.3006C132.233 91.5705 132.423 91.7763 132.666 91.918C132.909 92.0574 133.191 92.1271 133.513 92.1271C133.722 92.1271 133.911 92.0979 134.08 92.0394C134.251 91.9787 134.398 91.8887 134.522 91.7695C134.645 91.6481 134.741 91.4974 134.808 91.3175L135.577 91.5334C135.497 91.7943 135.36 92.0237 135.169 92.2216C134.978 92.4173 134.742 92.5702 134.461 92.6804C134.18 92.7884 133.864 92.8423 133.513 92.8423ZM142.807 90.6158V87.5526H143.603V92.7344H142.807V91.8572H142.753C142.632 92.1204 142.443 92.3442 142.186 92.5286C141.93 92.7108 141.606 92.8018 141.215 92.8018C140.891 92.8018 140.603 92.731 140.351 92.5893C140.099 92.4454 139.901 92.2295 139.757 91.9416C139.613 91.6515 139.541 91.286 139.541 90.8452V87.5526H140.338V90.7912C140.338 91.169 140.443 91.4704 140.655 91.6953C140.868 91.9202 141.141 92.0327 141.471 92.0327C141.669 92.0327 141.87 91.9821 142.075 91.8809C142.282 91.7797 142.455 91.6245 142.595 91.4153C142.736 91.2061 142.807 90.9396 142.807 90.6158ZM148.732 88.7131L148.017 88.9155C147.972 88.7963 147.905 88.6805 147.818 88.568C147.732 88.4533 147.615 88.3588 147.467 88.2846C147.318 88.2104 147.128 88.1733 146.897 88.1733C146.58 88.1733 146.315 88.2464 146.104 88.3926C145.895 88.5365 145.79 88.7198 145.79 88.9425C145.79 89.1404 145.862 89.2967 146.006 89.4114C146.15 89.5261 146.375 89.6217 146.681 89.6982L147.45 89.8871C147.913 89.9995 148.258 90.1716 148.486 90.4032C148.713 90.6326 148.826 90.9284 148.826 91.2905C148.826 91.5874 148.741 91.8527 148.57 92.0866C148.401 92.3205 148.165 92.505 147.862 92.6399C147.558 92.7749 147.205 92.8423 146.802 92.8423C146.274 92.8423 145.836 92.7276 145.49 92.4982C145.144 92.2688 144.924 91.9337 144.832 91.4929L145.588 91.304C145.66 91.5829 145.796 91.792 145.996 91.9315C146.198 92.0709 146.463 92.1406 146.789 92.1406C147.16 92.1406 147.454 92.0619 147.673 91.9045C147.893 91.7448 148.003 91.5536 148.003 91.331C148.003 91.151 147.94 91.0004 147.814 90.8789C147.688 90.7552 147.495 90.663 147.234 90.6023L146.37 90.3999C145.896 90.2874 145.547 90.1131 145.325 89.877C145.104 89.6386 144.994 89.3406 144.994 88.983C144.994 88.6906 145.076 88.4319 145.24 88.207C145.407 87.9821 145.633 87.8056 145.918 87.6774C146.206 87.5492 146.532 87.4851 146.897 87.4851C147.409 87.4851 147.812 87.5975 148.104 87.8224C148.399 88.0473 148.608 88.3442 148.732 88.7131ZM152.197 92.8423C151.698 92.8423 151.267 92.7321 150.905 92.5117C150.545 92.2891 150.268 91.9787 150.072 91.5806C149.879 91.1803 149.782 90.7147 149.782 90.1839C149.782 89.6532 149.879 89.1854 150.072 88.7805C150.268 88.3735 150.54 88.0563 150.888 87.8292C151.239 87.5998 151.649 87.4851 152.116 87.4851C152.386 87.4851 152.653 87.5301 152.916 87.62C153.179 87.71 153.419 87.8562 153.635 88.0586C153.85 88.2588 154.023 88.5241 154.151 88.8548C154.279 89.1854 154.343 89.5924 154.343 90.076V90.4134H150.349V89.7251H153.533C153.533 89.4328 153.475 89.1719 153.358 88.9425C153.243 88.7131 153.079 88.532 152.865 88.3993C152.654 88.2666 152.404 88.2003 152.116 88.2003C151.799 88.2003 151.525 88.279 151.293 88.4364C151.064 88.5916 150.887 88.794 150.764 89.0437C150.64 89.2933 150.578 89.561 150.578 89.8466V90.3054C150.578 90.6967 150.646 91.0285 150.781 91.3006C150.918 91.5705 151.108 91.7763 151.351 91.918C151.594 92.0574 151.876 92.1271 152.197 92.1271C152.407 92.1271 152.596 92.0979 152.764 92.0394C152.935 91.9787 153.082 91.8887 153.206 91.7695C153.33 91.6481 153.425 91.4974 153.493 91.3175L154.262 91.5334C154.181 91.7943 154.045 92.0237 153.854 92.2216C153.663 92.4173 153.427 92.5702 153.145 92.6804C152.864 92.7884 152.548 92.8423 152.197 92.8423ZM155.554 92.7344V87.5526H156.323V88.3352H156.377C156.472 88.0788 156.643 87.8708 156.89 87.7111C157.137 87.5514 157.416 87.4716 157.727 87.4716C157.785 87.4716 157.858 87.4727 157.946 87.475C158.034 87.4772 158.1 87.4806 158.145 87.4851V88.2947C158.118 88.288 158.056 88.2779 157.959 88.2644C157.865 88.2486 157.765 88.2408 157.659 88.2408C157.407 88.2408 157.182 88.2936 156.985 88.3993C156.789 88.5028 156.634 88.6467 156.519 88.8311C156.407 89.0133 156.35 89.2214 156.35 89.4553V92.7344H155.554ZM162.759 88.7131L162.044 88.9155C161.999 88.7963 161.933 88.6805 161.845 88.568C161.76 88.4533 161.643 88.3588 161.494 88.2846C161.346 88.2104 161.156 88.1733 160.924 88.1733C160.607 88.1733 160.343 88.2464 160.131 88.3926C159.922 88.5365 159.817 88.7198 159.817 88.9425C159.817 89.1404 159.889 89.2967 160.033 89.4114C160.177 89.5261 160.402 89.6217 160.708 89.6982L161.477 89.8871C161.941 89.9995 162.286 90.1716 162.513 90.4032C162.74 90.6326 162.854 90.9284 162.854 91.2905C162.854 91.5874 162.768 91.8527 162.597 92.0866C162.429 92.3205 162.192 92.505 161.889 92.6399C161.585 92.7749 161.232 92.8423 160.83 92.8423C160.301 92.8423 159.864 92.7276 159.517 92.4982C159.171 92.2688 158.952 91.9337 158.859 91.4929L159.615 91.304C159.687 91.5829 159.823 91.792 160.023 91.9315C160.226 92.0709 160.49 92.1406 160.816 92.1406C161.187 92.1406 161.482 92.0619 161.7 91.9045C161.92 91.7448 162.031 91.5536 162.031 91.331C162.031 91.151 161.968 91.0004 161.842 90.8789C161.716 90.7552 161.522 90.663 161.261 90.6023L160.398 90.3999C159.923 90.2874 159.575 90.1131 159.352 89.877C159.132 89.6386 159.021 89.3406 159.021 88.983C159.021 88.6906 159.103 88.4319 159.268 88.207C159.434 87.9821 159.66 87.8056 159.946 87.6774C160.234 87.5492 160.56 87.4851 160.924 87.4851C161.437 87.4851 161.839 87.5975 162.132 87.8224C162.426 88.0473 162.636 88.3442 162.759 88.7131Z" fill="url(#paint3_linear_1_5461)"/>
<defs>
<linearGradient id="paint0_linear_1_5461" x1="136.077" y1="123.734" x2="139.577" y2="-34.2656" gradientUnits="userSpaceOnUse">
<stop stop-color="#1E2F41"/>
<stop offset="1" stop-color="#1E2F41" stop-opacity="0"/>
</linearGradient>
<linearGradient id="paint1_linear_1_5461" x1="37.0769" y1="129.734" x2="96.5769" y2="17.7344" gradientUnits="userSpaceOnUse">
<stop stop-color="#259EFA"/>
<stop offset="1" stop-color="#347E8E" stop-opacity="0"/>
</linearGradient>
<linearGradient id="paint2_linear_1_5461" x1="71.7954" y1="55.7344" x2="264.506" y2="52.8509" gradientUnits="userSpaceOnUse">
<stop stop-color="#4C76C9"/>
<stop offset="0.463542" stop-color="#29C4A8" stop-opacity="0.536458"/>
<stop offset="1" stop-color="white" stop-opacity="0"/>
</linearGradient>
<linearGradient id="paint3_linear_1_5461" x1="114.43" y1="88.7836" x2="179.797" y2="86.9427" gradientUnits="userSpaceOnUse">
<stop stop-color="#4C76C9"/>
<stop offset="0.463542" stop-color="#29C4A8" stop-opacity="0.536458"/>
<stop offset="1" stop-color="white" stop-opacity="0"/>
</linearGradient>
</defs>
</svg>
