<svg width="272" height="131" viewBox="0 0 272 131" fill="none" xmlns="http://www.w3.org/2000/svg">
<path d="M1.0769 1.15929H0.767448V1.46875V130.203V130.512H1.0769H270.923H271.233V130.203V1.46875V1.15929H270.923H1.0769Z" fill="url(#paint0_linear_1_5465)" stroke="url(#paint1_linear_1_5465)" stroke-width="0.618913"/>
<path d="M46.5655 82.0142V36.5597H49.4775V82.0142H46.5655ZM56.3667 50.196C56.1536 48.3968 55.2895 47 53.7743 46.0057C52.2592 45.0114 50.4008 44.5142 48.1991 44.5142C46.5892 44.5142 45.1806 44.7746 43.9732 45.2955C42.7777 45.8163 41.8425 46.5324 41.1678 47.4439C40.5049 48.3553 40.1735 49.3911 40.1735 50.5511C40.1735 51.5218 40.4043 52.3563 40.866 53.0547C41.3395 53.7412 41.9431 54.3153 42.677 54.777C43.4109 55.2268 44.1804 55.5997 44.9853 55.8956C45.7902 56.1797 46.53 56.4105 47.2047 56.5881L50.8979 57.5824C51.8449 57.831 52.8984 58.1742 54.0584 58.6122C55.2303 59.0502 56.3489 59.648 57.4143 60.4055C58.4914 61.1513 59.3792 62.1101 60.0776 63.282C60.776 64.4538 61.1252 65.892 61.1252 67.5966C61.1252 69.5616 60.6103 71.3371 59.5805 72.9233C58.5625 74.5095 57.071 75.7701 55.106 76.7053C53.1529 77.6404 50.7796 78.108 47.986 78.108C45.3818 78.108 43.1269 77.6877 41.2211 76.8473C39.3271 76.0069 37.8357 74.835 36.7466 73.3317C35.6695 71.8284 35.0599 70.0824 34.9178 68.0938H39.4633C39.5816 69.4669 40.0433 70.6032 40.8482 71.5028C41.665 72.3906 42.6948 73.0535 43.9377 73.4915C45.1924 73.9176 46.5419 74.1307 47.986 74.1307C49.6669 74.1307 51.1761 73.8584 52.5137 73.3139C53.8513 72.7576 54.9107 71.9882 55.692 71.0057C56.4732 70.0114 56.8638 68.8513 56.8638 67.5256C56.8638 66.3182 56.5265 65.3357 55.8518 64.5781C55.177 63.8205 54.2893 63.205 53.1884 62.7315C52.0876 62.258 50.8979 61.8437 49.6195 61.4886L45.1451 60.2102C42.3042 59.3935 40.0551 58.2275 38.3979 56.7124C36.7407 55.1972 35.9121 53.2145 35.9121 50.7642C35.9121 48.7282 36.4626 46.9527 37.5634 45.4375C38.6761 43.9105 40.1676 42.7268 42.0378 41.8864C43.9199 41.0341 46.021 40.608 48.3411 40.608C50.6849 40.608 52.7682 41.0282 54.5911 41.8686C56.414 42.6972 57.8582 43.8336 58.9235 45.2777C60.0007 46.7218 60.5689 48.3613 60.628 50.196H56.3667ZM67.7259 77.4688V74.2727L79.7287 61.1335C81.1373 59.5947 82.2974 58.2571 83.2088 57.1207C84.1203 55.9725 84.795 54.8954 85.233 53.8892C85.6828 52.8712 85.9077 51.8059 85.9077 50.6932C85.9077 49.4148 85.5999 48.308 84.9844 47.3729C84.3807 46.4377 83.5521 45.7157 82.4986 45.2067C81.4451 44.6977 80.2614 44.4432 78.9475 44.4432C77.5507 44.4432 76.3315 44.7332 75.2898 45.3132C74.26 45.8814 73.461 46.6804 72.8928 47.7102C72.3364 48.7401 72.0583 49.9474 72.0583 51.3324H67.8679C67.8679 49.2017 68.3592 47.3314 69.3416 45.7216C70.3241 44.1117 71.6617 42.857 73.3544 41.9574C75.059 41.0578 76.9707 40.608 79.0895 40.608C81.2202 40.608 83.1082 41.0578 84.7536 41.9574C86.3989 42.857 87.6892 44.0703 88.6243 45.5973C89.5594 47.1243 90.027 48.8229 90.027 50.6932C90.027 52.0308 89.7844 53.3388 89.299 54.6172C88.8255 55.8838 87.9969 57.2983 86.8132 58.8608C85.6414 60.4115 84.0138 62.3054 81.9304 64.5426L73.7628 73.2784V73.5625H90.6662V77.4688H67.7259ZM110.783 41.1051V77.4688H106.38V45.7216H106.167L97.2891 51.6165V47.142L106.38 41.1051H110.783ZM134.026 41.1051V77.4688H129.622V45.7216H129.409L120.531 51.6165V47.142L129.622 41.1051H134.026ZM158.617 77.4688V50.196H162.666V54.4574H163.021C163.589 53.0014 164.506 51.871 165.773 51.0661C167.039 50.2493 168.56 49.8409 170.336 49.8409C172.135 49.8409 173.633 50.2493 174.828 51.0661C176.036 51.871 176.977 53.0014 177.651 54.4574H177.935C178.634 53.0488 179.681 51.9302 181.078 51.1016C182.475 50.2611 184.15 49.8409 186.103 49.8409C188.541 49.8409 190.536 50.6044 192.087 52.1314C193.637 53.6465 194.413 56.008 194.413 59.2159V77.4688H190.222V59.2159C190.222 57.2036 189.672 55.7654 188.571 54.9013C187.47 54.0372 186.174 53.6051 184.683 53.6051C182.765 53.6051 181.279 54.1851 180.226 55.3452C179.172 56.4934 178.646 57.9493 178.646 59.7131V77.4688H174.384V58.7898C174.384 57.2391 173.881 55.9903 172.875 55.0433C171.869 54.0845 170.573 53.6051 168.987 53.6051C167.898 53.6051 166.88 53.8951 165.933 54.4751C164.997 55.0552 164.24 55.8601 163.66 56.8899C163.092 57.9079 162.808 59.0857 162.808 60.4233V77.4688H158.617ZM206.265 41.1051V77.4688H202.074V41.1051H206.265ZM218.13 61.0625V77.4688H213.939V50.196H217.988V54.4574H218.343C218.982 53.0724 219.953 51.9598 221.255 51.1193C222.557 50.267 224.238 49.8409 226.297 49.8409C228.144 49.8409 229.76 50.2197 231.145 50.9773C232.53 51.723 233.607 52.8594 234.376 54.3864C235.146 55.9015 235.53 57.8191 235.53 60.1392V77.4688H231.34V60.4233C231.34 58.2808 230.784 56.6117 229.671 55.4162C228.558 54.2088 227.031 53.6051 225.09 53.6051C223.752 53.6051 222.557 53.8951 221.503 54.4751C220.462 55.0552 219.639 55.9015 219.035 57.0142C218.432 58.1269 218.13 59.4763 218.13 61.0625Z" fill="url(#paint2_linear_1_5465)"/>
<path d="M69.7921 93.4688V92.8615L72.0726 90.3651C72.3403 90.0727 72.5607 89.8185 72.7339 89.6026C72.907 89.3845 73.0352 89.1798 73.1185 88.9886C73.2039 88.7952 73.2466 88.5928 73.2466 88.3814C73.2466 88.1385 73.1882 87.9282 73.0712 87.7505C72.9565 87.5729 72.7991 87.4357 72.5989 87.339C72.3988 87.2422 72.1739 87.1939 71.9242 87.1939C71.6588 87.1939 71.4272 87.249 71.2292 87.3592C71.0336 87.4672 70.8818 87.619 70.7738 87.8146C70.6681 88.0103 70.6153 88.2397 70.6153 88.5028H69.8191C69.8191 88.098 69.9124 87.7427 70.0991 87.4368C70.2858 87.1309 70.5399 86.8925 70.8615 86.7216C71.1854 86.5507 71.5486 86.4652 71.9512 86.4652C72.356 86.4652 72.7147 86.5507 73.0274 86.7216C73.34 86.8925 73.5851 87.123 73.7628 87.4132C73.9405 87.7033 74.0293 88.026 74.0293 88.3814C74.0293 88.6355 73.9832 88.8841 73.891 89.127C73.801 89.3676 73.6436 89.6364 73.4187 89.9332C73.196 90.2279 72.8868 90.5877 72.491 91.0128L70.9391 92.6726V92.7266H74.1508V93.4688H69.7921ZM75.2337 92.0518V91.3636L78.2699 86.5597H78.7692V87.6257H78.4318L76.1378 91.2557V91.3097H80.2266V92.0518H75.2337ZM78.4858 93.4688V91.8427V91.5222V86.5597H79.282V93.4688H78.4858ZM82.3005 90.3516V93.4688H81.5043V86.5597H82.3005V89.0966H82.368C82.4894 88.829 82.6716 88.6164 82.9145 88.459C83.1596 88.2993 83.4857 88.2195 83.8928 88.2195C84.2459 88.2195 84.5552 88.2903 84.8206 88.432C85.0859 88.5714 85.2917 88.7862 85.4379 89.0763C85.5864 89.3642 85.6606 89.7308 85.6606 90.1761V93.4688H84.8644V90.2301C84.8644 89.8185 84.7576 89.5003 84.5439 89.2754C84.3325 89.0482 84.039 88.9347 83.6634 88.9347C83.4025 88.9347 83.1686 88.9898 82.9617 89.1C82.7571 89.2102 82.5951 89.371 82.4759 89.5824C82.359 89.7938 82.3005 90.0502 82.3005 90.3516ZM92.0425 88.2869V88.9616H89.3572V88.2869H92.0425ZM90.1398 87.0455H90.936V91.9844C90.936 92.2093 90.9686 92.378 91.0338 92.4904C91.1013 92.6006 91.1868 92.6748 91.2902 92.7131C91.3959 92.7491 91.5073 92.767 91.6242 92.767C91.7119 92.767 91.7839 92.7625 91.8401 92.7536C91.8964 92.7423 91.9413 92.7333 91.9751 92.7266L92.137 93.4418C92.083 93.462 92.0077 93.4822 91.911 93.5025C91.8143 93.525 91.6917 93.5362 91.5433 93.5362C91.3184 93.5362 91.0979 93.4879 90.882 93.3912C90.6684 93.2944 90.4907 93.1471 90.349 92.9492C90.2096 92.7513 90.1398 92.5017 90.1398 92.2003V87.0455ZM93.2402 93.4688V88.2869H94.0093V89.0696H94.0633C94.1578 88.8132 94.3287 88.6052 94.5761 88.4455C94.8235 88.2858 95.1024 88.206 95.4128 88.206C95.4712 88.206 95.5443 88.2071 95.632 88.2093C95.7197 88.2116 95.7861 88.215 95.8311 88.2195V89.0291C95.8041 89.0224 95.7422 89.0123 95.6455 88.9988C95.5511 88.983 95.451 88.9751 95.3453 88.9751C95.0934 88.9751 94.8685 89.028 94.6706 89.1337C94.4749 89.2372 94.3197 89.3811 94.205 89.5655C94.0926 89.7477 94.0363 89.9557 94.0363 90.1896V93.4688H93.2402ZM98.2997 93.5902C97.9713 93.5902 97.6733 93.5283 97.4057 93.4047C97.1381 93.2787 96.9255 93.0977 96.7681 92.8615C96.6107 92.6231 96.5319 92.3352 96.5319 91.9979C96.5319 91.701 96.5904 91.4603 96.7074 91.2759C96.8243 91.0893 96.9806 90.9431 97.1763 90.8374C97.372 90.7317 97.5879 90.6529 97.824 90.6012C98.0624 90.5472 98.3019 90.5045 98.5426 90.473C98.8575 90.4325 99.1127 90.4022 99.3084 90.3819C99.5063 90.3594 99.6503 90.3223 99.7402 90.2706C99.8324 90.2189 99.8785 90.1289 99.8785 90.0007V89.9737C99.8785 89.6409 99.7874 89.3822 99.6053 89.1978C99.4253 89.0134 99.1521 88.9212 98.7855 88.9212C98.4054 88.9212 98.1074 89.0044 97.8915 89.1708C97.6756 89.3372 97.5238 89.5149 97.4361 89.7038L96.6804 89.4339C96.8153 89.1191 96.9952 88.8739 97.2201 88.6985C97.4473 88.5208 97.6947 88.3971 97.9623 88.3274C98.2322 88.2554 98.4976 88.2195 98.7585 88.2195C98.9249 88.2195 99.1161 88.2397 99.332 88.2802C99.5502 88.3184 99.7605 88.3983 99.9629 88.5197C100.168 88.6412 100.337 88.8245 100.472 89.0696C100.607 89.3147 100.675 89.6431 100.675 90.0547V93.4688H99.8785V92.767H99.838C99.7841 92.8795 99.6941 92.9998 99.5682 93.128C99.4422 93.2562 99.2747 93.3653 99.0655 93.4553C98.8563 93.5452 98.6011 93.5902 98.2997 93.5902ZM98.4211 92.875C98.736 92.875 99.0014 92.8132 99.2173 92.6895C99.4355 92.5658 99.5996 92.4061 99.7098 92.2104C99.8223 92.0147 99.8785 91.8089 99.8785 91.593V90.8643C99.8448 90.9048 99.7706 90.9419 99.6559 90.9757C99.5434 91.0072 99.413 91.0353 99.2645 91.06C99.1183 91.0825 98.9755 91.1027 98.8361 91.1207C98.6989 91.1365 98.5876 91.15 98.5021 91.1612C98.2952 91.1882 98.1018 91.2321 97.9219 91.2928C97.7442 91.3513 97.6002 91.4401 97.49 91.5593C97.3821 91.6763 97.3281 91.8359 97.3281 92.0384C97.3281 92.315 97.4304 92.5241 97.6351 92.6658C97.842 92.8053 98.104 92.875 98.4211 92.875ZM104.085 93.5767C103.653 93.5767 103.272 93.4676 102.941 93.2495C102.61 93.0291 102.352 92.7187 102.165 92.3184C101.978 91.9158 101.885 91.4401 101.885 90.8913C101.885 90.3471 101.978 89.8748 102.165 89.4744C102.352 89.0741 102.611 88.7649 102.944 88.5467C103.277 88.3285 103.662 88.2195 104.098 88.2195C104.435 88.2195 104.702 88.2757 104.898 88.3881C105.095 88.4983 105.246 88.6243 105.35 88.766C105.455 88.9054 105.537 89.0201 105.596 89.1101H105.663V86.5597H106.46V93.4688H105.69V92.6726H105.596C105.537 92.767 105.454 92.8862 105.346 93.0302C105.238 93.1719 105.084 93.2989 104.884 93.4114C104.684 93.5216 104.417 93.5767 104.085 93.5767ZM104.192 92.8615C104.512 92.8615 104.782 92.7783 105.002 92.6119C105.223 92.4432 105.39 92.2104 105.505 91.9135C105.62 91.6144 105.677 91.2692 105.677 90.8778C105.677 90.491 105.621 90.1525 105.508 89.8624C105.396 89.57 105.229 89.3429 105.009 89.1809C104.788 89.0167 104.516 88.9347 104.192 88.9347C103.855 88.9347 103.574 89.0212 103.349 89.1944C103.126 89.3654 102.959 89.5981 102.846 89.8928C102.736 90.1851 102.681 90.5135 102.681 90.8778C102.681 91.2467 102.737 91.5818 102.85 91.8832C102.965 92.1823 103.133 92.4207 103.356 92.5984C103.581 92.7738 103.86 92.8615 104.192 92.8615ZM108.028 93.4688V88.2869H108.824V93.4688H108.028ZM108.433 87.4233C108.278 87.4233 108.144 87.3704 108.032 87.2647C107.921 87.159 107.866 87.032 107.866 86.8835C107.866 86.7351 107.921 86.608 108.032 86.5023C108.144 86.3966 108.278 86.3438 108.433 86.3438C108.588 86.3438 108.721 86.3966 108.831 86.5023C108.944 86.608 109 86.7351 109 86.8835C109 87.032 108.944 87.159 108.831 87.2647C108.721 87.3704 108.588 87.4233 108.433 87.4233ZM111.079 90.3516V93.4688H110.283V88.2869H111.052V89.0966H111.119C111.241 88.8335 111.425 88.622 111.673 88.4624C111.92 88.3004 112.239 88.2195 112.631 88.2195C112.982 88.2195 113.289 88.2914 113.552 88.4354C113.815 88.5771 114.019 88.793 114.166 89.0831C114.312 89.371 114.385 89.7353 114.385 90.1761V93.4688H113.589V90.2301C113.589 89.823 113.483 89.5059 113.272 89.2788C113.06 89.0494 112.77 88.9347 112.401 88.9347C112.147 88.9347 111.92 88.9898 111.72 89.1C111.522 89.2102 111.366 89.371 111.251 89.5824C111.136 89.7938 111.079 90.0502 111.079 90.3516ZM117.931 95.5199C117.547 95.5199 117.216 95.4704 116.94 95.3714C116.663 95.2747 116.432 95.1465 116.248 94.9869C116.066 94.8294 115.921 94.6607 115.813 94.4808L116.447 94.0355C116.519 94.13 116.61 94.2379 116.72 94.3594C116.83 94.4831 116.981 94.5899 117.172 94.6799C117.366 94.7721 117.619 94.8182 117.931 94.8182C118.35 94.8182 118.695 94.717 118.967 94.5146C119.239 94.3121 119.375 93.995 119.375 93.5632V92.5107H119.308C119.249 92.6051 119.166 92.7221 119.058 92.8615C118.952 92.9987 118.8 93.1213 118.599 93.2292C118.401 93.3349 118.134 93.3878 117.796 93.3878C117.378 93.3878 117.003 93.2888 116.67 93.0909C116.339 92.893 116.077 92.6051 115.884 92.2273C115.692 91.8494 115.597 91.3906 115.597 90.8509C115.597 90.3201 115.69 89.8579 115.877 89.4643C116.064 89.0685 116.323 88.7626 116.656 88.5467C116.989 88.3285 117.374 88.2195 117.81 88.2195C118.147 88.2195 118.415 88.2757 118.613 88.3881C118.813 88.4983 118.966 88.6243 119.072 88.766C119.18 88.9054 119.263 89.0201 119.321 89.1101H119.402V88.2869H120.171V93.6172C120.171 94.0625 120.07 94.4246 119.868 94.7035C119.668 94.9846 119.398 95.1904 119.058 95.3208C118.721 95.4535 118.345 95.5199 117.931 95.5199ZM117.904 92.6726C118.224 92.6726 118.494 92.5995 118.714 92.4533C118.934 92.3071 119.102 92.0968 119.217 91.8224C119.331 91.5481 119.389 91.2197 119.389 90.8374C119.389 90.464 119.333 90.1345 119.22 89.8489C119.108 89.5633 118.941 89.3395 118.721 89.1776C118.5 89.0156 118.228 88.9347 117.904 88.9347C117.567 88.9347 117.286 89.0201 117.061 89.1911C116.838 89.362 116.671 89.5914 116.558 89.8793C116.448 90.1671 116.393 90.4865 116.393 90.8374C116.393 91.1972 116.449 91.5154 116.562 91.7921C116.676 92.0665 116.845 92.2824 117.068 92.4398C117.293 92.595 117.572 92.6726 117.904 92.6726ZM128.538 88.2869L126.622 93.4688H125.812L123.896 88.2869H124.76L126.19 92.4162H126.244L127.674 88.2869H128.538ZM131.508 93.5767C131.041 93.5767 130.63 93.4654 130.277 93.2427C129.926 93.0201 129.652 92.7086 129.454 92.3082C129.258 91.9079 129.16 91.4401 129.16 90.9048C129.16 90.3651 129.258 89.8939 129.454 89.4913C129.652 89.0887 129.926 88.7761 130.277 88.5534C130.63 88.3308 131.041 88.2195 131.508 88.2195C131.976 88.2195 132.385 88.3308 132.736 88.5534C133.089 88.7761 133.364 89.0887 133.56 89.4913C133.757 89.8939 133.856 90.3651 133.856 90.9048C133.856 91.4401 133.757 91.9079 133.56 92.3082C133.364 92.7086 133.089 93.0201 132.736 93.2427C132.385 93.4654 131.976 93.5767 131.508 93.5767ZM131.508 92.8615C131.864 92.8615 132.156 92.7704 132.385 92.5882C132.615 92.4061 132.785 92.1665 132.895 91.8697C133.005 91.5728 133.06 91.2512 133.06 90.9048C133.06 90.5585 133.005 90.2357 132.895 89.9366C132.785 89.6375 132.615 89.3957 132.385 89.2113C132.156 89.0269 131.864 88.9347 131.508 88.9347C131.153 88.9347 130.861 89.0269 130.631 89.2113C130.402 89.3957 130.232 89.6375 130.122 89.9366C130.012 90.2357 129.957 90.5585 129.957 90.9048C129.957 91.2512 130.012 91.5728 130.122 91.8697C130.232 92.1665 130.402 92.4061 130.631 92.5882C130.861 92.7704 131.153 92.8615 131.508 92.8615ZM135.868 86.5597V93.4688H135.072V86.5597H135.868ZM140.592 91.3501V88.2869H141.388V93.4688H140.592V92.5916H140.538C140.416 92.8548 140.227 93.0785 139.971 93.263C139.715 93.4451 139.391 93.5362 138.999 93.5362C138.676 93.5362 138.388 93.4654 138.136 93.3237C137.884 93.1797 137.686 92.9638 137.542 92.676C137.398 92.3858 137.326 92.0204 137.326 91.5795V88.2869H138.122V91.5256C138.122 91.9034 138.228 92.2048 138.439 92.4297C138.653 92.6546 138.925 92.767 139.256 92.767C139.454 92.767 139.655 92.7164 139.86 92.6152C140.067 92.514 140.24 92.3588 140.379 92.1497C140.521 91.9405 140.592 91.674 140.592 91.3501ZM142.846 93.4688V88.2869H143.615V89.0966H143.683C143.791 88.82 143.965 88.6052 144.206 88.4522C144.446 88.2971 144.735 88.2195 145.073 88.2195C145.415 88.2195 145.699 88.2971 145.926 88.4522C146.156 88.6052 146.334 88.82 146.463 89.0966H146.517C146.649 88.829 146.848 88.6164 147.114 88.459C147.379 88.2993 147.697 88.2195 148.068 88.2195C148.532 88.2195 148.911 88.3645 149.205 88.6547C149.5 88.9425 149.647 89.3912 149.647 90.0007V93.4688H148.851V90.0007C148.851 89.6184 148.747 89.3451 148.537 89.1809C148.328 89.0167 148.082 88.9347 147.799 88.9347C147.434 88.9347 147.152 89.0449 146.952 89.2653C146.752 89.4834 146.652 89.7601 146.652 90.0952V93.4688H145.842V89.9197C145.842 89.6251 145.746 89.3878 145.555 89.2079C145.364 89.0257 145.118 88.9347 144.816 88.9347C144.609 88.9347 144.416 88.9898 144.236 89.1C144.058 89.2102 143.914 89.3631 143.804 89.5588C143.696 89.7522 143.642 89.976 143.642 90.2301V93.4688H142.846ZM153.276 93.5767C152.776 93.5767 152.346 93.4665 151.983 93.2461C151.624 93.0234 151.346 92.7131 151.15 92.315C150.957 91.9147 150.86 91.4491 150.86 90.9183C150.86 90.3875 150.957 89.9197 151.15 89.5149C151.346 89.1078 151.618 88.7907 151.967 88.5636C152.317 88.3342 152.727 88.2195 153.195 88.2195C153.464 88.2195 153.731 88.2644 153.994 88.3544C154.257 88.4444 154.497 88.5906 154.713 88.793C154.929 88.9931 155.101 89.2585 155.229 89.5891C155.357 89.9197 155.421 90.3268 155.421 90.8104V91.1477H151.427V90.4595H154.611C154.611 90.1671 154.553 89.9062 154.436 89.6768C154.321 89.4474 154.157 89.2664 153.944 89.1337C153.732 89.001 153.482 88.9347 153.195 88.9347C152.877 88.9347 152.603 89.0134 152.371 89.1708C152.142 89.326 151.965 89.5284 151.842 89.7781C151.718 90.0277 151.656 90.2953 151.656 90.581V91.0398C151.656 91.4311 151.724 91.7628 151.859 92.035C151.996 92.3049 152.186 92.5107 152.429 92.6523C152.672 92.7918 152.954 92.8615 153.276 92.8615C153.485 92.8615 153.674 92.8323 153.842 92.7738C154.013 92.7131 154.161 92.6231 154.284 92.5039C154.408 92.3825 154.504 92.2318 154.571 92.0518L155.34 92.2678C155.259 92.5286 155.123 92.758 154.932 92.956C154.741 93.1516 154.505 93.3046 154.224 93.4148C153.942 93.5227 153.626 93.5767 153.276 93.5767ZM161.409 93.5767C160.941 93.5767 160.531 93.4654 160.178 93.2427C159.827 93.0201 159.553 92.7086 159.355 92.3082C159.159 91.9079 159.061 91.4401 159.061 90.9048C159.061 90.3651 159.159 89.8939 159.355 89.4913C159.553 89.0887 159.827 88.7761 160.178 88.5534C160.531 88.3308 160.941 88.2195 161.409 88.2195C161.877 88.2195 162.286 88.3308 162.637 88.5534C162.99 88.7761 163.265 89.0887 163.46 89.4913C163.658 89.8939 163.757 90.3651 163.757 90.9048C163.757 91.4401 163.658 91.9079 163.46 92.3082C163.265 92.7086 162.99 93.0201 162.637 93.2427C162.286 93.4654 161.877 93.5767 161.409 93.5767ZM161.409 92.8615C161.765 92.8615 162.057 92.7704 162.286 92.5882C162.516 92.4061 162.686 92.1665 162.796 91.8697C162.906 91.5728 162.961 91.2512 162.961 90.9048C162.961 90.5585 162.906 90.2357 162.796 89.9366C162.686 89.6375 162.516 89.3957 162.286 89.2113C162.057 89.0269 161.765 88.9347 161.409 88.9347C161.054 88.9347 160.762 89.0269 160.532 89.2113C160.303 89.3957 160.133 89.6375 160.023 89.9366C159.913 90.2357 159.857 90.5585 159.857 90.9048C159.857 91.2512 159.913 91.5728 160.023 91.8697C160.133 92.1665 160.303 92.4061 160.532 92.5882C160.762 92.7704 161.054 92.8615 161.409 92.8615ZM165.769 90.3516V93.4688H164.973V88.2869H165.742V89.0966H165.809C165.931 88.8335 166.115 88.622 166.363 88.4624C166.61 88.3004 166.929 88.2195 167.321 88.2195C167.671 88.2195 167.978 88.2914 168.242 88.4354C168.505 88.5771 168.709 88.793 168.856 89.0831C169.002 89.371 169.075 89.7353 169.075 90.1761V93.4688H168.279V90.2301C168.279 89.823 168.173 89.5059 167.962 89.2788C167.75 89.0494 167.46 88.9347 167.091 88.9347C166.837 88.9347 166.61 88.9898 166.41 89.1C166.212 89.2102 166.056 89.371 165.941 89.5824C165.826 89.7938 165.769 90.0502 165.769 90.3516ZM178.869 88.7188H178.033C177.983 88.4781 177.896 88.2667 177.773 88.0845C177.651 87.9023 177.503 87.7494 177.327 87.6257C177.154 87.4998 176.962 87.4053 176.751 87.3423C176.539 87.2794 176.319 87.2479 176.089 87.2479C175.671 87.2479 175.292 87.3536 174.952 87.565C174.615 87.7764 174.346 88.0879 174.146 88.4995C173.948 88.911 173.849 89.416 173.849 90.0142C173.849 90.6125 173.948 91.1174 174.146 91.5289C174.346 91.9405 174.615 92.252 174.952 92.4634C175.292 92.6748 175.671 92.7805 176.089 92.7805C176.319 92.7805 176.539 92.7491 176.751 92.6861C176.962 92.6231 177.154 92.5298 177.327 92.4061C177.503 92.2801 177.651 92.1261 177.773 91.9439C177.896 91.7595 177.983 91.5481 178.033 91.3097H178.869C178.806 91.6628 178.692 91.9788 178.525 92.2576C178.359 92.5365 178.152 92.7738 177.904 92.9695C177.657 93.1629 177.379 93.3102 177.071 93.4114C176.765 93.5126 176.438 93.5632 176.089 93.5632C175.5 93.5632 174.976 93.4193 174.517 93.1314C174.058 92.8435 173.698 92.4342 173.434 91.9034C173.171 91.3726 173.04 90.7429 173.04 90.0142C173.04 89.2855 173.171 88.6558 173.434 88.125C173.698 87.5942 174.058 87.1849 174.517 86.897C174.976 86.6091 175.5 86.4652 176.089 86.4652C176.438 86.4652 176.765 86.5158 177.071 86.617C177.379 86.7182 177.657 86.8667 177.904 87.0623C178.152 87.2557 178.359 87.4919 178.525 87.7708C178.692 88.0474 178.806 88.3634 178.869 88.7188ZM180.113 93.4688V88.2869H180.882V89.0696H180.936C181.031 88.8132 181.202 88.6052 181.449 88.4455C181.697 88.2858 181.975 88.206 182.286 88.206C182.344 88.206 182.417 88.2071 182.505 88.2093C182.593 88.2116 182.659 88.215 182.704 88.2195V89.0291C182.677 89.0224 182.615 89.0123 182.519 88.9988C182.424 88.983 182.324 88.9751 182.218 88.9751C181.966 88.9751 181.742 89.028 181.544 89.1337C181.348 89.2372 181.193 89.3811 181.078 89.5655C180.966 89.7477 180.909 89.9557 180.909 90.1896V93.4688H180.113ZM184.318 95.4119C184.183 95.4119 184.063 95.4007 183.957 95.3782C183.852 95.358 183.779 95.3377 183.738 95.3175L183.941 94.6158C184.134 94.6652 184.305 94.6832 184.453 94.6697C184.602 94.6562 184.733 94.5899 184.848 94.4707C184.965 94.3538 185.072 94.1637 185.169 93.9006L185.317 93.4957L183.401 88.2869H184.264L185.695 92.4162H185.749L187.179 88.2869H188.043L185.843 94.2244C185.744 94.4921 185.622 94.7136 185.476 94.889C185.329 95.0667 185.16 95.1983 184.966 95.2837C184.775 95.3692 184.559 95.4119 184.318 95.4119ZM189.094 95.4119V88.2869H189.863V89.1101H189.957C190.016 89.0201 190.097 88.9054 190.2 88.766C190.306 88.6243 190.457 88.4983 190.652 88.3881C190.85 88.2757 191.118 88.2195 191.455 88.2195C191.892 88.2195 192.276 88.3285 192.609 88.5467C192.942 88.7649 193.202 89.0741 193.388 89.4744C193.575 89.8748 193.668 90.3471 193.668 90.8913C193.668 91.4401 193.575 91.9158 193.388 92.3184C193.202 92.7187 192.943 93.0291 192.612 93.2495C192.282 93.4676 191.901 93.5767 191.469 93.5767C191.136 93.5767 190.869 93.5216 190.669 93.4114C190.469 93.2989 190.315 93.1719 190.207 93.0302C190.099 92.8862 190.016 92.767 189.957 92.6726H189.89V95.4119H189.094ZM189.876 90.8778C189.876 91.2692 189.934 91.6144 190.048 91.9135C190.163 92.2104 190.331 92.4432 190.551 92.6119C190.771 92.7783 191.041 92.8615 191.361 92.8615C191.694 92.8615 191.971 92.7738 192.194 92.5984C192.419 92.4207 192.588 92.1823 192.7 91.8832C192.815 91.5818 192.872 91.2467 192.872 90.8778C192.872 90.5135 192.816 90.1851 192.703 89.8928C192.593 89.5981 192.426 89.3654 192.201 89.1944C191.978 89.0212 191.698 88.9347 191.361 88.9347C191.037 88.9347 190.765 89.0167 190.544 89.1809C190.324 89.3429 190.157 89.57 190.045 89.8624C189.933 90.1525 189.876 90.491 189.876 90.8778ZM197.136 88.2869V88.9616H194.451V88.2869H197.136ZM195.234 87.0455H196.03V91.9844C196.03 92.2093 196.062 92.378 196.128 92.4904C196.195 92.6006 196.281 92.6748 196.384 92.7131C196.49 92.7491 196.601 92.767 196.718 92.767C196.806 92.767 196.878 92.7625 196.934 92.7536C196.99 92.7423 197.035 92.7333 197.069 92.7266L197.231 93.4418C197.177 93.462 197.101 93.4822 197.005 93.5025C196.908 93.525 196.785 93.5362 196.637 93.5362C196.412 93.5362 196.192 93.4879 195.976 93.3912C195.762 93.2944 195.584 93.1471 195.443 92.9492C195.303 92.7513 195.234 92.5017 195.234 92.2003V87.0455ZM200.383 93.5767C199.916 93.5767 199.505 93.4654 199.152 93.2427C198.801 93.0201 198.527 92.7086 198.329 92.3082C198.133 91.9079 198.035 91.4401 198.035 90.9048C198.035 90.3651 198.133 89.8939 198.329 89.4913C198.527 89.0887 198.801 88.7761 199.152 88.5534C199.505 88.3308 199.916 88.2195 200.383 88.2195C200.851 88.2195 201.26 88.3308 201.611 88.5534C201.964 88.7761 202.239 89.0887 202.435 89.4913C202.632 89.8939 202.731 90.3651 202.731 90.9048C202.731 91.4401 202.632 91.9079 202.435 92.3082C202.239 92.7086 201.964 93.0201 201.611 93.2427C201.26 93.4654 200.851 93.5767 200.383 93.5767ZM200.383 92.8615C200.739 92.8615 201.031 92.7704 201.26 92.5882C201.49 92.4061 201.66 92.1665 201.77 91.8697C201.88 91.5728 201.935 91.2512 201.935 90.9048C201.935 90.5585 201.88 90.2357 201.77 89.9366C201.66 89.6375 201.49 89.3957 201.26 89.2113C201.031 89.0269 200.739 88.9347 200.383 88.9347C200.028 88.9347 199.736 89.0269 199.506 89.2113C199.277 89.3957 199.107 89.6375 198.997 89.9366C198.887 90.2357 198.832 90.5585 198.832 90.9048C198.832 91.2512 198.887 91.5728 198.997 91.8697C199.107 92.1665 199.277 92.4061 199.506 92.5882C199.736 92.7704 200.028 92.8615 200.383 92.8615Z" fill="url(#paint3_linear_1_5465)"/>
<defs>
<linearGradient id="paint0_linear_1_5465" x1="136.077" y1="124.469" x2="139.577" y2="-33.5313" gradientUnits="userSpaceOnUse">
<stop stop-color="#1E2F41"/>
<stop offset="1" stop-color="#1E2F41" stop-opacity="0"/>
</linearGradient>
<linearGradient id="paint1_linear_1_5465" x1="37.0769" y1="130.469" x2="96.5769" y2="18.4688" gradientUnits="userSpaceOnUse">
<stop stop-color="#259EFA"/>
<stop offset="1" stop-color="#347E8E" stop-opacity="0"/>
</linearGradient>
<linearGradient id="paint2_linear_1_5465" x1="55.6735" y1="56.4687" x2="298.573" y2="51.8871" gradientUnits="userSpaceOnUse">
<stop stop-color="#4C76C9"/>
<stop offset="0.463542" stop-color="#29C4A8" stop-opacity="0.536458"/>
<stop offset="1" stop-color="white" stop-opacity="0"/>
</linearGradient>
<linearGradient id="paint3_linear_1_5465" x1="84.392" y1="89.5179" x2="241.376" y2="78.8604" gradientUnits="userSpaceOnUse">
<stop stop-color="#4C76C9"/>
<stop offset="0.463542" stop-color="#29C4A8" stop-opacity="0.536458"/>
<stop offset="1" stop-color="white" stop-opacity="0"/>
</linearGradient>
</defs>
</svg>
