<svg width="217" height="217" viewBox="0 0 217 217" fill="none" xmlns="http://www.w3.org/2000/svg">
<rect width="217" height="217" rx="20" fill="#1C4168" fill-opacity="0.2"/>
<ellipse cx="139.469" cy="159.469" rx="1.46875" ry="1.46939" fill="#A1A1B8" fill-opacity="0.1"/>
<ellipse cx="139.469" cy="170.49" rx="1.46875" ry="1.46939" fill="#A1A1B8" fill-opacity="0.1"/>
<ellipse cx="139.469" cy="181.51" rx="1.46875" ry="1.46939" fill="#A1A1B8" fill-opacity="0.1"/>
<ellipse cx="150.484" cy="181.51" rx="1.46875" ry="1.46939" fill="#A1A1B8" fill-opacity="0.1"/>
<ellipse cx="161.5" cy="181.51" rx="1.46875" ry="1.46939" fill="#A1A1B8" fill-opacity="0.1"/>
<ellipse cx="172.516" cy="181.51" rx="1.46875" ry="1.46939" fill="#A1A1B8" fill-opacity="0.1"/>
<ellipse cx="183.531" cy="181.51" rx="1.46875" ry="1.46939" fill="#A1A1B8" fill-opacity="0.1"/>
<ellipse cx="183.531" cy="192.53" rx="1.46875" ry="1.46939" fill="#A1A1B8" fill-opacity="0.1"/>
<ellipse cx="172.516" cy="192.53" rx="1.46875" ry="1.46939" fill="#A1A1B8" fill-opacity="0.1"/>
<ellipse cx="161.5" cy="192.53" rx="1.46875" ry="1.46939" fill="#A1A1B8" fill-opacity="0.1"/>
<ellipse cx="150.484" cy="192.53" rx="1.46875" ry="1.46939" fill="#A1A1B8" fill-opacity="0.1"/>
<ellipse cx="139.469" cy="192.53" rx="1.46875" ry="1.46939" fill="#A1A1B8" fill-opacity="0.1"/>
<ellipse cx="150.484" cy="170.49" rx="1.46875" ry="1.46939" fill="#A1A1B8" fill-opacity="0.1"/>
<ellipse cx="161.5" cy="170.49" rx="1.46875" ry="1.46939" fill="#A1A1B8" fill-opacity="0.1"/>
<ellipse cx="172.516" cy="170.49" rx="1.46875" ry="1.46939" fill="#A1A1B8" fill-opacity="0.1"/>
<ellipse cx="183.531" cy="170.49" rx="1.46875" ry="1.46939" fill="#A1A1B8" fill-opacity="0.1"/>
<ellipse cx="150.484" cy="159.469" rx="1.46875" ry="1.46939" fill="#A1A1B8" fill-opacity="0.1"/>
<ellipse cx="161.5" cy="159.469" rx="1.46875" ry="1.46939" fill="#A1A1B8" fill-opacity="0.1"/>
<ellipse cx="172.516" cy="159.469" rx="1.46875" ry="1.46939" fill="#A1A1B8" fill-opacity="0.1"/>
<ellipse cx="183.531" cy="159.469" rx="1.46875" ry="1.46939" fill="#A1A1B8" fill-opacity="0.1"/>
</svg>
