<svg width="1024" height="220" viewBox="0 0 1024 220" fill="none" xmlns="http://www.w3.org/2000/svg">
<g filter="url(#filter0_f_41_269)">
<path d="M0 104.767C55.1111 122.356 50.8555 212.566 137.497 152.81C224.138 93.0535 305.665 169.715 371.051 122.365C436.438 75.0144 441.369 168.065 518.593 75.0144C546.055 41.9232 593.933 7.36963 652.322 27.2654C710.71 47.1611 728.918 87.4783 785.423 57.3718C841.928 27.2654 850.09 27.2654 908.478 59.8539C966.867 92.4424 991.072 -4.08435 1024 6.87192" stroke="#30ACFF" stroke-width="2"/>
</g>
<path d="M0 104.767C55.1111 122.356 50.8555 212.566 137.497 152.81C224.138 93.0535 305.665 169.715 371.051 122.365C436.438 75.0144 441.369 168.065 518.593 75.0144C546.055 41.9232 593.933 7.36963 652.322 27.2654C710.71 47.1611 728.918 87.4783 785.423 57.3718C841.928 27.2654 850.09 27.2654 908.478 59.8539C966.867 92.4424 991.072 -4.08435 1024 6.87192" stroke="#30ACFF" stroke-width="2"/>
<path d="M0 106.767C55.1111 124.356 50.8555 214.566 137.497 154.81C224.138 95.0535 305.665 171.715 371.051 124.365C436.438 77.0144 441.369 170.065 518.593 77.0144C546.055 43.9232 593.933 9.36963 652.322 29.2654C710.71 49.1611 728.918 89.4783 785.423 59.3718C841.928 29.2654 850.09 29.2654 908.478 61.8539C966.867 94.4424 991.072 -2.08435 1024 8.87192" stroke="#30ACFF" stroke-opacity="0.3" stroke-width="2"/>
<path d="M0 108.767C55.1111 126.356 50.8555 216.566 137.497 156.81C224.138 97.0535 305.665 173.715 371.051 126.365C436.438 79.0144 441.369 172.065 518.593 79.0144C546.055 45.9232 593.933 11.3696 652.322 31.2654C710.71 51.1611 728.918 91.4783 785.423 61.3718C841.928 31.2654 850.09 31.2654 908.478 63.8539C966.867 96.4424 991.072 -0.0843483 1024 10.8719" stroke="#30ACFF" stroke-opacity="0.3" stroke-width="2"/>
<path d="M0 112.767C55.1111 130.356 50.8555 220.566 137.497 160.81C224.138 101.054 305.665 177.715 371.051 130.365C436.438 83.0144 441.369 176.065 518.593 83.0144C546.055 49.9232 593.933 15.3696 652.322 35.2654C710.71 55.1611 728.918 95.4783 785.423 65.3718C841.928 35.2654 850.09 35.2654 908.478 67.8539C966.867 100.442 991.072 3.91565 1024 14.8719" stroke="#30ACFF" stroke-opacity="0.3" stroke-width="2"/>
<path d="M0 114.767C55.1111 132.356 50.8555 222.566 137.497 162.81C224.138 103.054 305.665 179.715 371.051 132.365C436.438 85.0144 441.369 178.065 518.593 85.0144C546.055 51.9232 593.933 17.3696 652.322 37.2654C710.71 57.1611 728.918 97.4783 785.423 67.3718C841.928 37.2654 850.09 37.2654 908.478 69.8539C966.867 102.442 991.072 5.91565 1024 16.8719" stroke="#30ACFF" stroke-opacity="0.3" stroke-width="2"/>
<path d="M0 116.767C55.1111 134.356 50.8555 224.566 137.497 164.81C224.138 105.054 305.665 181.715 371.051 134.365C436.438 87.0144 441.369 180.065 518.593 87.0144C546.055 53.9232 593.933 19.3696 652.322 39.2654C710.71 59.1611 728.918 99.4783 785.423 69.3718C841.928 39.2654 850.09 39.2654 908.478 71.8539C966.867 104.442 991.072 7.91565 1024 18.8719" stroke="#30ACFF" stroke-opacity="0.3" stroke-width="2"/>
<path d="M0 118.767C55.1111 136.356 50.8555 226.566 137.497 166.81C224.138 107.054 305.665 183.715 371.051 136.365C436.438 89.0144 441.369 182.065 518.593 89.0144C546.055 55.9232 593.933 21.3696 652.322 41.2654C710.71 61.1611 728.918 101.478 785.423 71.3718C841.928 41.2654 850.09 41.2654 908.478 73.8539C966.867 106.442 991.072 9.91565 1024 20.8719" stroke="#30ACFF" stroke-opacity="0.3" stroke-width="2"/>
<path d="M0 120.767C55.1111 138.356 50.8555 228.566 137.497 168.81C224.138 109.054 305.665 185.715 371.051 138.365C436.438 91.0144 441.369 184.065 518.593 91.0144C546.055 57.9232 593.933 23.3696 652.322 43.2654C710.71 63.1611 728.918 103.478 785.423 73.3718C841.928 43.2654 850.09 43.2654 908.478 75.8539C966.867 108.442 991.072 11.9157 1024 22.8719" stroke="#30ACFF" stroke-opacity="0.3" stroke-width="2"/>
<path d="M0 122.767C55.1111 140.356 50.8555 230.566 137.497 170.81C224.138 111.054 305.665 187.715 371.051 140.365C436.438 93.0144 441.369 186.065 518.593 93.0144C546.055 59.9232 593.933 25.3696 652.322 45.2654C710.71 65.1611 728.918 105.478 785.423 75.3718C841.928 45.2654 850.09 45.2654 908.478 77.8539C966.867 110.442 991.072 13.9157 1024 24.8719" stroke="#30ACFF" stroke-opacity="0.3" stroke-width="2"/>
<path d="M0 124.767C55.1111 142.356 50.8555 232.566 137.497 172.81C224.138 113.054 305.665 189.715 371.051 142.365C436.438 95.0144 441.369 188.065 518.593 95.0144C546.055 61.9232 593.933 27.3696 652.322 47.2654C710.71 67.1611 728.918 107.478 785.423 77.3718C841.928 47.2654 850.09 47.2654 908.478 79.8539C966.867 112.442 991.072 15.9157 1024 26.8719" stroke="#30ACFF" stroke-opacity="0.3" stroke-width="2"/>
<path d="M0 126.767C55.1111 144.356 50.8555 234.566 137.497 174.81C224.138 115.054 305.665 191.715 371.051 144.365C436.438 97.0144 441.369 190.065 518.593 97.0144C546.055 63.9232 593.933 29.3696 652.322 49.2654C710.71 69.1611 728.918 109.478 785.423 79.3718C841.928 49.2654 850.09 49.2654 908.478 81.8539C966.867 114.442 991.072 17.9157 1024 28.8719" stroke="#30ACFF" stroke-opacity="0.3" stroke-width="2"/>
<path d="M0 128.767C55.1111 146.356 50.8555 236.566 137.497 176.81C224.138 117.054 305.665 193.715 371.051 146.365C436.438 99.0144 441.369 192.065 518.593 99.0144C546.055 65.9232 593.933 31.3696 652.322 51.2654C710.71 71.1611 728.918 111.478 785.423 81.3718C841.928 51.2654 850.09 51.2654 908.478 83.8539C966.867 116.442 991.072 19.9157 1024 30.8719" stroke="#30ACFF" stroke-opacity="0.3" stroke-width="2"/>
<path d="M0 130.767C55.1111 148.356 50.8555 238.566 137.497 178.81C224.138 119.054 305.665 195.715 371.051 148.365C436.438 101.014 441.369 194.065 518.593 101.014C546.055 67.9232 593.933 33.3696 652.322 53.2654C710.71 73.1611 728.918 113.478 785.423 83.3718C841.928 53.2654 850.09 53.2654 908.478 85.8539C966.867 118.442 991.072 21.9157 1024 32.8719" stroke="#30ACFF" stroke-opacity="0.3" stroke-width="2"/>
<path d="M0 132.767C55.1111 150.356 50.8555 240.566 137.497 180.81C224.138 121.054 305.665 197.715 371.051 150.365C436.438 103.014 441.369 196.065 518.593 103.014C546.055 69.9232 593.933 35.3696 652.322 55.2654C710.71 75.1611 728.918 115.478 785.423 85.3718C841.928 55.2654 850.09 55.2654 908.478 87.8539C966.867 120.442 991.072 23.9157 1024 34.8719" stroke="#30ACFF" stroke-opacity="0.3" stroke-width="2"/>
<path d="M0 134.767C55.1111 152.356 50.8555 242.566 137.497 182.81C224.138 123.054 305.665 199.715 371.051 152.365C436.438 105.014 441.369 198.065 518.593 105.014C546.055 71.9232 593.933 37.3696 652.322 57.2654C710.71 77.1611 728.918 117.478 785.423 87.3718C841.928 57.2654 850.09 57.2654 908.478 89.8539C966.867 122.442 991.072 25.9157 1024 36.8719" stroke="#30ACFF" stroke-opacity="0.3" stroke-width="2"/>
<path d="M0 138.767C55.1111 156.356 50.8555 246.566 137.497 186.81C224.138 127.054 305.665 203.715 371.051 156.365C436.438 109.014 441.369 202.065 518.593 109.014C546.055 75.9232 593.933 41.3696 652.322 61.2654C710.71 81.1611 728.918 121.478 785.423 91.3718C841.928 61.2654 850.09 61.2654 908.478 93.8539C966.867 126.442 991.072 29.9157 1024 40.8719" stroke="#30ACFF" stroke-opacity="0.3" stroke-width="2"/>
<path d="M0 136.767C55.1111 154.356 50.8555 244.566 137.497 184.81C224.138 125.054 305.665 201.715 371.051 154.365C436.438 107.014 441.369 200.065 518.593 107.014C546.055 73.9232 593.933 39.3696 652.322 59.2654C710.71 79.1611 728.918 119.478 785.423 89.3718C841.928 59.2654 850.09 59.2654 908.478 91.8539C966.867 124.442 991.072 27.9157 1024 38.8719" stroke="#30ACFF" stroke-opacity="0.3" stroke-width="2"/>
<path d="M0 140.767C55.1111 158.356 50.8555 248.566 137.497 188.81C224.138 129.054 305.665 205.715 371.051 158.365C436.438 111.014 441.369 204.065 518.593 111.014C546.055 77.9232 593.933 43.3696 652.322 63.2654C710.71 83.1611 728.918 123.478 785.423 93.3718C841.928 63.2654 850.09 63.2654 908.478 95.8539C966.867 128.442 991.072 31.9157 1024 42.8719" stroke="#30ACFF" stroke-opacity="0.3" stroke-width="2"/>
<path d="M0 142.767C55.1111 160.356 50.8555 250.566 137.497 190.81C224.138 131.054 305.665 207.715 371.051 160.365C436.438 113.014 441.369 206.065 518.593 113.014C546.055 79.9232 593.933 45.3696 652.322 65.2654C710.71 85.1611 728.918 125.478 785.423 95.3718C841.928 65.2654 850.09 65.2654 908.478 97.8539C966.867 130.442 991.072 33.9157 1024 44.8719" stroke="#30ACFF" stroke-opacity="0.3" stroke-width="2"/>
<path d="M0 144.767C55.1111 162.356 50.8555 252.566 137.497 192.81C224.138 133.054 305.665 209.715 371.051 162.365C436.438 115.014 441.369 208.065 518.593 115.014C546.055 81.9232 593.933 47.3696 652.322 67.2654C710.71 87.1611 728.918 127.478 785.423 97.3718C841.928 67.2654 850.09 67.2654 908.478 99.8539C966.867 132.442 991.072 35.9157 1024 46.8719" stroke="#30ACFF" stroke-opacity="0.3" stroke-width="2"/>
<path d="M0 146.767C55.1111 164.356 50.8555 254.566 137.497 194.81C224.138 135.054 305.665 211.715 371.051 164.365C436.438 117.014 441.369 210.065 518.593 117.014C546.055 83.9232 593.933 49.3696 652.322 69.2654C710.71 89.1611 728.918 129.478 785.423 99.3718C841.928 69.2654 850.09 69.2654 908.478 101.854C966.867 134.442 991.072 37.9157 1024 48.8719" stroke="#30ACFF" stroke-opacity="0.3" stroke-width="2"/>
<path d="M0 148.767C55.1111 166.356 50.8555 256.566 137.497 196.81C224.138 137.054 305.665 213.715 371.051 166.365C436.438 119.014 441.369 212.065 518.593 119.014C546.055 85.9232 593.933 51.3696 652.322 71.2654C710.71 91.1611 728.918 131.478 785.423 101.372C841.928 71.2654 850.09 71.2654 908.478 103.854C966.867 136.442 991.072 39.9157 1024 50.8719" stroke="#30ACFF" stroke-opacity="0.3" stroke-width="2"/>
<path d="M0 150.767C55.1111 168.356 50.8555 258.566 137.497 198.81C224.138 139.054 305.665 215.715 371.051 168.365C436.438 121.014 441.369 214.065 518.593 121.014C546.055 87.9232 593.933 53.3696 652.322 73.2654C710.71 93.1611 728.918 133.478 785.423 103.372C841.928 73.2654 850.09 73.2654 908.478 105.854C966.867 138.442 991.072 41.9157 1024 52.8719" stroke="#30ACFF" stroke-opacity="0.3" stroke-width="2"/>
<path d="M0 110.767C55.1111 128.356 50.8555 218.566 137.497 158.81C224.138 99.0535 305.665 175.715 371.051 128.365C436.438 81.0144 441.369 174.065 518.593 81.0144C546.055 47.9232 593.933 13.3696 652.322 33.2654C710.71 53.1611 728.918 93.4783 785.423 63.3718C841.928 33.2654 850.09 33.2654 908.478 65.8539C966.867 98.4424 991.072 1.91565 1024 12.8719" stroke="#30ACFF" stroke-opacity="0.3" stroke-width="2"/>
<defs>
<filter id="filter0_f_41_269" x="-4.3042" y="0.998047" width="1032.62" height="177.002" filterUnits="userSpaceOnUse" color-interpolation-filters="sRGB">
<feFlood flood-opacity="0" result="BackgroundImageFix"/>
<feBlend mode="normal" in="SourceGraphic" in2="BackgroundImageFix" result="shape"/>
<feGaussianBlur stdDeviation="2" result="effect1_foregroundBlur_41_269"/>
</filter>
</defs>
</svg>
