<svg width="94" height="37" viewBox="0 0 94 37" fill="none" xmlns="http://www.w3.org/2000/svg">
<rect y="13.0078" width="2.82433" height="21.5288" fill="#2D7645"/>
<path d="M1.41211 8.06055L1.41211 36.1416" stroke="#2D7645" stroke-width="0.353041" stroke-linecap="round"/>
<rect x="5.64893" y="21.4766" width="2.82433" height="4.58953" fill="#EA1212"/>
<path d="M7.06055 19.3584L7.06055 31.3618" stroke="#EA1212" stroke-width="0.353041" stroke-linecap="round"/>
<rect x="16.9458" y="25.3604" width="2.82433" height="4.58953" fill="#2D7645"/>
<path d="M18.3584 23.2422L18.3584 35.2456" stroke="#2D7645" stroke-width="0.353041" stroke-linecap="round"/>
<rect x="22.5947" y="17.2402" width="2.82433" height="4.58953" fill="#EA1212"/>
<path d="M24.0068 15.1221L24.0068 27.1255" stroke="#EA1212" stroke-width="0.353041" stroke-linecap="round"/>
<rect x="28.2437" y="17.2402" width="2.82433" height="4.58953" fill="#2D7645"/>
<path d="M29.6562 15.1221L29.6563 27.1255" stroke="#2D7645" stroke-width="0.353041" stroke-linecap="round"/>
<rect x="33.8916" y="17.2402" width="2.82433" height="12.0034" fill="#2D7645"/>
<path d="M35.3042 15.1221L35.3042 27.1255" stroke="#2D7645" stroke-width="0.353041" stroke-linecap="round"/>
<rect x="50.8374" y="20.0645" width="2.82433" height="6.00169" fill="#2D7645"/>
<path d="M52.25 19.3584L52.25 31.3618" stroke="#2D7645" stroke-width="0.353041" stroke-linecap="round"/>
<rect x="56.4863" y="13.71" width="2.82433" height="4.58953" fill="#2D7645"/>
<path d="M57.8984 1L57.8984 23.5946" stroke="#2D7645" stroke-width="0.353041" stroke-linecap="round"/>
<rect x="62.1353" y="21.4766" width="2.82433" height="4.58953" fill="#EA1212"/>
<path d="M63.5469 19.3584L63.5469 31.3618" stroke="#EA1212" stroke-width="0.353041" stroke-linecap="round"/>
<rect x="67.7832" y="26.0654" width="2.82433" height="2.11824" fill="#2D7645"/>
<path d="M69.1958 23.9473L69.1958 35.9507" stroke="#2D7645" stroke-width="0.353041" stroke-linecap="round"/>
<rect x="73.4321" y="21.4766" width="2.82433" height="4.58953" fill="#EA1212"/>
<path d="M74.8442 19.3584L74.8442 31.3618" stroke="#EA1212" stroke-width="0.353041" stroke-linecap="round"/>
<rect x="79.0811" y="15.1211" width="2.82433" height="7.41385" fill="#2D7645"/>
<path d="M80.4932 13.0039L80.4932 25.0073" stroke="#2D7645" stroke-width="0.353041" stroke-linecap="round"/>
<rect x="90.3784" y="16.1807" width="2.82433" height="2.11824" fill="#EA1212"/>
<path d="M91.7905 14.0625L91.7905 26.0659" stroke="#EA1212" stroke-width="0.353041" stroke-linecap="round"/>
</svg>
