<svg width="754" height="131" viewBox="0 0 754 131" fill="none" xmlns="http://www.w3.org/2000/svg">
<path d="M271.156 1V0.690543H270.846H4C2.17224 0.690543 0.690543 2.17224 0.690543 4V126.734C0.690543 128.562 2.17224 130.043 4 130.043H270.846H271.156V129.734V1Z" fill="url(#paint0_linear_22_268)" stroke="url(#paint1_linear_22_268)" stroke-width="0.618913"/>
<path d="M72.0511 77.4972C69.7074 77.4972 67.6181 77.0947 65.7834 76.2898C63.9605 75.4848 62.5104 74.3662 61.4332 72.9339C60.3679 71.4898 59.7879 69.8149 59.6932 67.9091H64.1676C64.2623 69.081 64.6648 70.093 65.375 70.9453C66.0852 71.7857 67.0144 72.4368 68.1626 72.8984C69.3108 73.3601 70.5833 73.5909 71.9801 73.5909C73.5426 73.5909 74.9276 73.3187 76.1349 72.7741C77.3423 72.2296 78.2893 71.4721 78.9759 70.5014C79.6624 69.5308 80.0057 68.4062 80.0057 67.1278C80.0057 65.7902 79.6742 64.6125 79.0114 63.5945C78.3485 62.5646 77.3778 61.7597 76.0994 61.1797C74.821 60.5997 73.2585 60.3097 71.4119 60.3097H68.5V56.4034H71.4119C72.8561 56.4034 74.1226 56.143 75.2116 55.6222C76.3125 55.1013 77.1707 54.3674 77.7862 53.4205C78.4136 52.4735 78.7273 51.3608 78.7273 50.0824C78.7273 48.8513 78.455 47.7801 77.9105 46.8686C77.366 45.9571 76.5966 45.2469 75.6023 44.7379C74.6198 44.2289 73.4598 43.9744 72.1222 43.9744C70.8674 43.9744 69.6837 44.2053 68.571 44.6669C67.4702 45.1167 66.5705 45.7737 65.8722 46.6378C65.1738 47.4901 64.795 48.5199 64.7358 49.7273H60.4744C60.5455 47.8215 61.1196 46.1525 62.1967 44.7202C63.2739 43.276 64.6825 42.1515 66.4226 41.3466C68.1745 40.5417 70.098 40.1392 72.1932 40.1392C74.4422 40.1392 76.3717 40.5949 77.9815 41.5064C79.5914 42.406 80.8284 43.5956 81.6925 45.0753C82.5566 46.5549 82.9886 48.1529 82.9886 49.8693C82.9886 51.9171 82.45 53.6631 81.3729 55.1072C80.3075 56.5514 78.8575 57.5516 77.0227 58.108V58.392C79.3191 58.7708 81.1125 59.7474 82.4027 61.3217C83.6929 62.8842 84.3381 64.8196 84.3381 67.1278C84.3381 69.1046 83.7995 70.8802 82.7223 72.4545C81.657 74.017 80.201 75.2481 78.3544 76.1477C76.5078 77.0473 74.4067 77.4972 72.0511 77.4972ZM103.461 77.4972C100.786 77.4972 98.5071 76.7692 96.625 75.3132C94.7429 73.8454 93.3047 71.7206 92.3104 68.9389C91.3161 66.1454 90.8189 62.7718 90.8189 58.8182C90.8189 54.8883 91.3161 51.5324 92.3104 48.7507C93.3165 45.9571 94.7607 43.8265 96.6428 42.3587C98.5367 40.879 100.809 40.1392 103.461 40.1392C106.112 40.1392 108.379 40.879 110.261 42.3587C112.155 43.8265 113.599 45.9571 114.594 48.7507C115.6 51.5324 116.103 54.8883 116.103 58.8182C116.103 62.7718 115.606 66.1454 114.612 68.9389C113.617 71.7206 112.179 73.8454 110.297 75.3132C108.415 76.7692 106.136 77.4972 103.461 77.4972ZM103.461 73.5909C106.112 73.5909 108.172 72.3125 109.64 69.7557C111.108 67.1989 111.842 63.553 111.842 58.8182C111.842 55.6695 111.504 52.9884 110.83 50.7749C110.167 48.5613 109.208 46.8745 107.953 45.7145C106.71 44.5545 105.213 43.9744 103.461 43.9744C100.833 43.9744 98.7794 45.2706 97.2997 47.8629C95.8201 50.4434 95.0803 54.0952 95.0803 58.8182C95.0803 61.9669 95.4117 64.642 96.0746 66.8438C96.7375 69.0455 97.6903 70.7204 98.9332 71.8686C100.188 73.0168 101.697 73.5909 103.461 73.5909ZM134.711 77.4972C132.036 77.4972 129.757 76.7692 127.875 75.3132C125.993 73.8454 124.555 71.7206 123.56 68.9389C122.566 66.1454 122.069 62.7718 122.069 58.8182C122.069 54.8883 122.566 51.5324 123.56 48.7507C124.567 45.9571 126.011 43.8265 127.893 42.3587C129.787 40.879 132.059 40.1392 134.711 40.1392C137.362 40.1392 139.629 40.879 141.511 42.3587C143.405 43.8265 144.849 45.9571 145.844 48.7507C146.85 51.5324 147.353 54.8883 147.353 58.8182C147.353 62.7718 146.856 66.1454 145.862 68.9389C144.867 71.7206 143.429 73.8454 141.547 75.3132C139.665 76.7692 137.386 77.4972 134.711 77.4972ZM134.711 73.5909C137.362 73.5909 139.422 72.3125 140.89 69.7557C142.358 67.1989 143.092 63.553 143.092 58.8182C143.092 55.6695 142.754 52.9884 142.08 50.7749C141.417 48.5613 140.458 46.8745 139.203 45.7145C137.96 44.5545 136.463 43.9744 134.711 43.9744C132.083 43.9744 130.029 45.2706 128.55 47.8629C127.07 50.4434 126.33 54.0952 126.33 58.8182C126.33 61.9669 126.662 64.642 127.325 66.8438C127.987 69.0455 128.94 70.7204 130.183 71.8686C131.438 73.0168 132.947 73.5909 134.711 73.5909ZM165.961 77.4972C163.286 77.4972 161.007 76.7692 159.125 75.3132C157.243 73.8454 155.805 71.7206 154.81 68.9389C153.816 66.1454 153.319 62.7718 153.319 58.8182C153.319 54.8883 153.816 51.5324 154.81 48.7507C155.817 45.9571 157.261 43.8265 159.143 42.3587C161.037 40.879 163.309 40.1392 165.961 40.1392C168.612 40.1392 170.879 40.879 172.761 42.3587C174.655 43.8265 176.099 45.9571 177.094 48.7507C178.1 51.5324 178.603 54.8883 178.603 58.8182C178.603 62.7718 178.106 66.1454 177.112 68.9389C176.117 71.7206 174.679 73.8454 172.797 75.3132C170.915 76.7692 168.636 77.4972 165.961 77.4972ZM165.961 73.5909C168.612 73.5909 170.672 72.3125 172.14 69.7557C173.608 67.1989 174.342 63.553 174.342 58.8182C174.342 55.6695 174.004 52.9884 173.33 50.7749C172.667 48.5613 171.708 46.8745 170.453 45.7145C169.21 44.5545 167.713 43.9744 165.961 43.9744C163.333 43.9744 161.279 45.2706 159.8 47.8629C158.32 50.4434 157.58 54.0952 157.58 58.8182C157.58 61.9669 157.912 64.642 158.575 66.8438C159.237 69.0455 160.19 70.7204 161.433 71.8686C162.688 73.0168 164.197 73.5909 165.961 73.5909ZM196.075 70.608V47.1705H200.052V70.608H196.075ZM186.344 60.8778V56.9006H209.782V60.8778H186.344Z" fill="url(#paint2_linear_22_268)"/>
<path d="M87.12 93H86.2429L88.7798 86.0909H89.6435L92.1804 93H91.3033L89.2386 87.1839H89.1847L87.12 93ZM87.4439 90.3011H90.9794V91.0433H87.4439V90.3011ZM96.8191 88.9787L96.1039 89.1811C96.0589 89.0619 95.9925 88.9461 95.9048 88.8336C95.8194 88.7189 95.7024 88.6245 95.554 88.5502C95.4055 88.476 95.2155 88.4389 94.9838 88.4389C94.6667 88.4389 94.4025 88.512 94.1911 88.6582C93.9819 88.8021 93.8773 88.9854 93.8773 89.2081C93.8773 89.406 93.9493 89.5623 94.0932 89.677C94.2372 89.7917 94.4621 89.8873 94.7679 89.9638L95.5371 90.1527C96.0004 90.2652 96.3456 90.4372 96.5728 90.6689C96.8 90.8983 96.9135 91.194 96.9135 91.5561C96.9135 91.853 96.8281 92.1184 96.6571 92.3523C96.4885 92.5862 96.2523 92.7706 95.9487 92.9055C95.6451 93.0405 95.292 93.108 94.8894 93.108C94.3609 93.108 93.9234 92.9933 93.5771 92.7638C93.2307 92.5344 93.0114 92.1993 92.9192 91.7585L93.6749 91.5696C93.7469 91.8485 93.8829 92.0576 94.0831 92.1971C94.2855 92.3365 94.5498 92.4062 94.8759 92.4062C95.247 92.4062 95.5416 92.3275 95.7598 92.1701C95.9802 92.0104 96.0904 91.8192 96.0904 91.5966C96.0904 91.4167 96.0274 91.266 95.9015 91.1445C95.7755 91.0208 95.5821 90.9286 95.3212 90.8679L94.4576 90.6655C93.983 90.553 93.6344 90.3787 93.4118 90.1426C93.1913 89.9042 93.0811 89.6062 93.0811 89.2486C93.0811 88.9562 93.1632 88.6976 93.3274 88.4727C93.4938 88.2478 93.7199 88.0712 94.0055 87.943C94.2934 87.8148 94.6195 87.7507 94.9838 87.7507C95.4966 87.7507 95.8992 87.8632 96.1916 88.0881C96.4862 88.313 96.6954 88.6098 96.8191 88.9787ZM101.782 88.9787L101.067 89.1811C101.022 89.0619 100.956 88.9461 100.868 88.8336C100.783 88.7189 100.666 88.6245 100.517 88.5502C100.369 88.476 100.179 88.4389 99.9472 88.4389C99.6301 88.4389 99.3658 88.512 99.1544 88.6582C98.9453 88.8021 98.8407 88.9854 98.8407 89.2081C98.8407 89.406 98.9127 89.5623 99.0566 89.677C99.2005 89.7917 99.4254 89.8873 99.7313 89.9638L100.5 90.1527C100.964 90.2652 101.309 90.4372 101.536 90.6689C101.763 90.8983 101.877 91.194 101.877 91.5561C101.877 91.853 101.791 92.1184 101.621 92.3523C101.452 92.5862 101.216 92.7706 100.912 92.9055C100.608 93.0405 100.255 93.108 99.8528 93.108C99.3242 93.108 98.8868 92.9933 98.5404 92.7638C98.1941 92.5344 97.9748 92.1993 97.8826 91.7585L98.6383 91.5696C98.7102 91.8485 98.8463 92.0576 99.0465 92.1971C99.2489 92.3365 99.5132 92.4062 99.8393 92.4062C100.21 92.4062 100.505 92.3275 100.723 92.1701C100.944 92.0104 101.054 91.8192 101.054 91.5966C101.054 91.4167 100.991 91.266 100.865 91.1445C100.739 91.0208 100.545 90.9286 100.285 90.8679L99.4209 90.6655C98.9464 90.553 98.5978 90.3787 98.3751 90.1426C98.1547 89.9042 98.0445 89.6062 98.0445 89.2486C98.0445 88.9562 98.1266 88.6976 98.2908 88.4727C98.4572 88.2478 98.6833 88.0712 98.9689 87.943C99.2568 87.8148 99.5829 87.7507 99.9472 87.7507C100.46 87.7507 100.863 87.8632 101.155 88.0881C101.45 88.313 101.659 88.6098 101.782 88.9787ZM105.248 93.108C104.749 93.108 104.318 92.9978 103.956 92.7773C103.596 92.5547 103.318 92.2443 103.123 91.8462C102.929 91.4459 102.832 90.9804 102.832 90.4496C102.832 89.9188 102.929 89.451 103.123 89.0462C103.318 88.6391 103.59 88.322 103.939 88.0948C104.29 87.8654 104.699 87.7507 105.167 87.7507C105.437 87.7507 105.703 87.7957 105.967 87.8857C106.23 87.9756 106.469 88.1218 106.685 88.3242C106.901 88.5244 107.073 88.7898 107.201 89.1204C107.329 89.451 107.394 89.8581 107.394 90.3416V90.679H103.399V89.9908H106.584C106.584 89.6984 106.525 89.4375 106.408 89.2081C106.294 88.9787 106.13 88.7976 105.916 88.665C105.705 88.5323 105.455 88.4659 105.167 88.4659C104.85 88.4659 104.575 88.5446 104.344 88.7021C104.114 88.8572 103.938 89.0597 103.814 89.3093C103.69 89.5589 103.629 89.8266 103.629 90.1122V90.571C103.629 90.9624 103.696 91.2941 103.831 91.5662C103.968 91.8361 104.158 92.0419 104.401 92.1836C104.644 92.323 104.926 92.3928 105.248 92.3928C105.457 92.3928 105.646 92.3635 105.815 92.305C105.986 92.2443 106.133 92.1544 106.257 92.0352C106.38 91.9137 106.476 91.763 106.543 91.5831L107.313 91.799C107.232 92.0599 107.096 92.2893 106.904 92.4872C106.713 92.6829 106.477 92.8358 106.196 92.946C105.915 93.054 105.599 93.108 105.248 93.108ZM110.858 87.8182V88.4929H108.173V87.8182H110.858ZM108.956 86.5767H109.752V91.5156C109.752 91.7405 109.784 91.9092 109.85 92.0217C109.917 92.1319 110.002 92.2061 110.106 92.2443C110.212 92.2803 110.323 92.2983 110.44 92.2983C110.528 92.2983 110.6 92.2938 110.656 92.2848C110.712 92.2736 110.757 92.2646 110.791 92.2578L110.953 92.973C110.899 92.9933 110.823 93.0135 110.727 93.0337C110.63 93.0562 110.507 93.0675 110.359 93.0675C110.134 93.0675 109.914 93.0191 109.698 92.9224C109.484 92.8257 109.306 92.6784 109.165 92.4805C109.025 92.2826 108.956 92.0329 108.956 91.7315V86.5767ZM115.634 88.9787L114.918 89.1811C114.873 89.0619 114.807 88.9461 114.719 88.8336C114.634 88.7189 114.517 88.6245 114.368 88.5502C114.22 88.476 114.03 88.4389 113.798 88.4389C113.481 88.4389 113.217 88.512 113.006 88.6582C112.796 88.8021 112.692 88.9854 112.692 89.2081C112.692 89.406 112.764 89.5623 112.908 89.677C113.052 89.7917 113.277 89.8873 113.582 89.9638L114.352 90.1527C114.815 90.2652 115.16 90.4372 115.387 90.6689C115.614 90.8983 115.728 91.194 115.728 91.5561C115.728 91.853 115.643 92.1184 115.472 92.3523C115.303 92.5862 115.067 92.7706 114.763 92.9055C114.46 93.0405 114.106 93.108 113.704 93.108C113.175 93.108 112.738 92.9933 112.392 92.7638C112.045 92.5344 111.826 92.1993 111.734 91.7585L112.489 91.5696C112.561 91.8485 112.697 92.0576 112.898 92.1971C113.1 92.3365 113.364 92.4062 113.69 92.4062C114.061 92.4062 114.356 92.3275 114.574 92.1701C114.795 92.0104 114.905 91.8192 114.905 91.5966C114.905 91.4167 114.842 91.266 114.716 91.1445C114.59 91.0208 114.397 90.9286 114.136 90.8679L113.272 90.6655C112.797 90.553 112.449 90.3787 112.226 90.1426C112.006 89.9042 111.896 89.6062 111.896 89.2486C111.896 88.9562 111.978 88.6976 112.142 88.4727C112.308 88.2478 112.534 88.0712 112.82 87.943C113.108 87.8148 113.434 87.7507 113.798 87.7507C114.311 87.7507 114.714 87.8632 115.006 88.0881C115.301 88.313 115.51 88.6098 115.634 88.9787ZM121.852 87.8182V88.4929H119.167V87.8182H121.852ZM119.949 86.5767H120.745V91.5156C120.745 91.7405 120.778 91.9092 120.843 92.0217C120.911 92.1319 120.996 92.2061 121.1 92.2443C121.205 92.2803 121.317 92.2983 121.434 92.2983C121.521 92.2983 121.593 92.2938 121.649 92.2848C121.706 92.2736 121.751 92.2646 121.784 92.2578L121.946 92.973C121.892 92.9933 121.817 93.0135 121.72 93.0337C121.624 93.0562 121.501 93.0675 121.353 93.0675C121.128 93.0675 120.907 93.0191 120.691 92.9224C120.478 92.8257 120.3 92.6784 120.158 92.4805C120.019 92.2826 119.949 92.0329 119.949 91.7315V86.5767ZM125.099 93.108C124.631 93.108 124.221 92.9966 123.868 92.774C123.517 92.5513 123.242 92.2398 123.044 91.8395C122.849 91.4392 122.751 90.9714 122.751 90.4361C122.751 89.8963 122.849 89.4251 123.044 89.0225C123.242 88.62 123.517 88.3074 123.868 88.0847C124.221 87.862 124.631 87.7507 125.099 87.7507C125.567 87.7507 125.976 87.862 126.327 88.0847C126.68 88.3074 126.954 88.62 127.15 89.0225C127.348 89.4251 127.447 89.8963 127.447 90.4361C127.447 90.9714 127.348 91.4392 127.15 91.8395C126.954 92.2398 126.68 92.5513 126.327 92.774C125.976 92.9966 125.567 93.108 125.099 93.108ZM125.099 92.3928C125.454 92.3928 125.747 92.3017 125.976 92.1195C126.205 91.9373 126.375 91.6978 126.485 91.4009C126.596 91.104 126.651 90.7824 126.651 90.4361C126.651 90.0897 126.596 89.767 126.485 89.4679C126.375 89.1687 126.205 88.927 125.976 88.7425C125.747 88.5581 125.454 88.4659 125.099 88.4659C124.744 88.4659 124.451 88.5581 124.222 88.7425C123.992 88.927 123.823 89.1687 123.712 89.4679C123.602 89.767 123.547 90.0897 123.547 90.4361C123.547 90.7824 123.602 91.104 123.712 91.4009C123.823 91.6978 123.992 91.9373 124.222 92.1195C124.451 92.3017 124.744 92.3928 125.099 92.3928ZM131.442 93V86.0909H132.238V88.6413H132.306C132.364 88.5514 132.445 88.4367 132.549 88.2972C132.654 88.1555 132.805 88.0296 133.001 87.9194C133.199 87.8069 133.466 87.7507 133.804 87.7507C134.24 87.7507 134.625 87.8598 134.957 88.0779C135.29 88.2961 135.55 88.6054 135.737 89.0057C135.923 89.406 136.017 89.8783 136.017 90.4226C136.017 90.9714 135.923 91.447 135.737 91.8496C135.55 92.2499 135.291 92.5603 134.961 92.7807C134.63 92.9989 134.249 93.108 133.817 93.108C133.484 93.108 133.218 93.0529 133.018 92.9426C132.817 92.8302 132.663 92.7031 132.555 92.5614C132.447 92.4175 132.364 92.2983 132.306 92.2038H132.211V93H131.442ZM132.225 90.4091C132.225 90.8004 132.282 91.1457 132.397 91.4448C132.512 91.7417 132.679 91.9744 132.9 92.1431C133.12 92.3095 133.39 92.3928 133.709 92.3928C134.042 92.3928 134.32 92.305 134.542 92.1296C134.767 91.9519 134.936 91.7135 135.048 91.4144C135.163 91.113 135.221 90.7779 135.221 90.4091C135.221 90.0447 135.164 89.7164 135.052 89.424C134.942 89.1294 134.774 88.8966 134.549 88.7257C134.327 88.5525 134.047 88.4659 133.709 88.4659C133.385 88.4659 133.113 88.548 132.893 88.7122C132.672 88.8741 132.506 89.1013 132.393 89.3936C132.281 89.6838 132.225 90.0223 132.225 90.4091ZM140.5 90.8814V87.8182H141.296V93H140.5V92.1229H140.446C140.325 92.386 140.136 92.6098 139.879 92.7942C139.623 92.9764 139.299 93.0675 138.908 93.0675C138.584 93.0675 138.296 92.9966 138.044 92.8549C137.792 92.711 137.594 92.4951 137.45 92.2072C137.307 91.9171 137.235 91.5516 137.235 91.1108V87.8182H138.031V91.0568C138.031 91.4347 138.136 91.736 138.348 91.9609C138.561 92.1858 138.834 92.2983 139.164 92.2983C139.362 92.2983 139.563 92.2477 139.768 92.1465C139.975 92.0453 140.148 91.8901 140.288 91.6809C140.429 91.4718 140.5 91.2053 140.5 90.8814ZM143.267 94.9432C143.132 94.9432 143.012 94.9319 142.906 94.9094C142.801 94.8892 142.728 94.869 142.687 94.8487L142.89 94.147C143.083 94.1965 143.254 94.2145 143.402 94.201C143.551 94.1875 143.682 94.1212 143.797 94.002C143.914 93.885 144.021 93.695 144.117 93.4318L144.266 93.027L142.35 87.8182H143.213L144.644 91.9474H144.698L146.128 87.8182H146.992L144.792 93.7557C144.693 94.0233 144.571 94.2449 144.424 94.4203C144.278 94.598 144.109 94.7295 143.915 94.815C143.724 94.9004 143.508 94.9432 143.267 94.9432ZM152.239 93.1214C151.911 93.1214 151.613 93.0596 151.345 92.9359C151.078 92.81 150.865 92.6289 150.708 92.3928C150.55 92.1544 150.472 91.8665 150.472 91.5291C150.472 91.2322 150.53 90.9916 150.647 90.8072C150.764 90.6205 150.92 90.4743 151.116 90.3686C151.312 90.2629 151.528 90.1842 151.764 90.1325C152.002 90.0785 152.242 90.0357 152.482 90.0043C152.797 89.9638 153.052 89.9334 153.248 89.9132C153.446 89.8907 153.59 89.8536 153.68 89.8018C153.772 89.7501 153.818 89.6602 153.818 89.532V89.505C153.818 89.1721 153.727 88.9135 153.545 88.729C153.365 88.5446 153.092 88.4524 152.725 88.4524C152.345 88.4524 152.047 88.5356 151.831 88.7021C151.615 88.8685 151.463 89.0462 151.376 89.2351L150.62 88.9652C150.755 88.6503 150.935 88.4052 151.16 88.2298C151.387 88.0521 151.634 87.9284 151.902 87.8587C152.172 87.7867 152.437 87.7507 152.698 87.7507C152.865 87.7507 153.056 87.771 153.272 87.8114C153.49 87.8497 153.7 87.9295 153.903 88.051C154.107 88.1724 154.277 88.3557 154.412 88.6009C154.547 88.846 154.614 89.1744 154.614 89.5859V93H153.818V92.2983H153.778C153.724 92.4107 153.634 92.5311 153.508 92.6593C153.382 92.7875 153.214 92.8965 153.005 92.9865C152.796 93.0765 152.541 93.1214 152.239 93.1214ZM152.361 92.4062C152.676 92.4062 152.941 92.3444 153.157 92.2207C153.375 92.097 153.539 91.9373 153.65 91.7417C153.762 91.546 153.818 91.3402 153.818 91.1243V90.3956C153.784 90.4361 153.71 90.4732 153.596 90.5069C153.483 90.5384 153.353 90.5665 153.204 90.5913C153.058 90.6138 152.915 90.634 152.776 90.652C152.639 90.6677 152.527 90.6812 152.442 90.6925C152.235 90.7195 152.041 90.7633 151.862 90.824C151.684 90.8825 151.54 90.9714 151.43 91.0906C151.322 91.2075 151.268 91.3672 151.268 91.5696C151.268 91.8462 151.37 92.0554 151.575 92.1971C151.782 92.3365 152.044 92.4062 152.361 92.4062ZM156.864 89.8828V93H156.068V87.8182H156.837V88.6278H156.904C157.026 88.3647 157.21 88.1533 157.457 87.9936C157.705 87.8317 158.024 87.7507 158.416 87.7507C158.766 87.7507 159.073 87.8227 159.337 87.9666C159.6 88.1083 159.804 88.3242 159.951 88.6143C160.097 88.9022 160.17 89.2666 160.17 89.7074V93H159.374V89.7614C159.374 89.3543 159.268 89.0372 159.057 88.81C158.845 88.5806 158.555 88.4659 158.186 88.4659C157.932 88.4659 157.705 88.521 157.505 88.6312C157.307 88.7414 157.15 88.9022 157.036 89.1136C156.921 89.325 156.864 89.5814 156.864 89.8828ZM163.581 93.108C163.15 93.108 162.768 92.9989 162.438 92.7807C162.107 92.5603 161.848 92.2499 161.662 91.8496C161.475 91.447 161.382 90.9714 161.382 90.4226C161.382 89.8783 161.475 89.406 161.662 89.0057C161.848 88.6054 162.108 88.2961 162.441 88.0779C162.774 87.8598 163.159 87.7507 163.595 87.7507C163.932 87.7507 164.199 87.8069 164.394 87.9194C164.592 88.0296 164.743 88.1555 164.846 88.2972C164.952 88.4367 165.034 88.5514 165.093 88.6413H165.16V86.0909H165.956V93H165.187V92.2038H165.093C165.034 92.2983 164.951 92.4175 164.843 92.5614C164.735 92.7031 164.581 92.8302 164.381 92.9426C164.181 93.0529 163.914 93.108 163.581 93.108ZM163.689 92.3928C164.009 92.3928 164.279 92.3095 164.499 92.1431C164.719 91.9744 164.887 91.7417 165.002 91.4448C165.116 91.1457 165.174 90.8004 165.174 90.4091C165.174 90.0223 165.117 89.6838 165.005 89.3936C164.893 89.1013 164.726 88.8741 164.506 88.7122C164.285 88.548 164.013 88.4659 163.689 88.4659C163.352 88.4659 163.071 88.5525 162.846 88.7257C162.623 88.8966 162.456 89.1294 162.343 89.424C162.233 89.7164 162.178 90.0447 162.178 90.4091C162.178 90.7779 162.234 91.113 162.347 91.4144C162.461 91.7135 162.63 91.9519 162.853 92.1296C163.078 92.305 163.356 92.3928 163.689 92.3928ZM173.867 88.9787L173.152 89.1811C173.107 89.0619 173.041 88.9461 172.953 88.8336C172.868 88.7189 172.751 88.6245 172.602 88.5502C172.454 88.476 172.264 88.4389 172.032 88.4389C171.715 88.4389 171.451 88.512 171.239 88.6582C171.03 88.8021 170.926 88.9854 170.926 89.2081C170.926 89.406 170.998 89.5623 171.142 89.677C171.285 89.7917 171.51 89.8873 171.816 89.9638L172.585 90.1527C173.049 90.2652 173.394 90.4372 173.621 90.6689C173.848 90.8983 173.962 91.194 173.962 91.5561C173.962 91.853 173.876 92.1184 173.705 92.3523C173.537 92.5862 173.301 92.7706 172.997 92.9055C172.693 93.0405 172.34 93.108 171.938 93.108C171.409 93.108 170.972 92.9933 170.625 92.7638C170.279 92.5344 170.06 92.1993 169.968 91.7585L170.723 91.5696C170.795 91.8485 170.931 92.0576 171.131 92.1971C171.334 92.3365 171.598 92.4062 171.924 92.4062C172.295 92.4062 172.59 92.3275 172.808 92.1701C173.029 92.0104 173.139 91.8192 173.139 91.5966C173.139 91.4167 173.076 91.266 172.95 91.1445C172.824 91.0208 172.63 90.9286 172.37 90.8679L171.506 90.6655C171.031 90.553 170.683 90.3787 170.46 90.1426C170.24 89.9042 170.129 89.6062 170.129 89.2486C170.129 88.9562 170.212 88.6976 170.376 88.4727C170.542 88.2478 170.768 88.0712 171.054 87.943C171.342 87.8148 171.668 87.7507 172.032 87.7507C172.545 87.7507 172.948 87.8632 173.24 88.0881C173.535 88.313 173.744 88.6098 173.867 88.9787ZM177.333 93.108C176.834 93.108 176.403 92.9978 176.041 92.7773C175.681 92.5547 175.403 92.2443 175.208 91.8462C175.014 91.4459 174.917 90.9804 174.917 90.4496C174.917 89.9188 175.014 89.451 175.208 89.0462C175.403 88.6391 175.675 88.322 176.024 88.0948C176.375 87.8654 176.784 87.7507 177.252 87.7507C177.522 87.7507 177.788 87.7957 178.051 87.8857C178.315 87.9756 178.554 88.1218 178.77 88.3242C178.986 88.5244 179.158 88.7898 179.286 89.1204C179.414 89.451 179.479 89.8581 179.479 90.3416V90.679H175.484V89.9908H178.669C178.669 89.6984 178.61 89.4375 178.493 89.2081C178.379 88.9787 178.215 88.7976 178.001 88.665C177.789 88.5323 177.54 88.4659 177.252 88.4659C176.935 88.4659 176.66 88.5446 176.429 88.7021C176.199 88.8572 176.023 89.0597 175.899 89.3093C175.775 89.5589 175.714 89.8266 175.714 90.1122V90.571C175.714 90.9624 175.781 91.2941 175.916 91.5662C176.053 91.8361 176.243 92.0419 176.486 92.1836C176.729 92.323 177.011 92.3928 177.333 92.3928C177.542 92.3928 177.731 92.3635 177.9 92.305C178.071 92.2443 178.218 92.1544 178.342 92.0352C178.465 91.9137 178.561 91.763 178.628 91.5831L179.398 91.799C179.317 92.0599 179.181 92.2893 178.989 92.4872C178.798 92.6829 178.562 92.8358 178.281 92.946C178 93.054 177.684 93.108 177.333 93.108ZM181.486 86.0909V93H180.69V86.0909H181.486ZM183.74 86.0909V93H182.944V86.0909H183.74Z" fill="url(#paint3_linear_22_268)"/>
<path d="M241 0.690543H240.691V1V129.734V130.043H241H510.846H511.156V129.734V1V0.690543H510.846H241Z" fill="url(#paint4_linear_22_268)" stroke="url(#paint5_linear_22_268)" stroke-width="0.618913"/>
<path d="M309.548 40.6364V77H305.145V45.2528H304.932L296.054 51.1477V46.6733L305.145 40.6364H309.548ZM324.179 72.0284L323.895 73.946C323.694 75.2955 323.386 76.7396 322.972 78.2784C322.569 79.8172 322.149 81.2673 321.711 82.6286C321.273 83.9898 320.912 85.0729 320.628 85.8778H317.432C317.586 85.1203 317.787 84.12 318.036 82.8771C318.284 81.6342 318.533 80.2434 318.781 78.7045C319.042 77.1776 319.255 75.6151 319.42 74.017L319.634 72.0284H324.179ZM331.872 77V73.804L343.874 60.6648C345.283 59.1259 346.443 57.7884 347.355 56.652C348.266 55.5038 348.941 54.4266 349.379 53.4205C349.829 52.4025 350.053 51.3371 350.053 50.2244C350.053 48.946 349.746 47.8393 349.13 46.9041C348.526 45.969 347.698 45.2469 346.644 44.7379C345.591 44.2289 344.407 43.9744 343.093 43.9744C341.696 43.9744 340.477 44.2644 339.436 44.8445C338.406 45.4126 337.607 46.2116 337.039 47.2415C336.482 48.2713 336.204 49.4787 336.204 50.8636H332.014C332.014 48.733 332.505 46.8627 333.487 45.2528C334.47 43.643 335.807 42.3883 337.5 41.4886C339.205 40.589 341.116 40.1392 343.235 40.1392C345.366 40.1392 347.254 40.589 348.899 41.4886C350.545 42.3883 351.835 43.6016 352.77 45.1286C353.705 46.6555 354.173 48.3542 354.173 50.2244C354.173 51.562 353.93 52.87 353.445 54.1484C352.971 55.415 352.143 56.8295 350.959 58.392C349.787 59.9427 348.16 61.8366 346.076 64.0739L337.909 72.8097V73.0938H354.812V77H331.872ZM376.279 77V49.7273H380.327V53.9886H380.682C381.25 52.5327 382.168 51.4022 383.434 50.5973C384.701 49.7805 386.222 49.3722 387.997 49.3722C389.797 49.3722 391.294 49.7805 392.49 50.5973C393.697 51.4022 394.638 52.5327 395.313 53.9886H395.597C396.295 52.58 397.343 51.4614 398.74 50.6328C400.136 49.7924 401.811 49.3722 403.764 49.3722C406.203 49.3722 408.197 50.1357 409.748 51.6626C411.299 53.1778 412.074 55.5393 412.074 58.7472V77H407.884V58.7472C407.884 56.7348 407.333 55.2966 406.232 54.4325C405.132 53.5684 403.835 53.1364 402.344 53.1364C400.426 53.1364 398.941 53.7164 397.887 54.8764C396.834 56.0246 396.307 57.4806 396.307 59.2443V77H392.046V58.321C392.046 56.7704 391.543 55.5215 390.536 54.5746C389.53 53.6158 388.234 53.1364 386.648 53.1364C385.559 53.1364 384.541 53.4264 383.594 54.0064C382.659 54.5864 381.901 55.3913 381.321 56.4212C380.753 57.4392 380.469 58.617 380.469 59.9545V77H376.279ZM423.926 40.6364V77H419.736V40.6364H423.926ZM435.791 60.5938V77H431.601V49.7273H435.649V53.9886H436.004C436.643 52.6037 437.614 51.491 438.916 50.6506C440.218 49.7983 441.899 49.3722 443.959 49.3722C445.805 49.3722 447.421 49.7509 448.806 50.5085C450.191 51.2543 451.268 52.3906 452.038 53.9176C452.807 55.4328 453.192 57.3504 453.192 59.6705V77H449.001V59.9545C449.001 57.812 448.445 56.143 447.332 54.9474C446.22 53.7401 444.693 53.1364 442.751 53.1364C441.414 53.1364 440.218 53.4264 439.165 54.0064C438.123 54.5864 437.3 55.4328 436.697 56.5455C436.093 57.6581 435.791 59.0076 435.791 60.5938Z" fill="url(#paint6_linear_22_268)"/>
<path d="M349.12 93H348.243L350.78 86.0909H351.643L354.18 93H353.303L351.239 87.1839H351.185L349.12 93ZM349.444 90.3011H352.979V91.0433H349.444V90.3011ZM357.254 93.108C356.768 93.108 356.35 92.9933 355.999 92.7638C355.648 92.5344 355.378 92.2185 355.189 91.8159C355 91.4133 354.906 90.9534 354.906 90.4361C354.906 89.9098 355.002 89.4454 355.196 89.0428C355.392 88.638 355.664 88.322 356.012 88.0948C356.363 87.8654 356.772 87.7507 357.24 87.7507C357.605 87.7507 357.933 87.8182 358.225 87.9531C358.518 88.0881 358.757 88.277 358.944 88.5199C359.131 88.7628 359.246 89.0462 359.291 89.37H358.495C358.434 89.1339 358.3 88.9247 358.09 88.7425C357.883 88.5581 357.605 88.4659 357.254 88.4659C356.943 88.4659 356.671 88.5469 356.437 88.7088C356.206 88.8685 356.025 89.0945 355.894 89.3869C355.766 89.677 355.702 90.0178 355.702 90.4091C355.702 90.8094 355.765 91.158 355.891 91.4549C356.019 91.7518 356.199 91.9823 356.431 92.1465C356.664 92.3107 356.939 92.3928 357.254 92.3928C357.461 92.3928 357.648 92.3568 357.817 92.2848C357.986 92.2128 358.129 92.1094 358.246 91.9744C358.363 91.8395 358.446 91.6776 358.495 91.4886H359.291C359.246 91.7945 359.135 92.07 358.957 92.3152C358.782 92.5581 358.549 92.7515 358.259 92.8954C357.971 93.0371 357.636 93.108 357.254 93.108ZM362.709 87.8182V88.4929H360.023V87.8182H362.709ZM360.806 86.5767H361.602V91.5156C361.602 91.7405 361.635 91.9092 361.7 92.0217C361.768 92.1319 361.853 92.2061 361.956 92.2443C362.062 92.2803 362.174 92.2983 362.29 92.2983C362.378 92.2983 362.45 92.2938 362.506 92.2848C362.563 92.2736 362.608 92.2646 362.641 92.2578L362.803 92.973C362.749 92.9933 362.674 93.0135 362.577 93.0337C362.481 93.0562 362.358 93.0675 362.21 93.0675C361.985 93.0675 361.764 93.0191 361.548 92.9224C361.335 92.8257 361.157 92.6784 361.015 92.4805C360.876 92.2826 360.806 92.0329 360.806 91.7315V86.5767ZM363.906 93V87.8182H364.703V93H363.906ZM364.311 86.9545C364.156 86.9545 364.022 86.9017 363.91 86.796C363.8 86.6903 363.744 86.5632 363.744 86.4148C363.744 86.2663 363.8 86.1393 363.91 86.0336C364.022 85.9279 364.156 85.875 364.311 85.875C364.466 85.875 364.599 85.9279 364.709 86.0336C364.822 86.1393 364.878 86.2663 364.878 86.4148C364.878 86.5632 364.822 86.6903 364.709 86.796C364.599 86.9017 364.466 86.9545 364.311 86.9545ZM370.398 87.8182L368.482 93H367.672L365.756 87.8182H366.62L368.05 91.9474H368.104L369.534 87.8182H370.398ZM373.436 93.108C372.937 93.108 372.506 92.9978 372.144 92.7773C371.784 92.5547 371.506 92.2443 371.311 91.8462C371.117 91.4459 371.02 90.9804 371.02 90.4496C371.02 89.9188 371.117 89.451 371.311 89.0462C371.506 88.6391 371.778 88.322 372.127 88.0948C372.478 87.8654 372.887 87.7507 373.355 87.7507C373.625 87.7507 373.891 87.7957 374.155 87.8857C374.418 87.9756 374.657 88.1218 374.873 88.3242C375.089 88.5244 375.261 88.7898 375.389 89.1204C375.517 89.451 375.582 89.8581 375.582 90.3416V90.679H371.587V89.9908H374.772C374.772 89.6984 374.713 89.4375 374.596 89.2081C374.482 88.9787 374.318 88.7976 374.104 88.665C373.893 88.5323 373.643 88.4659 373.355 88.4659C373.038 88.4659 372.763 88.5446 372.532 88.7021C372.302 88.8572 372.126 89.0597 372.002 89.3093C371.878 89.5589 371.817 89.8266 371.817 90.1122V90.571C371.817 90.9624 371.884 91.2941 372.019 91.5662C372.156 91.8361 372.346 92.0419 372.589 92.1836C372.832 92.323 373.114 92.3928 373.436 92.3928C373.645 92.3928 373.834 92.3635 374.003 92.305C374.174 92.2443 374.321 92.1544 374.445 92.0352C374.568 91.9137 374.664 91.763 374.731 91.5831L375.501 91.799C375.42 92.0599 375.284 92.2893 375.092 92.4872C374.901 92.6829 374.665 92.8358 374.384 92.946C374.103 93.054 373.787 93.108 373.436 93.108ZM382.73 90.8814V87.8182H383.526V93H382.73V92.1229H382.676C382.555 92.386 382.366 92.6098 382.109 92.7942C381.853 92.9764 381.529 93.0675 381.138 93.0675C380.814 93.0675 380.526 92.9966 380.274 92.8549C380.022 92.711 379.824 92.4951 379.68 92.2072C379.537 91.9171 379.465 91.5516 379.465 91.1108V87.8182H380.261V91.0568C380.261 91.4347 380.366 91.736 380.578 91.9609C380.791 92.1858 381.064 92.2983 381.394 92.2983C381.592 92.2983 381.793 92.2477 381.998 92.1465C382.205 92.0453 382.378 91.8901 382.518 91.6809C382.659 91.4718 382.73 91.2053 382.73 90.8814ZM388.655 88.9787L387.94 89.1811C387.895 89.0619 387.828 88.9461 387.741 88.8336C387.655 88.7189 387.538 88.6245 387.39 88.5502C387.241 88.476 387.051 88.4389 386.82 88.4389C386.503 88.4389 386.238 88.512 386.027 88.6582C385.818 88.8021 385.713 88.9854 385.713 89.2081C385.713 89.406 385.785 89.5623 385.929 89.677C386.073 89.7917 386.298 89.8873 386.604 89.9638L387.373 90.1527C387.836 90.2652 388.182 90.4372 388.409 90.6689C388.636 90.8983 388.749 91.194 388.749 91.5561C388.749 91.853 388.664 92.1184 388.493 92.3523C388.324 92.5862 388.088 92.7706 387.785 92.9055C387.481 93.0405 387.128 93.108 386.725 93.108C386.197 93.108 385.759 92.9933 385.413 92.7638C385.067 92.5344 384.847 92.1993 384.755 91.7585L385.511 91.5696C385.583 91.8485 385.719 92.0576 385.919 92.1971C386.121 92.3365 386.386 92.4062 386.712 92.4062C387.083 92.4062 387.378 92.3275 387.596 92.1701C387.816 92.0104 387.926 91.8192 387.926 91.5966C387.926 91.4167 387.863 91.266 387.737 91.1445C387.611 91.0208 387.418 90.9286 387.157 90.8679L386.294 90.6655C385.819 90.553 385.47 90.3787 385.248 90.1426C385.027 89.9042 384.917 89.6062 384.917 89.2486C384.917 88.9562 384.999 88.6976 385.163 88.4727C385.33 88.2478 385.556 88.0712 385.841 87.943C386.129 87.8148 386.455 87.7507 386.82 87.7507C387.333 87.7507 387.735 87.8632 388.028 88.0881C388.322 88.313 388.531 88.6098 388.655 88.9787ZM392.121 93.108C391.621 93.108 391.191 92.9978 390.828 92.7773C390.469 92.5547 390.191 92.2443 389.995 91.8462C389.802 91.4459 389.705 90.9804 389.705 90.4496C389.705 89.9188 389.802 89.451 389.995 89.0462C390.191 88.6391 390.463 88.322 390.812 88.0948C391.162 87.8654 391.572 87.7507 392.04 87.7507C392.309 87.7507 392.576 87.7957 392.839 87.8857C393.102 87.9756 393.342 88.1218 393.558 88.3242C393.774 88.5244 393.946 88.7898 394.074 89.1204C394.202 89.451 394.266 89.8581 394.266 90.3416V90.679H390.272V89.9908H393.456C393.456 89.6984 393.398 89.4375 393.281 89.2081C393.166 88.9787 393.002 88.7976 392.788 88.665C392.577 88.5323 392.327 88.4659 392.04 88.4659C391.722 88.4659 391.448 88.5446 391.216 88.7021C390.987 88.8572 390.81 89.0597 390.687 89.3093C390.563 89.5589 390.501 89.8266 390.501 90.1122V90.571C390.501 90.9624 390.569 91.2941 390.704 91.5662C390.841 91.8361 391.031 92.0419 391.274 92.1836C391.517 92.323 391.799 92.3928 392.121 92.3928C392.33 92.3928 392.519 92.3635 392.687 92.305C392.858 92.2443 393.006 92.1544 393.129 92.0352C393.253 91.9137 393.348 91.763 393.416 91.5831L394.185 91.799C394.104 92.0599 393.968 92.2893 393.777 92.4872C393.586 92.6829 393.35 92.8358 393.068 92.946C392.787 93.054 392.471 93.108 392.121 93.108ZM395.477 93V87.8182H396.246V88.6009H396.3C396.395 88.3445 396.566 88.1364 396.813 87.9767C397.061 87.8171 397.339 87.7372 397.65 87.7372C397.708 87.7372 397.781 87.7383 397.869 87.7406C397.957 87.7428 398.023 87.7462 398.068 87.7507V88.5604C398.041 88.5536 397.979 88.5435 397.883 88.53C397.788 88.5143 397.688 88.5064 397.582 88.5064C397.33 88.5064 397.106 88.5592 396.908 88.665C396.712 88.7684 396.557 88.9123 396.442 89.0968C396.33 89.2789 396.273 89.487 396.273 89.7209V93H395.477ZM402.682 88.9787L401.967 89.1811C401.922 89.0619 401.856 88.9461 401.768 88.8336C401.683 88.7189 401.566 88.6245 401.417 88.5502C401.269 88.476 401.079 88.4389 400.847 88.4389C400.53 88.4389 400.266 88.512 400.054 88.6582C399.845 88.8021 399.741 88.9854 399.741 89.2081C399.741 89.406 399.813 89.5623 399.956 89.677C400.1 89.7917 400.325 89.8873 400.631 89.9638L401.4 90.1527C401.864 90.2652 402.209 90.4372 402.436 90.6689C402.663 90.8983 402.777 91.194 402.777 91.5561C402.777 91.853 402.691 92.1184 402.52 92.3523C402.352 92.5862 402.116 92.7706 401.812 92.9055C401.508 93.0405 401.155 93.108 400.753 93.108C400.224 93.108 399.787 92.9933 399.44 92.7638C399.094 92.5344 398.875 92.1993 398.782 91.7585L399.538 91.5696C399.61 91.8485 399.746 92.0576 399.946 92.1971C400.149 92.3365 400.413 92.4062 400.739 92.4062C401.11 92.4062 401.405 92.3275 401.623 92.1701C401.843 92.0104 401.954 91.8192 401.954 91.5966C401.954 91.4167 401.891 91.266 401.765 91.1445C401.639 91.0208 401.445 90.9286 401.184 90.8679L400.321 90.6655C399.846 90.553 399.498 90.3787 399.275 90.1426C399.055 89.9042 398.944 89.6062 398.944 89.2486C398.944 88.9562 399.027 88.6976 399.191 88.4727C399.357 88.2478 399.583 88.0712 399.869 87.943C400.157 87.8148 400.483 87.7507 400.847 87.7507C401.36 87.7507 401.762 87.8632 402.055 88.0881C402.349 88.313 402.559 88.6098 402.682 88.9787Z" fill="url(#paint7_linear_22_268)"/>
<path d="M483 0.690543H482.691V1V129.734V130.043H483H749.846C751.674 130.043 753.156 128.562 753.156 126.734V4C753.156 2.17224 751.674 0.690543 749.846 0.690543H483Z" fill="url(#paint8_linear_22_268)" stroke="url(#paint9_linear_22_268)" stroke-width="0.618913"/>
<path d="M540.489 81.5455V36.0909H543.401V81.5455H540.489ZM550.29 49.7273C550.077 47.928 549.213 46.5312 547.697 45.5369C546.182 44.5426 544.324 44.0455 542.122 44.0455C540.512 44.0455 539.104 44.3059 537.896 44.8267C536.701 45.3475 535.766 46.0637 535.091 46.9751C534.428 47.8866 534.097 48.9223 534.097 50.0824C534.097 51.053 534.327 51.8875 534.789 52.5859C535.263 53.2725 535.866 53.8466 536.6 54.3082C537.334 54.758 538.103 55.1309 538.908 55.4268C539.713 55.7109 540.453 55.9418 541.128 56.1193L544.821 57.1136C545.768 57.3622 546.821 57.7055 547.982 58.1435C549.153 58.5814 550.272 59.1792 551.337 59.9368C552.415 60.6825 553.302 61.6413 554.001 62.8132C554.699 63.9851 555.048 65.4233 555.048 67.1278C555.048 69.0928 554.533 70.8684 553.504 72.4545C552.486 74.0407 550.994 75.3014 549.029 76.2365C547.076 77.1716 544.703 77.6392 541.909 77.6392C539.305 77.6392 537.05 77.219 535.144 76.3786C533.25 75.5381 531.759 74.3662 530.67 72.8629C529.593 71.3596 528.983 69.6136 528.841 67.625H533.386C533.505 68.9981 533.966 70.1345 534.771 71.0341C535.588 71.9219 536.618 72.5848 537.861 73.0227C539.116 73.4489 540.465 73.6619 541.909 73.6619C543.59 73.6619 545.099 73.3897 546.437 72.8452C547.774 72.2888 548.834 71.5194 549.615 70.5369C550.396 69.5426 550.787 68.3826 550.787 67.0568C550.787 65.8494 550.45 64.867 549.775 64.1094C549.1 63.3518 548.212 62.7363 547.112 62.2628C546.011 61.7893 544.821 61.375 543.543 61.0199L539.068 59.7415C536.227 58.9247 533.978 57.7588 532.321 56.2436C530.664 54.7285 529.835 52.7457 529.835 50.2955C529.835 48.2595 530.386 46.4839 531.487 44.9688C532.599 43.4418 534.091 42.258 535.961 41.4176C537.843 40.5653 539.944 40.1392 542.264 40.1392C544.608 40.1392 546.691 40.5594 548.514 41.3999C550.337 42.2285 551.781 43.3648 552.847 44.8089C553.924 46.2531 554.492 47.8925 554.551 49.7273H550.29ZM561.649 77V73.804L573.652 60.6648C575.06 59.1259 576.22 57.7884 577.132 56.652C578.043 55.5038 578.718 54.4266 579.156 53.4205C579.606 52.4025 579.831 51.3371 579.831 50.2244C579.831 48.946 579.523 47.8393 578.907 46.9041C578.304 45.969 577.475 45.2469 576.422 44.7379C575.368 44.2289 574.184 43.9744 572.871 43.9744C571.474 43.9744 570.255 44.2644 569.213 44.8445C568.183 45.4126 567.384 46.2116 566.816 47.2415C566.26 48.2713 565.981 49.4787 565.981 50.8636H561.791C561.791 48.733 562.282 46.8627 563.265 45.2528C564.247 43.643 565.585 42.3883 567.278 41.4886C568.982 40.589 570.894 40.1392 573.013 40.1392C575.143 40.1392 577.031 40.589 578.677 41.4886C580.322 42.3883 581.612 43.6016 582.547 45.1286C583.483 46.6555 583.95 48.3542 583.95 50.2244C583.95 51.562 583.707 52.87 583.222 54.1484C582.749 55.415 581.92 56.8295 580.736 58.392C579.564 59.9427 577.937 61.8366 575.854 64.0739L567.686 72.8097V73.0938H584.589V77H561.649ZM604.706 40.6364V77H600.303V45.2528H600.09L591.212 51.1477V46.6733L600.303 40.6364H604.706ZM627.949 40.6364V77H623.545V45.2528H623.332L614.454 51.1477V46.6733L623.545 40.6364H627.949ZM652.54 77V49.7273H656.589V53.9886H656.944C657.512 52.5327 658.429 51.4022 659.696 50.5973C660.962 49.7805 662.483 49.3722 664.259 49.3722C666.058 49.3722 667.556 49.7805 668.751 50.5973C669.959 51.4022 670.9 52.5327 671.574 53.9886H671.858C672.557 52.58 673.604 51.4614 675.001 50.6328C676.398 49.7924 678.073 49.3722 680.026 49.3722C682.465 49.3722 684.459 50.1357 686.01 51.6626C687.56 53.1778 688.336 55.5393 688.336 58.7472V77H684.145V58.7472C684.145 56.7348 683.595 55.2966 682.494 54.4325C681.393 53.5684 680.097 53.1364 678.606 53.1364C676.688 53.1364 675.202 53.7164 674.149 54.8764C673.095 56.0246 672.569 57.4806 672.569 59.2443V77H668.307V58.321C668.307 56.7704 667.804 55.5215 666.798 54.5746C665.792 53.6158 664.496 53.1364 662.91 53.1364C661.821 53.1364 660.803 53.4264 659.856 54.0064C658.921 54.5864 658.163 55.3913 657.583 56.4212C657.015 57.4392 656.731 58.617 656.731 59.9545V77H652.54ZM700.188 40.6364V77H695.997V40.6364H700.188ZM712.053 60.5938V77H707.863V49.7273H711.911V53.9886H712.266C712.905 52.6037 713.876 51.491 715.178 50.6506C716.48 49.7983 718.161 49.3722 720.221 49.3722C722.067 49.3722 723.683 49.7509 725.068 50.5085C726.453 51.2543 727.53 52.3906 728.299 53.9176C729.069 55.4328 729.453 57.3504 729.453 59.6705V77H725.263V59.9545C725.263 57.812 724.707 56.143 723.594 54.9474C722.481 53.7401 720.954 53.1364 719.013 53.1364C717.676 53.1364 716.48 53.4264 715.426 54.0064C714.385 54.5864 713.562 55.4328 712.958 56.5455C712.355 57.6581 712.053 59.0076 712.053 60.5938Z" fill="url(#paint10_linear_22_268)"/>
<path d="M564.715 93V92.3928L566.996 89.8963C567.263 89.6039 567.484 89.3498 567.657 89.1339C567.83 88.9157 567.958 88.7111 568.042 88.5199C568.127 88.3265 568.17 88.1241 568.17 87.9126C568.17 87.6697 568.111 87.4595 567.994 87.2818C567.88 87.1041 567.722 86.9669 567.522 86.8702C567.322 86.7735 567.097 86.7251 566.847 86.7251C566.582 86.7251 566.35 86.7802 566.152 86.8904C565.957 86.9984 565.805 87.1502 565.697 87.3459C565.591 87.5415 565.538 87.771 565.538 88.0341H564.742C564.742 87.6293 564.836 87.2739 565.022 86.968C565.209 86.6622 565.463 86.4238 565.785 86.2528C566.108 86.0819 566.472 85.9964 566.874 85.9964C567.279 85.9964 567.638 86.0819 567.95 86.2528C568.263 86.4238 568.508 86.6543 568.686 86.9444C568.864 87.2346 568.952 87.5573 568.952 87.9126C568.952 88.1668 568.906 88.4153 568.814 88.6582C568.724 88.8989 568.567 89.1676 568.342 89.4645C568.119 89.7591 567.81 90.119 567.414 90.544L565.862 92.2038V92.2578H569.074V93H564.715ZM570.157 91.5831V90.8949L573.193 86.0909H573.692V87.157H573.355L571.061 90.7869V90.8409H575.15V91.5831H570.157ZM573.409 93V91.3739V91.0534V86.0909H574.205V93H573.409ZM577.224 89.8828V93H576.427V86.0909H577.224V88.6278H577.291C577.413 88.3602 577.595 88.1477 577.838 87.9902C578.083 87.8306 578.409 87.7507 578.816 87.7507C579.169 87.7507 579.478 87.8216 579.744 87.9632C580.009 88.1027 580.215 88.3175 580.361 88.6076C580.509 88.8955 580.584 89.2621 580.584 89.7074V93H579.788V89.7614C579.788 89.3498 579.681 89.0315 579.467 88.8066C579.256 88.5795 578.962 88.4659 578.587 88.4659C578.326 88.4659 578.092 88.521 577.885 88.6312C577.68 88.7414 577.518 88.9022 577.399 89.1136C577.282 89.325 577.224 89.5814 577.224 89.8828ZM586.966 87.8182V88.4929H584.28V87.8182H586.966ZM585.063 86.5767H585.859V91.5156C585.859 91.7405 585.892 91.9092 585.957 92.0217C586.024 92.1319 586.11 92.2061 586.213 92.2443C586.319 92.2803 586.43 92.2983 586.547 92.2983C586.635 92.2983 586.707 92.2938 586.763 92.2848C586.819 92.2736 586.864 92.2646 586.898 92.2578L587.06 92.973C587.006 92.9933 586.931 93.0135 586.834 93.0337C586.737 93.0562 586.615 93.0675 586.466 93.0675C586.241 93.0675 586.021 93.0191 585.805 92.9224C585.591 92.8257 585.414 92.6784 585.272 92.4805C585.133 92.2826 585.063 92.0329 585.063 91.7315V86.5767ZM588.163 93V87.8182H588.932V88.6009H588.986C589.081 88.3445 589.252 88.1364 589.499 87.9767C589.747 87.8171 590.025 87.7372 590.336 87.7372C590.394 87.7372 590.467 87.7383 590.555 87.7406C590.643 87.7428 590.709 87.7462 590.754 87.7507V88.5604C590.727 88.5536 590.665 88.5435 590.569 88.53C590.474 88.5143 590.374 88.5064 590.268 88.5064C590.016 88.5064 589.792 88.5592 589.594 88.665C589.398 88.7684 589.243 88.9123 589.128 89.0968C589.016 89.2789 588.959 89.487 588.959 89.7209V93H588.163ZM593.223 93.1214C592.894 93.1214 592.596 93.0596 592.329 92.9359C592.061 92.81 591.849 92.6289 591.691 92.3928C591.534 92.1544 591.455 91.8665 591.455 91.5291C591.455 91.2322 591.514 90.9916 591.63 90.8072C591.747 90.6205 591.904 90.4743 592.099 90.3686C592.295 90.2629 592.511 90.1842 592.747 90.1325C592.986 90.0785 593.225 90.0357 593.466 90.0043C593.781 89.9638 594.036 89.9334 594.231 89.9132C594.429 89.8907 594.573 89.8536 594.663 89.8018C594.756 89.7501 594.802 89.6602 594.802 89.532V89.505C594.802 89.1721 594.711 88.9135 594.528 88.729C594.348 88.5446 594.075 88.4524 593.709 88.4524C593.328 88.4524 593.03 88.5356 592.815 88.7021C592.599 88.8685 592.447 89.0462 592.359 89.2351L591.603 88.9652C591.738 88.6503 591.918 88.4052 592.143 88.2298C592.37 88.0521 592.618 87.9284 592.885 87.8587C593.155 87.7867 593.421 87.7507 593.682 87.7507C593.848 87.7507 594.039 87.771 594.255 87.8114C594.473 87.8497 594.684 87.9295 594.886 88.051C595.091 88.1724 595.26 88.3557 595.395 88.6009C595.53 88.846 595.598 89.1744 595.598 89.5859V93H594.802V92.2983H594.761C594.707 92.4107 594.617 92.5311 594.491 92.6593C594.365 92.7875 594.198 92.8965 593.989 92.9865C593.779 93.0765 593.524 93.1214 593.223 93.1214ZM593.344 92.4062C593.659 92.4062 593.924 92.3444 594.14 92.2207C594.359 92.097 594.523 91.9373 594.633 91.7417C594.745 91.546 594.802 91.3402 594.802 91.1243V90.3956C594.768 90.4361 594.694 90.4732 594.579 90.5069C594.467 90.5384 594.336 90.5665 594.188 90.5913C594.041 90.6138 593.899 90.634 593.759 90.652C593.622 90.6677 593.511 90.6812 593.425 90.6925C593.218 90.7195 593.025 90.7633 592.845 90.824C592.667 90.8825 592.523 90.9714 592.413 91.0906C592.305 91.2075 592.251 91.3672 592.251 91.5696C592.251 91.8462 592.354 92.0554 592.558 92.1971C592.765 92.3365 593.027 92.4062 593.344 92.4062ZM599.008 93.108C598.576 93.108 598.195 92.9989 597.864 92.7807C597.533 92.5603 597.275 92.2499 597.088 91.8496C596.901 91.447 596.808 90.9714 596.808 90.4226C596.808 89.8783 596.901 89.406 597.088 89.0057C597.275 88.6054 597.535 88.2961 597.867 88.0779C598.2 87.8598 598.585 87.7507 599.021 87.7507C599.358 87.7507 599.625 87.8069 599.821 87.9194C600.019 88.0296 600.169 88.1555 600.273 88.2972C600.378 88.4367 600.461 88.5514 600.519 88.6413H600.586V86.0909H601.383V93H600.613V92.2038H600.519C600.461 92.2983 600.377 92.4175 600.269 92.5614C600.161 92.7031 600.007 92.8302 599.807 92.9426C599.607 93.0529 599.34 93.108 599.008 93.108ZM599.116 92.3928C599.435 92.3928 599.705 92.3095 599.925 92.1431C600.146 91.9744 600.313 91.7417 600.428 91.4448C600.543 91.1457 600.6 90.8004 600.6 90.4091C600.6 90.0223 600.544 89.6838 600.431 89.3936C600.319 89.1013 600.152 88.8741 599.932 88.7122C599.712 88.548 599.439 88.4659 599.116 88.4659C598.778 88.4659 598.497 88.5525 598.272 88.7257C598.05 88.8966 597.882 89.1294 597.77 89.424C597.659 89.7164 597.604 90.0447 597.604 90.4091C597.604 90.7779 597.66 91.113 597.773 91.4144C597.888 91.7135 598.056 91.9519 598.279 92.1296C598.504 92.305 598.783 92.3928 599.116 92.3928ZM602.951 93V87.8182H603.748V93H602.951ZM603.356 86.9545C603.201 86.9545 603.067 86.9017 602.955 86.796C602.845 86.6903 602.789 86.5632 602.789 86.4148C602.789 86.2663 602.845 86.1393 602.955 86.0336C603.067 85.9279 603.201 85.875 603.356 85.875C603.511 85.875 603.644 85.9279 603.754 86.0336C603.867 86.1393 603.923 86.2663 603.923 86.4148C603.923 86.5632 603.867 86.6903 603.754 86.796C603.644 86.9017 603.511 86.9545 603.356 86.9545ZM606.002 89.8828V93H605.206V87.8182H605.975V88.6278H606.042C606.164 88.3647 606.348 88.1533 606.596 87.9936C606.843 87.8317 607.162 87.7507 607.554 87.7507C607.905 87.7507 608.212 87.8227 608.475 87.9666C608.738 88.1083 608.943 88.3242 609.089 88.6143C609.235 88.9022 609.308 89.2666 609.308 89.7074V93H608.512V89.7614C608.512 89.3543 608.406 89.0372 608.195 88.81C607.983 88.5806 607.693 88.4659 607.324 88.4659C607.07 88.4659 606.843 88.521 606.643 88.6312C606.445 88.7414 606.289 88.9022 606.174 89.1136C606.059 89.325 606.002 89.5814 606.002 89.8828ZM612.854 95.0511C612.47 95.0511 612.139 95.0017 611.863 94.9027C611.586 94.806 611.355 94.6778 611.171 94.5181C610.989 94.3607 610.844 94.192 610.736 94.0121L611.37 93.5668C611.442 93.6612 611.533 93.7692 611.643 93.8906C611.754 94.0143 611.904 94.1212 612.095 94.2111C612.289 94.3033 612.542 94.3494 612.854 94.3494C613.273 94.3494 613.618 94.2482 613.89 94.0458C614.162 93.8434 614.298 93.5263 614.298 93.0945V92.0419H614.231C614.172 92.1364 614.089 92.2533 613.981 92.3928C613.876 92.5299 613.723 92.6525 613.522 92.7605C613.325 92.8662 613.057 92.919 612.72 92.919C612.301 92.919 611.926 92.8201 611.593 92.6222C611.262 92.4242 611 92.1364 610.807 91.7585C610.616 91.3807 610.52 90.9219 610.52 90.3821C610.52 89.8513 610.613 89.3891 610.8 88.9956C610.987 88.5997 611.246 88.2939 611.579 88.0779C611.912 87.8598 612.297 87.7507 612.733 87.7507C613.07 87.7507 613.338 87.8069 613.536 87.9194C613.736 88.0296 613.889 88.1555 613.995 88.2972C614.103 88.4367 614.186 88.5514 614.244 88.6413H614.325V87.8182H615.095V93.1484C615.095 93.5938 614.993 93.9558 614.791 94.2347C614.591 94.5159 614.321 94.7217 613.981 94.8521C613.644 94.9848 613.268 95.0511 612.854 95.0511ZM612.828 92.2038C613.147 92.2038 613.417 92.1307 613.637 91.9846C613.858 91.8384 614.025 91.6281 614.14 91.3537C614.255 91.0793 614.312 90.7509 614.312 90.3686C614.312 89.9953 614.256 89.6658 614.143 89.3801C614.031 89.0945 613.864 88.8707 613.644 88.7088C613.424 88.5469 613.151 88.4659 612.828 88.4659C612.49 88.4659 612.209 88.5514 611.984 88.7223C611.761 88.8932 611.594 89.1226 611.481 89.4105C611.371 89.6984 611.316 90.0178 611.316 90.3686C611.316 90.7285 611.372 91.0467 611.485 91.3233C611.6 91.5977 611.768 91.8136 611.991 91.9711C612.216 92.1262 612.495 92.2038 612.828 92.2038ZM623.461 87.8182L621.545 93H620.735L618.819 87.8182H619.683L621.113 91.9474H621.167L622.597 87.8182H623.461ZM626.431 93.108C625.964 93.108 625.553 92.9966 625.2 92.774C624.849 92.5513 624.575 92.2398 624.377 91.8395C624.181 91.4392 624.083 90.9714 624.083 90.4361C624.083 89.8963 624.181 89.4251 624.377 89.0225C624.575 88.62 624.849 88.3074 625.2 88.0847C625.553 87.862 625.964 87.7507 626.431 87.7507C626.899 87.7507 627.309 87.862 627.659 88.0847C628.013 88.3074 628.287 88.62 628.483 89.0225C628.681 89.4251 628.779 89.8963 628.779 90.4361C628.779 90.9714 628.681 91.4392 628.483 91.8395C628.287 92.2398 628.013 92.5513 627.659 92.774C627.309 92.9966 626.899 93.108 626.431 93.108ZM626.431 92.3928C626.787 92.3928 627.079 92.3017 627.309 92.1195C627.538 91.9373 627.708 91.6978 627.818 91.4009C627.928 91.104 627.983 90.7824 627.983 90.4361C627.983 90.0897 627.928 89.767 627.818 89.4679C627.708 89.1687 627.538 88.927 627.309 88.7425C627.079 88.5581 626.787 88.4659 626.431 88.4659C626.076 88.4659 625.784 88.5581 625.554 88.7425C625.325 88.927 625.155 89.1687 625.045 89.4679C624.935 89.767 624.88 90.0897 624.88 90.4361C624.88 90.7824 624.935 91.104 625.045 91.4009C625.155 91.6978 625.325 91.9373 625.554 92.1195C625.784 92.3017 626.076 92.3928 626.431 92.3928ZM630.791 86.0909V93H629.995V86.0909H630.791ZM635.515 90.8814V87.8182H636.311V93H635.515V92.1229H635.461C635.339 92.386 635.15 92.6098 634.894 92.7942C634.638 92.9764 634.314 93.0675 633.922 93.0675C633.599 93.0675 633.311 92.9966 633.059 92.8549C632.807 92.711 632.609 92.4951 632.465 92.2072C632.321 91.9171 632.249 91.5516 632.249 91.1108V87.8182H633.045V91.0568C633.045 91.4347 633.151 91.736 633.362 91.9609C633.576 92.1858 633.848 92.2983 634.179 92.2983C634.377 92.2983 634.578 92.2477 634.783 92.1465C634.99 92.0453 635.163 91.8901 635.302 91.6809C635.444 91.4718 635.515 91.2053 635.515 90.8814ZM637.769 93V87.8182H638.538V88.6278H638.606C638.714 88.3512 638.888 88.1364 639.129 87.9835C639.369 87.8283 639.658 87.7507 639.996 87.7507C640.338 87.7507 640.622 87.8283 640.849 87.9835C641.079 88.1364 641.258 88.3512 641.386 88.6278H641.44C641.572 88.3602 641.771 88.1477 642.037 87.9902C642.302 87.8306 642.62 87.7507 642.992 87.7507C643.455 87.7507 643.834 87.8958 644.128 88.1859C644.423 88.4738 644.57 88.9225 644.57 89.532V93H643.774V89.532C643.774 89.1496 643.67 88.8764 643.46 88.7122C643.251 88.548 643.005 88.4659 642.722 88.4659C642.357 88.4659 642.075 88.5761 641.875 88.7965C641.675 89.0147 641.575 89.2913 641.575 89.6264V93H640.765V89.451C640.765 89.1564 640.669 88.9191 640.478 88.7392C640.287 88.557 640.041 88.4659 639.739 88.4659C639.532 88.4659 639.339 88.521 639.159 88.6312C638.981 88.7414 638.838 88.8944 638.727 89.09C638.619 89.2834 638.565 89.5072 638.565 89.7614V93H637.769ZM648.199 93.108C647.699 93.108 647.269 92.9978 646.907 92.7773C646.547 92.5547 646.269 92.2443 646.073 91.8462C645.88 91.4459 645.783 90.9804 645.783 90.4496C645.783 89.9188 645.88 89.451 646.073 89.0462C646.269 88.6391 646.541 88.322 646.89 88.0948C647.241 87.8654 647.65 87.7507 648.118 87.7507C648.388 87.7507 648.654 87.7957 648.917 87.8857C649.18 87.9756 649.42 88.1218 649.636 88.3242C649.852 88.5244 650.024 88.7898 650.152 89.1204C650.28 89.451 650.344 89.8581 650.344 90.3416V90.679H646.35V89.9908H649.535C649.535 89.6984 649.476 89.4375 649.359 89.2081C649.244 88.9787 649.08 88.7976 648.867 88.665C648.655 88.5323 648.406 88.4659 648.118 88.4659C647.801 88.4659 647.526 88.5446 647.295 88.7021C647.065 88.8572 646.889 89.0597 646.765 89.3093C646.641 89.5589 646.579 89.8266 646.579 90.1122V90.571C646.579 90.9624 646.647 91.2941 646.782 91.5662C646.919 91.8361 647.109 92.0419 647.352 92.1836C647.595 92.323 647.877 92.3928 648.199 92.3928C648.408 92.3928 648.597 92.3635 648.765 92.305C648.936 92.2443 649.084 92.1544 649.207 92.0352C649.331 91.9137 649.427 91.763 649.494 91.5831L650.263 91.799C650.182 92.0599 650.046 92.2893 649.855 92.4872C649.664 92.6829 649.428 92.8358 649.147 92.946C648.865 93.054 648.549 93.108 648.199 93.108ZM656.332 93.108C655.865 93.108 655.454 92.9966 655.101 92.774C654.75 92.5513 654.476 92.2398 654.278 91.8395C654.082 91.4392 653.984 90.9714 653.984 90.4361C653.984 89.8963 654.082 89.4251 654.278 89.0225C654.476 88.62 654.75 88.3074 655.101 88.0847C655.454 87.862 655.865 87.7507 656.332 87.7507C656.8 87.7507 657.209 87.862 657.56 88.0847C657.913 88.3074 658.188 88.62 658.383 89.0225C658.581 89.4251 658.68 89.8963 658.68 90.4361C658.68 90.9714 658.581 91.4392 658.383 91.8395C658.188 92.2398 657.913 92.5513 657.56 92.774C657.209 92.9966 656.8 93.108 656.332 93.108ZM656.332 92.3928C656.688 92.3928 656.98 92.3017 657.209 92.1195C657.439 91.9373 657.609 91.6978 657.719 91.4009C657.829 91.104 657.884 90.7824 657.884 90.4361C657.884 90.0897 657.829 89.767 657.719 89.4679C657.609 89.1687 657.439 88.927 657.209 88.7425C656.98 88.5581 656.688 88.4659 656.332 88.4659C655.977 88.4659 655.685 88.5581 655.455 88.7425C655.226 88.927 655.056 89.1687 654.946 89.4679C654.836 89.767 654.78 90.0897 654.78 90.4361C654.78 90.7824 654.836 91.104 654.946 91.4009C655.056 91.6978 655.226 91.9373 655.455 92.1195C655.685 92.3017 655.977 92.3928 656.332 92.3928ZM660.692 89.8828V93H659.896V87.8182H660.665V88.6278H660.732C660.854 88.3647 661.038 88.1533 661.286 87.9936C661.533 87.8317 661.852 87.7507 662.244 87.7507C662.595 87.7507 662.902 87.8227 663.165 87.9666C663.428 88.1083 663.632 88.3242 663.779 88.6143C663.925 88.9022 663.998 89.2666 663.998 89.7074V93H663.202V89.7614C663.202 89.3543 663.096 89.0372 662.885 88.81C662.673 88.5806 662.383 88.4659 662.014 88.4659C661.76 88.4659 661.533 88.521 661.333 88.6312C661.135 88.7414 660.979 88.9022 660.864 89.1136C660.749 89.325 660.692 89.5814 660.692 89.8828ZM673.792 88.25H672.956C672.906 88.0094 672.82 87.7979 672.696 87.6158C672.574 87.4336 672.426 87.2807 672.251 87.157C672.077 87.031 671.885 86.9366 671.674 86.8736C671.462 86.8106 671.242 86.7791 671.012 86.7791C670.594 86.7791 670.215 86.8848 669.876 87.0962C669.538 87.3076 669.269 87.6191 669.069 88.0307C668.871 88.4423 668.772 88.9472 668.772 89.5455C668.772 90.1437 668.871 90.6486 669.069 91.0602C669.269 91.4718 669.538 91.7833 669.876 91.9947C670.215 92.2061 670.594 92.3118 671.012 92.3118C671.242 92.3118 671.462 92.2803 671.674 92.2173C671.885 92.1544 672.077 92.061 672.251 91.9373C672.426 91.8114 672.574 91.6573 672.696 91.4751C672.82 91.2907 672.906 91.0793 672.956 90.8409H673.792C673.729 91.194 673.615 91.51 673.448 91.7889C673.282 92.0678 673.075 92.305 672.827 92.5007C672.58 92.6941 672.302 92.8414 671.994 92.9426C671.688 93.0439 671.361 93.0945 671.012 93.0945C670.423 93.0945 669.899 92.9505 669.44 92.6626C668.982 92.3748 668.621 91.9654 668.357 91.4347C668.094 90.9039 667.963 90.2741 667.963 89.5455C667.963 88.8168 668.094 88.187 668.357 87.6562C668.621 87.1255 668.982 86.7161 669.44 86.4283C669.899 86.1404 670.423 85.9964 671.012 85.9964C671.361 85.9964 671.688 86.0471 671.994 86.1483C672.302 86.2495 672.58 86.3979 672.827 86.5936C673.075 86.787 673.282 87.0231 673.448 87.302C673.615 87.5787 673.729 87.8946 673.792 88.25ZM675.036 93V87.8182H675.805V88.6009H675.859C675.954 88.3445 676.125 88.1364 676.372 87.9767C676.62 87.8171 676.899 87.7372 677.209 87.7372C677.267 87.7372 677.34 87.7383 677.428 87.7406C677.516 87.7428 677.582 87.7462 677.627 87.7507V88.5604C677.6 88.5536 677.538 88.5435 677.442 88.53C677.347 88.5143 677.247 88.5064 677.141 88.5064C676.89 88.5064 676.665 88.5592 676.467 88.665C676.271 88.7684 676.116 88.9123 676.001 89.0968C675.889 89.2789 675.832 89.487 675.832 89.7209V93H675.036ZM679.241 94.9432C679.107 94.9432 678.986 94.9319 678.881 94.9094C678.775 94.8892 678.702 94.869 678.661 94.8487L678.864 94.147C679.057 94.1965 679.228 94.2145 679.376 94.201C679.525 94.1875 679.656 94.1212 679.771 94.002C679.888 93.885 679.995 93.695 680.092 93.4318L680.24 93.027L678.324 87.8182H679.188L680.618 91.9474H680.672L682.102 87.8182H682.966L680.766 93.7557C680.667 94.0233 680.545 94.2449 680.399 94.4203C680.252 94.598 680.083 94.7295 679.889 94.815C679.698 94.9004 679.482 94.9432 679.241 94.9432ZM684.017 94.9432V87.8182H684.786V88.6413H684.88C684.939 88.5514 685.02 88.4367 685.123 88.2972C685.229 88.1555 685.38 88.0296 685.575 87.9194C685.773 87.8069 686.041 87.7507 686.378 87.7507C686.815 87.7507 687.199 87.8598 687.532 88.0779C687.865 88.2961 688.125 88.6054 688.311 89.0057C688.498 89.406 688.591 89.8783 688.591 90.4226C688.591 90.9714 688.498 91.447 688.311 91.8496C688.125 92.2499 687.866 92.5603 687.535 92.7807C687.205 92.9989 686.824 93.108 686.392 93.108C686.059 93.108 685.792 93.0529 685.592 92.9426C685.392 92.8302 685.238 92.7031 685.13 92.5614C685.022 92.4175 684.939 92.2983 684.88 92.2038H684.813V94.9432H684.017ZM684.799 90.4091C684.799 90.8004 684.857 91.1457 684.972 91.4448C685.086 91.7417 685.254 91.9744 685.474 92.1431C685.695 92.3095 685.964 92.3928 686.284 92.3928C686.617 92.3928 686.894 92.305 687.117 92.1296C687.342 91.9519 687.511 91.7135 687.623 91.4144C687.738 91.113 687.795 90.7779 687.795 90.4091C687.795 90.0447 687.739 89.7164 687.627 89.424C687.516 89.1294 687.349 88.8966 687.124 88.7257C686.901 88.5525 686.621 88.4659 686.284 88.4659C685.96 88.4659 685.688 88.548 685.467 88.7122C685.247 88.8741 685.081 89.1013 684.968 89.3936C684.856 89.6838 684.799 90.0223 684.799 90.4091ZM692.059 87.8182V88.4929H689.374V87.8182H692.059ZM690.157 86.5767H690.953V91.5156C690.953 91.7405 690.985 91.9092 691.051 92.0217C691.118 92.1319 691.204 92.2061 691.307 92.2443C691.413 92.2803 691.524 92.2983 691.641 92.2983C691.729 92.2983 691.801 92.2938 691.857 92.2848C691.913 92.2736 691.958 92.2646 691.992 92.2578L692.154 92.973C692.1 92.9933 692.025 93.0135 691.928 93.0337C691.831 93.0562 691.709 93.0675 691.56 93.0675C691.335 93.0675 691.115 93.0191 690.899 92.9224C690.685 92.8257 690.508 92.6784 690.366 92.4805C690.226 92.2826 690.157 92.0329 690.157 91.7315V86.5767ZM695.306 93.108C694.839 93.108 694.428 92.9966 694.075 92.774C693.724 92.5513 693.45 92.2398 693.252 91.8395C693.056 91.4392 692.958 90.9714 692.958 90.4361C692.958 89.8963 693.056 89.4251 693.252 89.0225C693.45 88.62 693.724 88.3074 694.075 88.0847C694.428 87.862 694.839 87.7507 695.306 87.7507C695.774 87.7507 696.184 87.862 696.534 88.0847C696.888 88.3074 697.162 88.62 697.358 89.0225C697.556 89.4251 697.654 89.8963 697.654 90.4361C697.654 90.9714 697.556 91.4392 697.358 91.8395C697.162 92.2398 696.888 92.5513 696.534 92.774C696.184 92.9966 695.774 93.108 695.306 93.108ZM695.306 92.3928C695.662 92.3928 695.954 92.3017 696.184 92.1195C696.413 91.9373 696.583 91.6978 696.693 91.4009C696.803 91.104 696.858 90.7824 696.858 90.4361C696.858 90.0897 696.803 89.767 696.693 89.4679C696.583 89.1687 696.413 88.927 696.184 88.7425C695.954 88.5581 695.662 88.4659 695.306 88.4659C694.951 88.4659 694.659 88.5581 694.429 88.7425C694.2 88.927 694.03 89.1687 693.92 89.4679C693.81 89.767 693.755 90.0897 693.755 90.4361C693.755 90.7824 693.81 91.104 693.92 91.4009C694.03 91.6978 694.2 91.9373 694.429 92.1195C694.659 92.3017 694.951 92.3928 695.306 92.3928Z" fill="url(#paint11_linear_22_268)"/>
<defs>
<linearGradient id="paint0_linear_22_268" x1="87.7166" y1="65.367" x2="291.098" y2="65.367" gradientUnits="userSpaceOnUse">
<stop stop-color="#1E2F41"/>
<stop offset="1" stop-color="#1E2F41" stop-opacity="0"/>
</linearGradient>
<linearGradient id="paint1_linear_22_268" x1="30" y1="-5.5" x2="115" y2="65" gradientUnits="userSpaceOnUse">
<stop stop-color="#259EFA"/>
<stop offset="1" stop-color="#347E8E" stop-opacity="0"/>
</linearGradient>
<linearGradient id="paint2_linear_22_268" x1="74.0378" y1="56" x2="259.744" y2="53.3224" gradientUnits="userSpaceOnUse">
<stop stop-color="#4C76C9"/>
<stop offset="0.463542" stop-color="#29C4A8" stop-opacity="0.536458"/>
<stop offset="1" stop-color="white" stop-opacity="0"/>
</linearGradient>
<linearGradient id="paint3_linear_22_268" x1="97.2311" y1="89.0492" x2="212.597" y2="83.3056" gradientUnits="userSpaceOnUse">
<stop stop-color="#4C76C9"/>
<stop offset="0.463542" stop-color="#29C4A8" stop-opacity="0.536458"/>
<stop offset="1" stop-color="white" stop-opacity="0"/>
</linearGradient>
<linearGradient id="paint4_linear_22_268" x1="376" y1="124" x2="379.5" y2="-34" gradientUnits="userSpaceOnUse">
<stop stop-color="#1E2F41"/>
<stop offset="1" stop-color="#1E2F41" stop-opacity="0"/>
</linearGradient>
<linearGradient id="paint5_linear_22_268" x1="277" y1="130" x2="336.5" y2="18" gradientUnits="userSpaceOnUse">
<stop stop-color="#259EFA"/>
<stop offset="1" stop-color="#347E8E" stop-opacity="0"/>
</linearGradient>
<linearGradient id="paint6_linear_22_268" x1="311.718" y1="56" x2="504.429" y2="53.1165" gradientUnits="userSpaceOnUse">
<stop stop-color="#4C76C9"/>
<stop offset="0.463542" stop-color="#29C4A8" stop-opacity="0.536458"/>
<stop offset="1" stop-color="white" stop-opacity="0"/>
</linearGradient>
<linearGradient id="paint7_linear_22_268" x1="354.353" y1="89.0492" x2="419.72" y2="87.2083" gradientUnits="userSpaceOnUse">
<stop stop-color="#4C76C9"/>
<stop offset="0.463542" stop-color="#29C4A8" stop-opacity="0.536458"/>
<stop offset="1" stop-color="white" stop-opacity="0"/>
</linearGradient>
<linearGradient id="paint8_linear_22_268" x1="753" y1="65" x2="483" y2="65" gradientUnits="userSpaceOnUse">
<stop stop-color="#1E2F41"/>
<stop offset="1" stop-color="#1E2F41" stop-opacity="0"/>
</linearGradient>
<linearGradient id="paint9_linear_22_268" x1="727" y1="114.5" x2="574.5" y2="-21.5" gradientUnits="userSpaceOnUse">
<stop stop-color="#259EFA"/>
<stop offset="0.484375" stop-color="#2C8FC6" stop-opacity="0.515625"/>
<stop offset="1" stop-color="#347E8E" stop-opacity="0"/>
</linearGradient>
<linearGradient id="paint10_linear_22_268" x1="549.597" y1="56" x2="792.497" y2="51.4184" gradientUnits="userSpaceOnUse">
<stop stop-color="#4C76C9"/>
<stop offset="0.463542" stop-color="#29C4A8" stop-opacity="0.536458"/>
<stop offset="1" stop-color="white" stop-opacity="0"/>
</linearGradient>
<linearGradient id="paint11_linear_22_268" x1="579.315" y1="89.0492" x2="736.299" y2="78.3917" gradientUnits="userSpaceOnUse">
<stop stop-color="#4C76C9"/>
<stop offset="0.463542" stop-color="#29C4A8" stop-opacity="0.536458"/>
<stop offset="1" stop-color="white" stop-opacity="0"/>
</linearGradient>
</defs>
</svg>
