<svg width="40" height="40" viewBox="0 0 40 40" fill="none" xmlns="http://www.w3.org/2000/svg">
<g clip-path="url(#clip0_1_10071)">
<path d="M20 40C31.0457 40 40 31.0457 40 20C40 8.95431 31.0457 0 20 0C8.95431 0 0 8.95431 0 20C0 31.0457 8.95431 40 20 40Z" fill="#54C0EB"/>
<path d="M23.9133 23.882C26.3149 22.5198 27.9291 19.9371 27.9291 16.9844C27.9291 12.5985 24.3779 9.04736 19.9921 9.04736C15.6062 9.04736 12.0629 12.5985 12.0629 16.9765C12.0629 19.9371 13.685 22.5119 16.0787 23.8741C11.1023 25.1419 7.06292 28.7403 5.19678 33.4489C8.85819 37.4726 14.1338 40.0001 19.9999 40.0001C25.8661 40.0001 31.1417 37.4726 34.8031 33.4489C32.9369 28.7403 28.8976 25.1419 23.9133 23.882Z" fill="white"/>
<path d="M31.6222 14.3542H30.3781C29.2049 9.7164 25.0001 6.26758 20.0001 6.26758C15.0001 6.26758 10.7954 9.70852 9.62219 14.3542H8.3781C7.9529 14.3542 7.60645 14.7006 7.60645 15.1258V18.8975C7.60645 19.3227 7.9529 19.6692 8.3781 19.6692H9.9529C10.4332 19.6692 10.8033 19.2361 10.7167 18.7715C10.5592 17.9526 10.5041 17.0943 10.5749 16.2125C10.9529 11.5432 14.7954 7.79514 19.4805 7.54317C24.9293 7.24396 29.4647 11.5983 29.4647 16.9841C29.4647 17.5983 29.4017 18.1888 29.2915 18.7715C29.197 19.244 29.5749 19.677 30.0474 19.677H30.1891C29.8584 20.7006 29.0159 22.6062 27.1734 23.6298C25.6301 24.488 23.6852 24.5668 21.3938 23.8503C21.2757 23.3227 20.6931 22.7006 20.0946 22.4093C19.323 22.0235 18.8427 22.3463 18.5671 22.8975C18.2915 23.4487 18.3309 24.0235 19.0946 24.4093C19.7718 24.7479 20.7954 24.8188 21.2206 24.4487C22.3151 24.7873 23.3387 24.9605 24.2915 24.9605C25.4726 24.9605 26.5356 24.7006 27.4726 24.1731C29.6379 22.9684 30.5277 20.7321 30.8427 19.6692H31.6222C32.0474 19.6692 32.3938 19.3227 32.3938 18.8975V15.1258C32.3938 14.7006 32.0474 14.3542 31.6222 14.3542Z" fill="#324A5E"/>
</g>
<defs>
<clipPath id="clip0_1_10071">
<rect width="40" height="40" fill="white"/>
</clipPath>
</defs>
</svg>
