<svg width="9" height="9" viewBox="0 0 9 9" fill="none" xmlns="http://www.w3.org/2000/svg">
<path fill-rule="evenodd" clip-rule="evenodd" d="M1.10607 3.53893L3.00027 4.88784L4.67716 3.20941C4.81981 3.06663 5.05551 3.07083 5.20361 3.2188C5.35171 3.36676 5.35613 3.60246 5.21349 3.74524L3.5366 5.42367L4.88724 7.31662L7.24563 1.1749L1.10607 3.53893ZM2.78902 5.63561L0.568553 4.05436C0.389048 3.92653 0.279819 3.72156 0.275756 3.50493C0.270653 3.23273 0.431785 2.99091 0.682623 2.89432L7.35197 0.3263C7.55854 0.246774 7.79721 0.299805 7.95872 0.461159C8.12022 0.622509 8.17347 0.861134 8.09413 1.06778L5.53223 7.73947C5.4359 7.99042 5.1942 8.15175 4.92203 8.14693C4.70536 8.14304 4.5003 8.034 4.37231 7.85462L2.78902 5.63561Z" fill="white"/>
</svg>
