<svg width="14" height="16" viewBox="0 0 14 16" fill="none" xmlns="http://www.w3.org/2000/svg">
<path d="M4.33703 1.59C3.38462 1.85248 2.43868 2.1379 1.50003 2.446C1.41432 2.47376 1.33813 2.52504 1.28014 2.59399C1.22215 2.66295 1.18469 2.7468 1.17203 2.836C0.618029 6.993 1.89803 10.026 3.42503 12.024C4.07154 12.8784 4.84244 13.6311 5.71203 14.257C6.05803 14.501 6.36403 14.677 6.60503 14.79C6.72503 14.847 6.82303 14.885 6.89803 14.908C6.93083 14.9195 6.96465 14.9279 6.99903 14.933C7.033 14.9275 7.06645 14.9191 7.09903 14.908C7.17503 14.885 7.27303 14.847 7.39303 14.79C7.63303 14.677 7.94003 14.5 8.28603 14.257C9.15561 13.6311 9.9265 12.8784 10.573 12.024C12.1 10.027 13.38 6.993 12.826 2.836C12.8135 2.74676 12.7761 2.66285 12.7181 2.59388C12.6601 2.52491 12.5838 2.47366 12.498 2.446C11.847 2.233 10.748 1.886 9.66103 1.591C8.55103 1.29 7.53003 1.067 6.99903 1.067C6.46903 1.067 5.44703 1.289 4.33703 1.59ZM4.07103 0.56C5.15603 0.265 6.30903 0 6.99903 0C7.68903 0 8.84203 0.265 9.92703 0.56C11.037 0.86 12.156 1.215 12.814 1.43C13.0891 1.52085 13.333 1.68747 13.5177 1.9107C13.7024 2.13394 13.8203 2.40474 13.858 2.692C14.454 7.169 13.071 10.487 11.393 12.682C10.6815 13.621 9.83302 14.4479 8.87603 15.135C8.54512 15.3728 8.19451 15.5819 7.82803 15.76C7.54803 15.892 7.24703 16 6.99903 16C6.75103 16 6.45103 15.892 6.17003 15.76C5.80354 15.5819 5.45294 15.3728 5.12203 15.135C4.16506 14.4478 3.31661 13.621 2.60503 12.682C0.927029 10.487 -0.455971 7.169 0.140029 2.692C0.177716 2.40474 0.295672 2.13394 0.480346 1.9107C0.66502 1.68747 0.90892 1.52085 1.18403 1.43C2.13922 1.11681 3.10183 0.826725 4.07103 0.56Z" fill="white"/>
<path d="M8.49903 6.5C8.49919 6.81033 8.4031 7.11306 8.224 7.36649C8.0449 7.61992 7.79161 7.81156 7.49903 7.915L7.88403 9.905C7.89804 9.97738 7.89586 10.052 7.87767 10.1234C7.85947 10.1948 7.82571 10.2614 7.77878 10.3182C7.73186 10.3751 7.67295 10.4209 7.60626 10.4523C7.53957 10.4837 7.46675 10.5 7.39303 10.5H6.60503C6.53139 10.4999 6.45869 10.4835 6.39212 10.452C6.32556 10.4205 6.26677 10.3747 6.21996 10.3179C6.17314 10.261 6.13946 10.1945 6.12133 10.1232C6.10319 10.0518 6.10104 9.9773 6.11503 9.905L6.49903 7.915C6.23979 7.82335 6.01073 7.6622 5.83688 7.44916C5.66304 7.23613 5.55109 6.97941 5.51328 6.70706C5.47547 6.43471 5.51324 6.1572 5.62248 5.90487C5.73172 5.65253 5.90822 5.43508 6.13268 5.27627C6.35715 5.11746 6.62095 5.0234 6.89525 5.00438C7.16956 4.98536 7.44382 5.0421 7.68806 5.1684C7.9323 5.29471 8.13712 5.48572 8.28014 5.72056C8.42316 5.9554 8.49889 6.22504 8.49903 6.5Z" fill="white"/>
</svg>
