<svg width="22" height="22" viewBox="0 0 22 22" fill="none" xmlns="http://www.w3.org/2000/svg">
<path d="M11 20.625C8.44729 20.625 5.99914 19.6109 4.1941 17.8059C2.38906 16.0009 1.375 13.5527 1.375 11C1.375 8.44729 2.38906 5.99913 4.1941 4.1941C5.99914 2.38906 8.44729 1.375 11 1.375C13.5527 1.375 16.0009 2.38906 17.8059 4.1941C19.6109 5.99913 20.625 8.44729 20.625 11C20.625 13.5527 19.6109 16.0009 17.8059 17.8059C16.0009 19.6109 13.5527 20.625 11 20.625ZM11 22C13.9174 22 16.7153 20.8411 18.7782 18.7782C20.8411 16.7153 22 13.9174 22 11C22 8.08262 20.8411 5.28473 18.7782 3.22183C16.7153 1.15893 13.9174 0 11 0C8.08262 0 5.28473 1.15893 3.22183 3.22183C1.15893 5.28473 0 8.08262 0 11C0 13.9174 1.15893 16.7153 3.22183 18.7782C5.28473 20.8411 8.08262 22 11 22Z" fill="white"/>
<path d="M9.62775 15.125C9.62775 14.9444 9.66332 14.7656 9.73242 14.5988C9.80152 14.432 9.9028 14.2804 10.0305 14.1527C10.1582 14.025 10.3097 13.9238 10.4766 13.8547C10.6434 13.7856 10.8222 13.75 11.0028 13.75C11.1833 13.75 11.3621 13.7856 11.5289 13.8547C11.6958 13.9238 11.8473 14.025 11.975 14.1527C12.1027 14.2804 12.204 14.432 12.2731 14.5988C12.3422 14.7656 12.3778 14.9444 12.3778 15.125C12.3778 15.4897 12.2329 15.8394 11.975 16.0973C11.7172 16.3551 11.3674 16.5 11.0028 16.5C10.6381 16.5 10.2883 16.3551 10.0305 16.0973C9.77262 15.8394 9.62775 15.4897 9.62775 15.125ZM9.7625 6.86812C9.74419 6.69466 9.76255 6.51928 9.8164 6.35336C9.87025 6.18745 9.95837 6.03471 10.0751 5.90506C10.1918 5.7754 10.3344 5.67173 10.4937 5.60076C10.6531 5.5298 10.8256 5.49312 11 5.49312C11.1744 5.49312 11.3469 5.5298 11.5063 5.60076C11.6656 5.67173 11.8082 5.7754 11.9249 5.90506C12.0416 6.03471 12.1298 6.18745 12.1836 6.35336C12.2374 6.51928 12.2558 6.69466 12.2375 6.86812L11.7563 11.6902C11.7401 11.8797 11.6534 12.0562 11.5134 12.1847C11.3733 12.3133 11.1901 12.3847 11 12.3847C10.8099 12.3847 10.6267 12.3133 10.4866 12.1847C10.3466 12.0562 10.2599 11.8797 10.2438 11.6902L9.7625 6.86812Z" fill="white"/>
</svg>
