<svg width="12" height="12" viewBox="0 0 12 12" fill="none" xmlns="http://www.w3.org/2000/svg">
<path fill-rule="evenodd" clip-rule="evenodd" d="M9 10.5C9 10.8978 8.84196 11.2794 8.56066 11.5607C8.27936 11.842 7.89782 12 7.5 12H1.5C1.10218 12 0.720645 11.842 0.439341 11.5607C0.158035 11.2794 0 10.8978 0 10.5V4.5C0 4.10218 0.158035 3.72064 0.439341 3.43934C0.720645 3.15804 1.10218 3 1.5 3H7.5C7.89782 3 8.27936 3.15804 8.56066 3.43934C8.84196 3.72064 9 4.10218 9 4.5V10.5ZM7.5 11.25C7.69891 11.25 7.88968 11.171 8.03033 11.0303C8.17098 10.8897 8.25 10.6989 8.25 10.5V4.5C8.25 4.30109 8.17098 4.11032 8.03033 3.96967C7.88968 3.82902 7.69891 3.75 7.5 3.75H1.5C1.30109 3.75 1.11032 3.82902 0.96967 3.96967C0.829018 4.11032 0.75 4.30109 0.75 4.5V10.5C0.75 10.6989 0.829018 10.8897 0.96967 11.0303C1.11032 11.171 1.30109 11.25 1.5 11.25H7.5ZM10.5 8.25C10.6989 8.25 10.8897 8.17098 11.0303 8.03033C11.171 7.88968 11.25 7.69891 11.25 7.5V1.5C11.25 1.30109 11.171 1.11032 11.0303 0.96967C10.8897 0.829018 10.6989 0.75 10.5 0.75H4.5C4.30109 0.75 4.11032 0.829018 3.96967 0.96967C3.82902 1.11032 3.75 1.30109 3.75 1.5V2.25H3V1.5C3 1.10218 3.15804 0.720645 3.43934 0.439341C3.72064 0.158035 4.10218 0 4.5 0H10.5C10.8978 0 11.2794 0.158035 11.5607 0.439341C11.842 0.720645 12 1.10218 12 1.5V7.5C12 7.89782 11.842 8.27936 11.5607 8.56066C11.2794 8.84196 10.8978 9 10.5 9H9.75V8.25H10.5Z" fill="white"/>
</svg>
