<svg width="13" height="12" viewBox="0 0 13 12" fill="none" xmlns="http://www.w3.org/2000/svg">
<path d="M6.41261 0.793361C6.36566 0.83092 5.83984 1.41309 5.24359 2.0915C4.64969 2.7699 4.13325 3.35207 4.09804 3.38963L4.03466 3.45301L2.79286 2.44361C1.90318 1.7206 1.52524 1.42717 1.46186 1.40839C1.23181 1.34736 0.99707 1.52811 0.99707 1.7652C0.99707 1.80511 1.1614 4.78401 1.46186 6.58684C1.76232 8.38967 1.91489 9.92255 1.94775 9.96715C1.97357 10 2.02756 10.0493 2.06982 10.0775L2.14728 10.1315H6.49943C9.67082 10.1315 10.8657 10.1244 10.9032 10.1057C10.9901 10.061 11.0816 9.96246 11.1075 9.88734C11.1427 9.77701 12.2648 1.84736 12.2648 1.75112C12.2648 1.49759 11.976 1.31449 11.7554 1.42717C11.7061 1.45064 11.1286 1.90839 10.469 2.44126C9.8117 2.97648 9.26005 3.42249 9.24362 3.43423C9.22484 3.44831 8.86568 3.05394 8.07694 2.15722C7.44783 1.4436 6.89618 0.83092 6.84923 0.793361C6.78116 0.741718 6.74125 0.72998 6.63092 0.72998C6.52059 0.72998 6.48303 0.741718 6.41261 0.793361ZM7.7929 2.97178C8.42906 3.6948 8.96428 4.28166 9.00653 4.30278C9.084 4.34504 9.20372 4.35677 9.30231 4.3286C9.33282 4.32156 9.80466 3.95301 10.3469 3.5117C10.8915 3.06803 11.3399 2.70887 11.3422 2.71122C11.3469 2.71357 11.1709 3.71592 10.8328 7.15727L10.4408 9.38029H2.57217L2.2177 6.58684C1.91961 2.71122 1.91492 2.71357 1.91961 2.71122C1.92196 2.70652 2.37032 3.06803 2.91493 3.50935C3.45953 3.95301 3.92902 4.32156 3.95954 4.33095C4.05344 4.35443 4.16846 4.34738 4.24592 4.30982C4.29287 4.28635 4.74593 3.79104 5.47129 2.97178C6.10275 2.25582 6.62623 1.6713 6.63562 1.676C6.64501 1.67835 7.16614 2.26051 7.7929 2.97178Z" fill="white"/>
<path d="M2.18719 10.5751C1.94305 10.7042 1.91489 11.0399 2.13554 11.2066L2.2177 11.27H6.50647H10.7952L10.8774 11.2066C11.0981 11.0399 11.0699 10.7042 10.8258 10.5751C10.7483 10.5329 10.5863 10.5305 6.50647 10.5305C2.42663 10.5305 2.26465 10.5329 2.18719 10.5751Z" fill="white"/>
<path d="M3.84345 7.75821C3.59931 7.88732 3.57115 8.22301 3.7918 8.38967L3.87396 8.45305L6.87872 8.48357H9.16146L9.24362 8.42019C9.46428 8.25352 9.43611 7.91784 9.19198 7.78873C9.11451 7.74648 8.95252 7.7345 6.87872 7.74413C3.84345 7.75821 3.92091 7.71596 3.84345 7.75821Z" fill="white"/>
</svg>
