<svg width="32" height="32" viewBox="0 0 32 32" fill="none" xmlns="http://www.w3.org/2000/svg">
<path d="M32 22.5C32 27.7467 27.7467 32 22.5 32C17.2533 32 13 27.7467 13 22.5C13 17.2533 17.2533 13 22.5 13C27.7467 13 32 17.2533 32 22.5Z" fill="#FFB800" fill-opacity="0.72"/>
<path d="M13 9.5C13 13.0899 10.0899 16 6.5 16C2.91015 16 0 13.0899 0 9.5C0 5.91015 2.91015 3 6.5 3C10.0899 3 13 5.91015 13 9.5Z" fill="#FFB800" fill-opacity="0.72"/>
<path d="M11.3125 17.8331C11.455 19.6219 12.8688 21.015 15.4038 21.18V22.5H16.5287V21.1706C19.1537 20.9869 20.6875 19.5844 20.6875 17.5481C20.6875 15.6975 19.5138 14.7431 17.4156 14.2481L16.5287 14.0381V10.4438C17.6537 10.5712 18.37 11.1862 18.5425 12.0375H20.515C20.3725 10.3144 18.895 8.96625 16.5287 8.82V7.5H15.4038V8.84812C13.1631 9.0675 11.635 10.4156 11.635 12.3225C11.635 14.01 12.7712 15.0825 14.6594 15.5231L15.4038 15.7069V19.5206C14.2506 19.3463 13.4875 18.7144 13.315 17.8331H11.3125ZM15.3944 13.7719C14.2881 13.515 13.6881 12.9919 13.6881 12.2044C13.6881 11.3231 14.335 10.6631 15.4038 10.47V13.77L15.3944 13.7719ZM16.6919 16.0088C18.0363 16.32 18.6569 16.8244 18.6569 17.715C18.6569 18.7313 17.8844 19.4288 16.5287 19.5563V15.9712L16.6919 16.0088Z" fill="white"/>
<path d="M16 28.125C12.519 28.125 9.18064 26.7422 6.71922 24.2808C4.25781 21.8194 2.875 18.481 2.875 15C2.875 11.519 4.25781 8.18064 6.71922 5.71922C9.18064 3.25781 12.519 1.875 16 1.875C19.481 1.875 22.8194 3.25781 25.2808 5.71922C27.7422 8.18064 29.125 11.519 29.125 15C29.125 18.481 27.7422 21.8194 25.2808 24.2808C22.8194 26.7422 19.481 28.125 16 28.125ZM16 30C19.9782 30 23.7936 28.4196 26.6066 25.6066C29.4196 22.7936 31 18.9782 31 15C31 11.0218 29.4196 7.20644 26.6066 4.3934C23.7936 1.58035 19.9782 0 16 0C12.0218 0 8.20644 1.58035 5.3934 4.3934C2.58035 7.20644 1 11.0218 1 15C1 18.9782 2.58035 22.7936 5.3934 25.6066C8.20644 28.4196 12.0218 30 16 30Z" fill="white"/>
</svg>
