<svg width="17" height="16" viewBox="0 0 17 16" fill="none" xmlns="http://www.w3.org/2000/svg">
<path d="M14.2629 0.999804C14.5281 0.999804 14.7824 1.10514 14.9699 1.29264C15.1574 1.48014 15.2627 1.73444 15.2627 1.99961V9.99804C15.2627 10.2632 15.1574 10.5175 14.9699 10.705C14.7824 10.8925 14.5281 10.9978 14.2629 10.9978H11.7634C11.4529 10.9978 11.1468 11.0701 10.8691 11.209C10.5915 11.3478 10.3499 11.5493 10.1637 11.7977L8.26406 14.3302L6.36443 11.7977C6.17817 11.5493 5.93665 11.3478 5.659 11.209C5.38134 11.0701 5.07517 10.9978 4.76475 10.9978H2.26523C2.00007 10.9978 1.74576 10.8925 1.55827 10.705C1.37077 10.5175 1.26543 10.2632 1.26543 9.99804V1.99961C1.26543 1.73444 1.37077 1.48014 1.55827 1.29264C1.74576 1.10514 2.00007 0.999804 2.26523 0.999804H14.2629ZM2.26523 0C1.7349 0 1.2263 0.210672 0.851297 0.585672C0.476297 0.960671 0.265625 1.46928 0.265625 1.99961L0.265625 9.99804C0.265625 10.5284 0.476297 11.037 0.851297 11.412C1.2263 11.787 1.7349 11.9977 2.26523 11.9977H4.76475C4.91996 11.9977 5.07304 12.0338 5.21187 12.1032C5.3507 12.1726 5.47146 12.2734 5.56459 12.3976L7.46422 14.9301C7.55735 15.0542 7.67811 15.155 7.81693 15.2244C7.95576 15.2939 8.10885 15.33 8.26406 15.33C8.41928 15.33 8.57236 15.2939 8.71119 15.2244C8.85001 15.155 8.97078 15.0542 9.0639 14.9301L10.9635 12.3976C11.0567 12.2734 11.1774 12.1726 11.3163 12.1032C11.4551 12.0338 11.6082 11.9977 11.7634 11.9977H14.2629C14.7932 11.9977 15.3018 11.787 15.6768 11.412C16.0518 11.037 16.2625 10.5284 16.2625 9.99804V1.99961C16.2625 1.46928 16.0518 0.960671 15.6768 0.585672C15.3018 0.210672 14.7932 0 14.2629 0L2.26523 0Z" fill="white"/>
<path d="M9.93623 2.81247C9.94791 2.77448 9.952 2.73456 9.94826 2.69499C9.94451 2.65542 9.93301 2.61698 9.91441 2.58186C9.89581 2.54673 9.87047 2.51561 9.83984 2.49028C9.80921 2.46495 9.7739 2.4459 9.73591 2.43422C9.69792 2.42253 9.658 2.41845 9.61843 2.42219C9.57886 2.42594 9.54041 2.43744 9.50529 2.45604C9.47016 2.47464 9.43905 2.49998 9.41372 2.53061C9.38838 2.56123 9.36933 2.59655 9.35765 2.63454L6.9368 10.5023C6.91321 10.579 6.92106 10.662 6.95863 10.7329C6.9962 10.8038 7.0604 10.8569 7.13713 10.8805C7.21385 10.9041 7.29681 10.8963 7.36775 10.8587C7.43868 10.8212 7.49179 10.7569 7.51539 10.6802L9.93623 2.81247ZM6.53252 4.3249C6.5607 4.353 6.58306 4.3864 6.59832 4.42316C6.61357 4.45993 6.62142 4.49934 6.62142 4.53914C6.62142 4.57894 6.61357 4.61836 6.59832 4.65512C6.58306 4.69188 6.5607 4.72528 6.53252 4.75339L4.62792 6.65738L6.53252 8.56137C6.58934 8.6182 6.62127 8.69526 6.62127 8.77562C6.62127 8.85598 6.58934 8.93304 6.53252 8.98986C6.4757 9.04669 6.39864 9.07861 6.31828 9.07861C6.23792 9.07861 6.16085 9.04669 6.10403 8.98986L3.98579 6.87162C3.95761 6.84351 3.93526 6.81012 3.92 6.77336C3.90475 6.73659 3.89689 6.69718 3.89689 6.65738C3.89689 6.61758 3.90475 6.57816 3.92 6.5414C3.93526 6.50464 3.95761 6.47124 3.98579 6.44313L6.10403 4.3249C6.13214 4.29671 6.16554 4.27436 6.2023 4.2591C6.23906 4.24385 6.27848 4.23599 6.31828 4.23599C6.35808 4.23599 6.39749 4.24385 6.43426 4.2591C6.47102 4.27436 6.50441 4.29671 6.53252 4.3249ZM10.3405 4.3249C10.3123 4.353 10.29 4.3864 10.2747 4.42316C10.2595 4.45993 10.2516 4.49934 10.2516 4.53914C10.2516 4.57894 10.2595 4.61836 10.2747 4.65512C10.29 4.69188 10.3123 4.72528 10.3405 4.75339L12.2451 6.65738L10.3405 8.56137C10.3124 8.58951 10.2901 8.62291 10.2748 8.65967C10.2596 8.69643 10.2518 8.73583 10.2518 8.77562C10.2518 8.81541 10.2596 8.85481 10.2748 8.89157C10.2901 8.92833 10.3124 8.96173 10.3405 8.98986C10.3686 9.018 10.402 9.04032 10.4388 9.05554C10.4756 9.07077 10.515 9.07861 10.5548 9.07861C10.5945 9.07861 10.6339 9.07077 10.6707 9.05554C10.7075 9.04032 10.7409 9.018 10.769 8.98986L12.8872 6.87162C12.9154 6.84351 12.9378 6.81012 12.953 6.77336C12.9683 6.73659 12.9761 6.69718 12.9761 6.65738C12.9761 6.61758 12.9683 6.57816 12.953 6.5414C12.9378 6.50464 12.9154 6.47124 12.8872 6.44313L10.769 4.3249C10.7409 4.29671 10.7075 4.27436 10.6707 4.2591C10.634 4.24385 10.5946 4.23599 10.5548 4.23599C10.515 4.23599 10.4755 4.24385 10.4388 4.2591C10.402 4.27436 10.3686 4.29671 10.3405 4.3249Z" fill="white"/>
</svg>
