<svg width="48" height="49" viewBox="0 0 48 49" fill="none" xmlns="http://www.w3.org/2000/svg">
<path d="M42 3.6305C42.7956 3.6305 43.5587 3.96032 44.1213 4.54741C44.6839 5.13449 45 5.93074 45 6.76101V31.805C45 32.6353 44.6839 33.4315 44.1213 34.0186C43.5587 34.6057 42.7956 34.9355 42 34.9355H34.5C33.5685 34.9355 32.6499 35.1618 31.8167 35.5965C30.9836 36.0312 30.2589 36.6623 29.7 37.4399L24 45.3695L18.3 37.4399C17.7411 36.6623 17.0164 36.0312 16.1833 35.5965C15.3501 35.1618 14.4315 34.9355 13.5 34.9355H6C5.20435 34.9355 4.44129 34.6057 3.87868 34.0186C3.31607 33.4315 3 32.6353 3 31.805V6.76101C3 5.93074 3.31607 5.13449 3.87868 4.54741C4.44129 3.96032 5.20435 3.6305 6 3.6305H42ZM6 0.5C4.4087 0.5 2.88258 1.15964 1.75736 2.33381C0.632141 3.50797 0 5.10048 0 6.76101L0 31.805C0 33.4655 0.632141 35.0581 1.75736 36.2322C2.88258 37.4064 4.4087 38.066 6 38.066H13.5C13.9657 38.066 14.4251 38.1792 14.8416 38.3965C15.2582 38.6139 15.6206 38.9294 15.9 39.3182L21.6 47.2478C21.8794 47.6366 22.2418 47.9522 22.6584 48.1695C23.0749 48.3868 23.5343 48.5 24 48.5C24.4657 48.5 24.9251 48.3868 25.3416 48.1695C25.7582 47.9522 26.1206 47.6366 26.4 47.2478L32.1 39.3182C32.3794 38.9294 32.7418 38.6139 33.1584 38.3965C33.5749 38.1792 34.0343 38.066 34.5 38.066H42C43.5913 38.066 45.1174 37.4064 46.2426 36.2322C47.3679 35.0581 48 33.4655 48 31.805V6.76101C48 5.10048 47.3679 3.50797 46.2426 2.33381C45.1174 1.15964 43.5913 0.5 42 0.5L6 0.5Z" fill="white"/>
<path d="M29.0175 9.30618C29.0525 9.18722 29.0648 9.06223 29.0536 8.93834C29.0423 8.81444 29.0078 8.69407 28.952 8.58409C28.8962 8.47411 28.8202 8.37668 28.7283 8.29736C28.6364 8.21804 28.5304 8.15839 28.4164 8.12181C28.3024 8.08523 28.1826 8.07243 28.0639 8.08416C27.9452 8.09588 27.8298 8.1319 27.7244 8.19014C27.619 8.24838 27.5257 8.32772 27.4496 8.42362C27.3736 8.51952 27.3165 8.6301 27.2814 8.74905L20.0175 33.3839C19.9467 33.6241 19.9702 33.8839 20.0829 34.106C20.1957 34.3281 20.3883 34.4944 20.6185 34.5682C20.8488 34.6421 21.0977 34.6175 21.3105 34.4999C21.5234 34.3823 21.6827 34.1812 21.7535 33.941L29.0175 9.30618ZM18.8044 14.0417C18.8889 14.1298 18.956 14.2343 19.0018 14.3494C19.0476 14.4645 19.0711 14.5879 19.0711 14.7126C19.0711 14.8372 19.0476 14.9606 19.0018 15.0757C18.956 15.1908 18.8889 15.2954 18.8044 15.3834L13.0895 21.345L18.8044 27.3067C18.9749 27.4846 19.0707 27.7259 19.0707 27.9775C19.0707 28.2291 18.9749 28.4704 18.8044 28.6483C18.6339 28.8262 18.4026 28.9262 18.1615 28.9262C17.9204 28.9262 17.6891 28.8262 17.5187 28.6483L11.1627 22.0159C11.0781 21.9278 11.011 21.8233 10.9653 21.7082C10.9195 21.5931 10.8959 21.4697 10.8959 21.345C10.8959 21.2204 10.9195 21.097 10.9653 20.9819C11.011 20.8668 11.0781 20.7622 11.1627 20.6742L17.5187 14.0417C17.603 13.9535 17.7032 13.8835 17.8135 13.8357C17.9238 13.788 18.0421 13.7634 18.1615 13.7634C18.2809 13.7634 18.3992 13.788 18.5095 13.8357C18.6198 13.8835 18.72 13.9535 18.8044 14.0417ZM30.2306 14.0417C30.146 14.1298 30.0789 14.2343 30.0332 14.3494C29.9874 14.4645 29.9638 14.5879 29.9638 14.7126C29.9638 14.8372 29.9874 14.9606 30.0332 15.0757C30.0789 15.1908 30.146 15.2954 30.2306 15.3834L35.9455 21.345L30.2306 27.3067C30.1462 27.3947 30.0792 27.4993 30.0335 27.6144C29.9878 27.7295 29.9643 27.8529 29.9643 27.9775C29.9643 28.1021 29.9878 28.2254 30.0335 28.3405C30.0792 28.4556 30.1462 28.5602 30.2306 28.6483C30.315 28.7364 30.4152 28.8063 30.5255 28.854C30.6358 28.9016 30.754 28.9262 30.8734 28.9262C30.9928 28.9262 31.111 28.9016 31.2213 28.854C31.3317 28.8063 31.4319 28.7364 31.5163 28.6483L37.8723 22.0159C37.9568 21.9278 38.0239 21.8233 38.0697 21.7082C38.1155 21.5931 38.139 21.4697 38.139 21.345C38.139 21.2204 38.1155 21.097 38.0697 20.9819C38.0239 20.8668 37.9568 20.7622 37.8723 20.6742L31.5163 14.0417C31.4319 13.9535 31.3318 13.8835 31.2214 13.8357C31.1111 13.788 30.9929 13.7634 30.8734 13.7634C30.754 13.7634 30.6357 13.788 30.5254 13.8357C30.4151 13.8835 30.3149 13.9535 30.2306 14.0417Z" fill="white"/>
</svg>
