<svg width="6" height="3" viewBox="0 0 6 3" fill="none" xmlns="http://www.w3.org/2000/svg">
<mask id="path-1-inside-1_1_10806" fill="white">
<path d="M4.60822 0.109931L2.62447 2.21908L0.64073 0.109931C0.570342 0.0395432 0.474875 0 0.375331 0C0.275787 0 0.18032 0.0395432 0.109932 0.109931C0.0395437 0.18032 0 0.275786 0 0.37533C0 0.474874 0.0395437 0.570341 0.109932 0.640729L2.35907 2.88987C2.3939 2.92478 2.43526 2.95248 2.4808 2.97138C2.52634 2.99027 2.57517 3 2.62447 3C2.67378 3 2.7226 2.99027 2.76814 2.97138C2.81368 2.95248 2.85505 2.92478 2.88987 2.88987L5.13901 0.640729C5.17387 0.605876 5.20151 0.5645 5.22038 0.518963C5.23924 0.473426 5.24895 0.424619 5.24895 0.37533C5.24895 0.326041 5.23924 0.277235 5.22038 0.231697C5.20151 0.18616 5.17387 0.144784 5.13901 0.109931C5.10416 0.0750787 5.06279 0.0474319 5.01725 0.0285697C4.97171 0.00970769 4.9229 0 4.87362 0C4.82433 0 4.77552 0.00970769 4.72998 0.0285697C4.68445 0.0474319 4.64307 0.0750787 4.60822 0.109931Z"/>
</mask>
<path d="M4.60822 0.109931L2.62447 2.21908L0.64073 0.109931C0.570342 0.0395432 0.474875 0 0.375331 0C0.275787 0 0.18032 0.0395432 0.109932 0.109931C0.0395437 0.18032 0 0.275786 0 0.37533C0 0.474874 0.0395437 0.570341 0.109932 0.640729L2.35907 2.88987C2.3939 2.92478 2.43526 2.95248 2.4808 2.97138C2.52634 2.99027 2.57517 3 2.62447 3C2.67378 3 2.7226 2.99027 2.76814 2.97138C2.81368 2.95248 2.85505 2.92478 2.88987 2.88987L5.13901 0.640729C5.17387 0.605876 5.20151 0.5645 5.22038 0.518963C5.23924 0.473426 5.24895 0.424619 5.24895 0.37533C5.24895 0.326041 5.23924 0.277235 5.22038 0.231697C5.20151 0.18616 5.17387 0.144784 5.13901 0.109931C5.10416 0.0750787 5.06279 0.0474319 5.01725 0.0285697C4.97171 0.00970769 4.9229 0 4.87362 0C4.82433 0 4.77552 0.00970769 4.72998 0.0285697C4.68445 0.0474319 4.64307 0.0750787 4.60822 0.109931Z" fill="#30ACFF"/>
<path d="M2.62447 2.21908L4.80976 4.27444L2.62447 6.59787L0.439183 4.27444L2.62447 2.21908ZM4.60822 0.109931L2.42293 -1.94543L2.45441 -1.9789L2.4869 -2.01139L4.60822 0.109931ZM4.72998 0.0285697L3.58192 -2.74306L3.58194 -2.74307L4.72998 0.0285697ZM5.01725 0.0285697L6.16529 -2.74307L6.16531 -2.74306L5.01725 0.0285697ZM5.13901 0.109931L3.0177 2.23126L3.01769 2.23125L5.13901 0.109931ZM5.22038 0.231697L7.99201 -0.916358L7.99202 -0.916334L5.22038 0.231697ZM5.22038 0.518963L7.99202 1.66699L7.99201 1.66702L5.22038 0.518963ZM5.13901 0.640729L3.01769 -1.48059L3.0177 -1.4806L5.13901 0.640729ZM2.88987 2.88987L0.765872 0.771231L0.768552 0.768551L2.88987 2.88987ZM2.76814 2.97138L1.61834 0.200464L1.61834 0.200462L2.76814 2.97138ZM2.4808 2.97138L1.331 5.74229H1.331L2.4808 2.97138ZM2.35907 2.88987L4.4804 0.76855L4.48307 0.771233L2.35907 2.88987ZM0.109932 0.640729L-2.01139 2.76205L-2.01139 2.76205L0.109932 0.640729ZM0.109932 0.109931L-2.01139 -2.01139L-2.01139 -2.01139L0.109932 0.109931ZM0.64073 0.109931L2.76205 -2.01139L2.79454 -1.9789L2.82602 -1.94543L0.64073 0.109931ZM0.439183 0.163718L2.42293 -1.94543L6.79351 2.16529L4.80976 4.27444L0.439183 0.163718ZM2.4869 -2.01139C2.80032 -2.32481 3.17241 -2.57344 3.58192 -2.74306L5.87804 2.8002C6.19648 2.6683 6.48582 2.47497 6.72954 2.23125L2.4869 -2.01139ZM3.58194 -2.74307C3.99147 -2.9127 4.43038 -3 4.87362 -3V3C5.21827 3 5.55957 2.93212 5.87802 2.80021L3.58194 -2.74307ZM4.87362 -3C5.31685 -3 5.75576 -2.9127 6.16529 -2.74307L3.86921 2.80021C4.18766 2.93212 4.52896 3 4.87362 3V-3ZM6.16531 -2.74306C6.57482 -2.57344 6.94691 -2.32481 7.26033 -2.01139L3.01769 2.23125C3.26141 2.47497 3.55075 2.6683 3.86919 2.8002L6.16531 -2.74306ZM7.26033 -2.0114C7.57376 -1.69796 7.82239 -1.32587 7.99201 -0.916358L2.44874 1.37975C2.58064 1.69819 2.77397 1.98753 3.0177 2.23126L7.26033 -2.0114ZM7.99202 -0.916334C8.16165 -0.506821 8.24895 -0.0679128 8.24895 0.37533H2.24895C2.24895 0.719995 2.31683 1.06129 2.44873 1.37973L7.99202 -0.916334ZM8.24895 0.37533C8.24895 0.818572 8.16165 1.25748 7.99202 1.66699L2.44873 -0.629068C2.31683 -0.310628 2.24895 0.0306666 2.24895 0.37533H8.24895ZM7.99201 1.66702C7.82239 2.07653 7.57376 2.44862 7.26033 2.76206L3.0177 -1.4806C2.77397 -1.23687 2.58064 -0.947526 2.44874 -0.629093L7.99201 1.66702ZM7.26033 2.76205L5.01119 5.01119L0.768552 0.768551L3.01769 -1.48059L7.26033 2.76205ZM5.01387 5.00851C4.70037 5.3228 4.32795 5.57215 3.91794 5.74229L1.61834 0.200462C1.29942 0.332801 1.00973 0.526759 0.765874 0.771233L5.01387 5.00851ZM3.91795 5.74229C3.50793 5.91243 3.06838 6 2.62447 6V0C2.27918 0 1.93727 0.0681195 1.61834 0.200464L3.91795 5.74229ZM2.62447 6C2.18057 6 1.74102 5.91243 1.331 5.74229L3.6306 0.200462C3.31167 0.068119 2.96976 0 2.62447 0V6ZM1.331 5.74229C0.920985 5.57215 0.548567 5.32279 0.235076 5.00851L4.48307 0.771233C4.23922 0.526767 3.94954 0.332805 3.6306 0.200462L1.331 5.74229ZM0.237754 5.01119L-2.01139 2.76205L2.23125 -1.48059L4.48039 0.768551L0.237754 5.01119ZM-2.01139 2.76205C-2.64438 2.12905 -3 1.27053 -3 0.37533H3C3 -0.320778 2.72347 -0.98837 2.23125 -1.48059L-2.01139 2.76205ZM-3 0.37533C-3 -0.519866 -2.64438 -1.37839 -2.01139 -2.01139L2.23125 2.23125C2.72347 1.73903 3 1.07144 3 0.37533H-3ZM-2.01139 -2.01139C-1.37838 -2.64439 -0.519852 -3 0.375331 -3V3C1.07143 3 1.73902 2.72348 2.23125 2.23125L-2.01139 -2.01139ZM0.375331 -3C1.27051 -3 2.12904 -2.64439 2.76205 -2.01139L-1.48059 2.23125C-0.988361 2.72348 -0.320764 3 0.375331 3V-3ZM2.82602 -1.94543L4.80976 0.163718L0.439183 4.27444L-1.54456 2.16529L2.82602 -1.94543Z" fill="#30ACFF" mask="url(#path-1-inside-1_1_10806)"/>
</svg>
