<svg width="24" height="25" viewBox="0 0 24 25" fill="none" xmlns="http://www.w3.org/2000/svg">
<rect y="0.390015" width="24" height="24" rx="12" fill="#243B54"/>
<path d="M16.0942 12.181V12.6527C16.0942 13.4092 15.9917 14.0883 15.7866 14.6898C15.5815 15.2914 15.2922 15.8041 14.9185 16.2279C14.5448 16.6472 14.0981 16.9685 13.5786 17.1918C13.0636 17.4151 12.4917 17.5267 11.8628 17.5267C11.2384 17.5267 10.6665 17.4151 10.147 17.1918C9.632 16.9685 9.18538 16.6472 8.80713 16.2279C8.42887 15.8041 8.13493 15.2914 7.92529 14.6898C7.72021 14.0883 7.61768 13.4092 7.61768 12.6527V12.181C7.61768 11.42 7.72021 10.7409 7.92529 10.1439C8.13037 9.54236 8.41976 9.02966 8.79346 8.60583C9.17171 8.18201 9.61833 7.85844 10.1333 7.63513C10.6528 7.41182 11.2248 7.30017 11.8491 7.30017C12.478 7.30017 13.05 7.41182 13.5649 7.63513C14.0845 7.85844 14.5311 8.18201 14.9048 8.60583C15.283 9.02966 15.5747 9.54236 15.7798 10.1439C15.9894 10.7409 16.0942 11.42 16.0942 12.181ZM14.0229 12.6527V12.1674C14.0229 11.6387 13.9751 11.1739 13.8794 10.7728C13.7837 10.3718 13.6424 10.0345 13.4556 9.76111C13.2687 9.48767 13.0409 9.28259 12.772 9.14587C12.5031 9.0046 12.1955 8.93396 11.8491 8.93396C11.5028 8.93396 11.1951 9.0046 10.9263 9.14587C10.6619 9.28259 10.4364 9.48767 10.2495 9.76111C10.0672 10.0345 9.92822 10.3718 9.83252 10.7728C9.73682 11.1739 9.68896 11.6387 9.68896 12.1674V12.6527C9.68896 13.1768 9.73682 13.6416 9.83252 14.0472C9.92822 14.4483 10.0695 14.7878 10.2563 15.0658C10.4432 15.3392 10.6711 15.5466 10.9399 15.6879C11.2088 15.8291 11.5164 15.8998 11.8628 15.8998C12.2091 15.8998 12.5168 15.8291 12.7856 15.6879C13.0545 15.5466 13.2801 15.3392 13.4624 15.0658C13.6447 14.7878 13.7837 14.4483 13.8794 14.0472C13.9751 13.6416 14.0229 13.1768 14.0229 12.6527Z" fill="#FAFAFA"/>
</svg>
