<svg width="22" height="22" viewBox="0 0 22 22" fill="none" xmlns="http://www.w3.org/2000/svg">
<path d="M1.08655 8.51281L1.08659 8.51268C2.45547 3.06051 8.02202 -0.263137 13.522 1.09794L13.522 1.09794C19.022 2.45871 22.3631 7.9849 20.9939 13.4354C19.6244 18.8869 14.0579 22.2103 8.55612 20.8489C3.05808 19.4881 -0.283251 13.9626 1.08655 8.51281Z" stroke="white"/>
<path d="M15.785 9.45199C15.9993 8.03082 14.909 7.26684 13.4181 6.75718L13.9017 4.83204L12.7209 4.53999L12.2501 6.4144C11.9397 6.33764 11.6208 6.26522 11.304 6.19346L11.7782 4.30669L10.5981 4.01465L10.1142 5.93912C9.85722 5.88105 9.60499 5.82365 9.36015 5.76324L9.3615 5.75723L7.73308 5.3537L7.41897 6.60531C7.41897 6.60531 8.29506 6.80457 8.27656 6.81692C8.7548 6.93541 8.84122 7.24948 8.82676 7.49846L8.27588 9.69162C8.30884 9.69997 8.35156 9.71198 8.39864 9.73067C8.3593 9.721 8.31726 9.71031 8.27387 9.69997L7.50169 12.7723C7.44318 12.9164 7.29487 13.1327 6.96058 13.0506C6.97235 13.0676 6.10231 12.838 6.10231 12.838L5.51611 14.1794L7.05272 14.5596C7.33859 14.6306 7.61873 14.7051 7.89451 14.7752L7.40585 16.7223L8.58529 17.0144L9.06925 15.0879C9.39143 15.1747 9.7042 15.2548 10.0102 15.3302L9.52798 17.2477L10.7088 17.5397L11.1974 15.5962C13.2109 15.9744 14.725 15.8218 15.3623 14.0145C15.8759 12.5593 15.3367 11.7199 14.2774 11.1725C15.0489 10.996 15.63 10.4923 15.785 9.45199ZM13.0872 13.2065C12.7223 14.6617 10.2534 13.875 9.45297 13.6778L10.1014 11.0981C10.9018 11.2964 13.4685 11.6889 13.0872 13.2065ZM13.4524 9.43095C13.1194 10.7547 11.0646 10.0821 10.398 9.91725L10.9859 7.57757C11.6525 7.74245 13.7991 8.05018 13.4524 9.43095Z" fill="white"/>
</svg>
