<svg width="44" height="34" viewBox="0 0 44 34" fill="none" xmlns="http://www.w3.org/2000/svg">
<path d="M41.25 28.1006C41.25 28.8299 40.9603 29.5294 40.4445 30.0451C39.9288 30.5609 39.2293 30.8506 38.5 30.8506H5.5C4.77065 30.8506 4.07118 30.5609 3.55546 30.0451C3.03973 29.5294 2.75 28.8299 2.75 28.1006V11.6006C2.75 10.8712 3.03973 10.1718 3.55546 9.65604C4.07118 9.14032 4.77065 8.85059 5.5 8.85059H8.723C10.9099 8.84939 13.0069 7.97994 14.553 6.43334L16.8355 4.15634C17.3498 3.64192 18.0469 3.3522 18.7742 3.35059H25.2202C25.9495 3.35074 26.6489 3.64058 27.1645 4.15634L29.4415 6.43334C30.2077 7.1998 31.1175 7.80778 32.1188 8.22254C33.12 8.6373 34.1932 8.85072 35.277 8.85059H38.5C39.2293 8.85059 39.9288 9.14032 40.4445 9.65604C40.9603 10.1718 41.25 10.8712 41.25 11.6006V28.1006ZM5.5 6.10059C4.04131 6.10059 2.64236 6.68005 1.61091 7.7115C0.579463 8.74295 0 10.1419 0 11.6006V28.1006C0 29.5593 0.579463 30.9582 1.61091 31.9897C2.64236 33.0211 4.04131 33.6006 5.5 33.6006H38.5C39.9587 33.6006 41.3576 33.0211 42.3891 31.9897C43.4205 30.9582 44 29.5593 44 28.1006V11.6006C44 10.1419 43.4205 8.74295 42.3891 7.7115C41.3576 6.68005 39.9587 6.10059 38.5 6.10059H35.277C33.8184 6.10027 32.4197 5.52061 31.3885 4.48909L29.1115 2.21209C28.0803 1.18056 26.6816 0.600897 25.223 0.600586H18.777C17.3184 0.600897 15.9197 1.18056 14.8885 2.21209L12.6115 4.48909C11.5803 5.52061 10.1816 6.10027 8.723 6.10059H5.5Z" fill="white"/>
<path d="M22 25.3506C20.1766 25.3506 18.428 24.6263 17.1386 23.3369C15.8493 22.0476 15.125 20.299 15.125 18.4756C15.125 16.6522 15.8493 14.9035 17.1386 13.6142C18.428 12.3249 20.1766 11.6006 22 11.6006C23.8234 11.6006 25.572 12.3249 26.8614 13.6142C28.1507 14.9035 28.875 16.6522 28.875 18.4756C28.875 20.299 28.1507 22.0476 26.8614 23.3369C25.572 24.6263 23.8234 25.3506 22 25.3506ZM22 28.1006C24.5527 28.1006 27.0009 27.0865 28.8059 25.2815C30.6109 23.4764 31.625 21.0283 31.625 18.4756C31.625 15.9229 30.6109 13.4747 28.8059 11.6697C27.0009 9.86465 24.5527 8.85059 22 8.85059C19.4473 8.85059 16.9991 9.86465 15.1941 11.6697C13.3891 13.4747 12.375 15.9229 12.375 18.4756C12.375 21.0283 13.3891 23.4764 15.1941 25.2815C16.9991 27.0865 19.4473 28.1006 22 28.1006ZM8.25 12.9756C8.25 13.3403 8.10513 13.69 7.84727 13.9479C7.58941 14.2057 7.23967 14.3506 6.875 14.3506C6.51033 14.3506 6.16059 14.2057 5.90273 13.9479C5.64487 13.69 5.5 13.3403 5.5 12.9756C5.5 12.6109 5.64487 12.2612 5.90273 12.0033C6.16059 11.7455 6.51033 11.6006 6.875 11.6006C7.23967 11.6006 7.58941 11.7455 7.84727 12.0033C8.10513 12.2612 8.25 12.6109 8.25 12.9756Z" fill="white"/>
</svg>
