<svg width="24" height="24" viewBox="0 0 24 24" fill="none" xmlns="http://www.w3.org/2000/svg">
<mask id="path-1-outside-1_170_5156" maskUnits="userSpaceOnUse" x="0" y="0" width="24" height="24" fill="black">
<rect fill="white" width="24" height="24"/>
<path d="M14.5832 3.08779C14.2467 2.74345 13.8448 2.46984 13.4011 2.28303C12.9574 2.09623 12.4808 2 11.9994 2C11.5179 2 11.0414 2.09623 10.5976 2.28303C10.1539 2.46984 9.752 2.74345 9.41553 3.08779L8.638 3.88532L7.52545 3.87157C7.04387 3.86587 6.56601 3.95652 6.11998 4.13819C5.67394 4.31986 5.26873 4.58888 4.92818 4.92943C4.58763 5.26998 4.31861 5.67519 4.13694 6.12123C3.95527 6.56726 3.86462 7.04512 3.87032 7.5267L3.88282 8.63925L3.08779 9.41678C2.74345 9.75325 2.46984 10.1552 2.28303 10.5989C2.09623 11.0426 2 11.5192 2 12.0006C2 12.4821 2.09623 12.9586 2.28303 13.4024C2.46984 13.8461 2.74345 14.248 3.08779 14.5845L3.88407 15.362L3.87032 16.4745C3.86462 16.9561 3.95527 17.434 4.13694 17.88C4.31861 18.3261 4.58763 18.7313 4.92818 19.0718C5.26873 19.4124 5.67394 19.6814 6.11998 19.8631C6.56601 20.0447 7.04387 20.1354 7.52545 20.1297L8.638 20.1172L9.41553 20.9122C9.752 21.2566 10.1539 21.5302 10.5976 21.717C11.0414 21.9038 11.5179 22 11.9994 22C12.4808 22 12.9574 21.9038 13.4011 21.717C13.8448 21.5302 14.2467 21.2566 14.5832 20.9122L15.3608 20.1159L16.4733 20.1297C16.9549 20.1354 17.4327 20.0447 17.8788 19.8631C18.3248 19.6814 18.73 19.4124 19.0706 19.0718C19.4111 18.7313 19.6801 18.3261 19.8618 17.88C20.0435 17.434 20.1341 16.9561 20.1284 16.4745L20.1159 15.362L20.911 14.5845C21.2553 14.248 21.5289 13.8461 21.7157 13.4024C21.9025 12.9586 21.9987 12.4821 21.9987 12.0006C21.9987 11.5192 21.9025 11.0426 21.7157 10.5989C21.5289 10.1552 21.2553 9.75325 20.911 9.41678L20.1147 8.63925L20.1284 7.5267C20.1341 7.04512 20.0435 6.56726 19.8618 6.12123C19.6801 5.67519 19.4111 5.26998 19.0706 4.92943C18.73 4.58888 18.3248 4.31986 17.8788 4.13819C17.4327 3.95652 16.9549 3.86587 16.4733 3.87157L15.3608 3.88407L14.5832 3.08779ZM14.942 10.5681L11.1918 14.3182C11.1338 14.3764 11.0648 14.4226 10.9889 14.4541C10.9129 14.4856 10.8315 14.5018 10.7493 14.5018C10.6671 14.5018 10.5857 14.4856 10.5098 14.4541C10.4338 14.4226 10.3649 14.3764 10.3068 14.3182L8.43174 12.4431C8.37363 12.385 8.32753 12.316 8.29608 12.2401C8.26463 12.1642 8.24844 12.0828 8.24844 12.0006C8.24844 11.9184 8.26463 11.8371 8.29608 11.7611C8.32753 11.6852 8.37363 11.6162 8.43174 11.5581C8.48985 11.5 8.55884 11.4539 8.63477 11.4224C8.71069 11.391 8.79207 11.3748 8.87426 11.3748C8.95644 11.3748 9.03782 11.391 9.11374 11.4224C9.18967 11.4539 9.25866 11.5 9.31677 11.5581L10.7493 12.9919L14.057 9.68304C14.1743 9.56567 14.3335 9.49974 14.4995 9.49974C14.6654 9.49974 14.8246 9.56567 14.942 9.68304C15.0593 9.8004 15.1253 9.95958 15.1253 10.1256C15.1253 10.2915 15.0593 10.4507 14.942 10.5681Z"/>
</mask>
<path d="M14.5832 3.08779C14.2467 2.74345 13.8448 2.46984 13.4011 2.28303C12.9574 2.09623 12.4808 2 11.9994 2C11.5179 2 11.0414 2.09623 10.5976 2.28303C10.1539 2.46984 9.752 2.74345 9.41553 3.08779L8.638 3.88532L7.52545 3.87157C7.04387 3.86587 6.56601 3.95652 6.11998 4.13819C5.67394 4.31986 5.26873 4.58888 4.92818 4.92943C4.58763 5.26998 4.31861 5.67519 4.13694 6.12123C3.95527 6.56726 3.86462 7.04512 3.87032 7.5267L3.88282 8.63925L3.08779 9.41678C2.74345 9.75325 2.46984 10.1552 2.28303 10.5989C2.09623 11.0426 2 11.5192 2 12.0006C2 12.4821 2.09623 12.9586 2.28303 13.4024C2.46984 13.8461 2.74345 14.248 3.08779 14.5845L3.88407 15.362L3.87032 16.4745C3.86462 16.9561 3.95527 17.434 4.13694 17.88C4.31861 18.3261 4.58763 18.7313 4.92818 19.0718C5.26873 19.4124 5.67394 19.6814 6.11998 19.8631C6.56601 20.0447 7.04387 20.1354 7.52545 20.1297L8.638 20.1172L9.41553 20.9122C9.752 21.2566 10.1539 21.5302 10.5976 21.717C11.0414 21.9038 11.5179 22 11.9994 22C12.4808 22 12.9574 21.9038 13.4011 21.717C13.8448 21.5302 14.2467 21.2566 14.5832 20.9122L15.3608 20.1159L16.4733 20.1297C16.9549 20.1354 17.4327 20.0447 17.8788 19.8631C18.3248 19.6814 18.73 19.4124 19.0706 19.0718C19.4111 18.7313 19.6801 18.3261 19.8618 17.88C20.0435 17.434 20.1341 16.9561 20.1284 16.4745L20.1159 15.362L20.911 14.5845C21.2553 14.248 21.5289 13.8461 21.7157 13.4024C21.9025 12.9586 21.9987 12.4821 21.9987 12.0006C21.9987 11.5192 21.9025 11.0426 21.7157 10.5989C21.5289 10.1552 21.2553 9.75325 20.911 9.41678L20.1147 8.63925L20.1284 7.5267C20.1341 7.04512 20.0435 6.56726 19.8618 6.12123C19.6801 5.67519 19.4111 5.26998 19.0706 4.92943C18.73 4.58888 18.3248 4.31986 17.8788 4.13819C17.4327 3.95652 16.9549 3.86587 16.4733 3.87157L15.3608 3.88407L14.5832 3.08779ZM14.942 10.5681L11.1918 14.3182C11.1338 14.3764 11.0648 14.4226 10.9889 14.4541C10.9129 14.4856 10.8315 14.5018 10.7493 14.5018C10.6671 14.5018 10.5857 14.4856 10.5098 14.4541C10.4338 14.4226 10.3649 14.3764 10.3068 14.3182L8.43174 12.4431C8.37363 12.385 8.32753 12.316 8.29608 12.2401C8.26463 12.1642 8.24844 12.0828 8.24844 12.0006C8.24844 11.9184 8.26463 11.8371 8.29608 11.7611C8.32753 11.6852 8.37363 11.6162 8.43174 11.5581C8.48985 11.5 8.55884 11.4539 8.63477 11.4224C8.71069 11.391 8.79207 11.3748 8.87426 11.3748C8.95644 11.3748 9.03782 11.391 9.11374 11.4224C9.18967 11.4539 9.25866 11.5 9.31677 11.5581L10.7493 12.9919L14.057 9.68304C14.1743 9.56567 14.3335 9.49974 14.4995 9.49974C14.6654 9.49974 14.8246 9.56567 14.942 9.68304C15.0593 9.8004 15.1253 9.95958 15.1253 10.1256C15.1253 10.2915 15.0593 10.4507 14.942 10.5681Z" fill="#30ACFF"/>
<path d="M14.5832 3.08779L15.6564 2.03984L15.6561 2.03944L14.5832 3.08779ZM9.41553 3.08779L8.34269 2.03944L8.34148 2.04068L9.41553 3.08779ZM8.638 3.88532L8.61946 5.3852L9.26286 5.39315L9.71204 4.93242L8.638 3.88532ZM7.52545 3.87157L7.54399 2.37168L7.54321 2.37167L7.52545 3.87157ZM3.87032 7.5267L5.37022 7.50985L5.37021 7.50895L3.87032 7.5267ZM3.88282 8.63925L4.93161 9.71164L5.38992 9.26342L5.38272 8.62239L3.88282 8.63925ZM3.08779 9.41678L4.13613 10.4896L4.13658 10.4892L3.08779 9.41678ZM2 12.0006H0.5H2ZM3.08779 14.5845L2.03944 15.6573L2.03984 15.6577L3.08779 14.5845ZM3.88407 15.362L5.38395 15.3805L5.39189 14.7378L4.93201 14.2888L3.88407 15.362ZM3.87032 16.4745L2.37043 16.456L2.37042 16.4568L3.87032 16.4745ZM7.52545 20.1297L7.5086 18.6298L7.5077 18.6298L7.52545 20.1297ZM8.638 20.1172L9.71039 19.0684L9.26217 18.6101L8.62114 18.6173L8.638 20.1172ZM9.41553 20.9122L10.4884 19.8639L10.4879 19.8634L9.41553 20.9122ZM14.5832 20.9122L15.6561 21.9606L15.6564 21.9602L14.5832 20.9122ZM15.3608 20.1159L15.3793 18.616L14.7366 18.6081L14.2875 19.068L15.3608 20.1159ZM16.4733 20.1297L16.4548 21.6296L16.4555 21.6296L16.4733 20.1297ZM20.1284 16.4745L18.6285 16.4914L18.6285 16.4923L20.1284 16.4745ZM20.1159 15.362L19.0671 14.2896L18.6088 14.7378L18.616 15.3789L20.1159 15.362ZM20.911 14.5845L19.8626 13.5116L19.8622 13.5121L20.911 14.5845ZM20.911 9.41678L21.9593 8.34394L21.9589 8.34356L20.911 9.41678ZM20.1147 8.63925L18.6148 8.62071L18.6069 9.26342L19.0667 9.71247L20.1147 8.63925ZM20.1284 7.5267L21.6283 7.54524L21.6283 7.54446L20.1284 7.5267ZM16.4733 3.87157L16.4901 5.37147L16.491 5.37146L16.4733 3.87157ZM15.3608 3.88407L14.2875 4.93201L14.7359 5.39118L15.3776 5.38397L15.3608 3.88407ZM11.1918 14.3182L10.1312 13.2576L10.1298 13.2589L11.1918 14.3182ZM10.3068 14.3182L11.3688 13.2589L11.3675 13.2576L10.3068 14.3182ZM8.24844 12.0006H6.74844H8.24844ZM8.87426 11.3748V9.87481V11.3748ZM9.31677 11.5581L10.3779 10.4979L10.3774 10.4974L9.31677 11.5581ZM10.7493 12.9919L9.6882 14.0521L10.7491 15.1139L11.8102 14.0524L10.7493 12.9919ZM14.057 9.68304L12.9963 8.62238L12.9961 8.62258L14.057 9.68304ZM15.6561 2.03944C15.1799 1.55213 14.6111 1.16492 13.9831 0.900552L12.8191 3.66552C13.0786 3.77476 13.3136 3.93476 13.5104 4.13613L15.6561 2.03944ZM13.9831 0.900552C13.3552 0.636185 12.6807 0.5 11.9994 0.5V3.5C12.2809 3.5 12.5596 3.55627 12.8191 3.66552L13.9831 0.900552ZM11.9994 0.5C11.318 0.5 10.6436 0.636185 10.0156 0.900552L11.1796 3.66552C11.4391 3.55627 11.7178 3.5 11.9994 3.5V0.5ZM10.0156 0.900552C9.38765 1.16492 8.81887 1.55213 8.34269 2.03944L10.4884 4.13613C10.6851 3.93476 10.9202 3.77476 11.1796 3.66552L10.0156 0.900552ZM8.34148 2.04068L7.56395 2.83821L9.71204 4.93242L10.4896 4.13489L8.34148 2.04068ZM8.65653 2.38543L7.54399 2.37168L7.50692 5.37145L8.61946 5.3852L8.65653 2.38543ZM7.54321 2.37167C6.86167 2.3636 6.1854 2.49189 5.55416 2.74899L6.68579 5.52738C6.94663 5.42114 7.22608 5.36813 7.5077 5.37146L7.54321 2.37167ZM5.55416 2.74899C4.92293 3.00609 4.34947 3.38682 3.86752 3.86877L5.98884 5.99009C6.18799 5.79094 6.42495 5.63362 6.68579 5.52738L5.55416 2.74899ZM3.86752 3.86877C3.38557 4.35072 3.00484 4.92418 2.74774 5.55541L5.52613 6.68704C5.63237 6.4262 5.78969 6.18924 5.98884 5.99009L3.86752 3.86877ZM2.74774 5.55541C2.49064 6.18665 2.36235 6.86292 2.37042 7.54446L5.37021 7.50895C5.36688 7.22733 5.41989 6.94788 5.52613 6.68704L2.74774 5.55541ZM2.37041 7.54356L2.38291 8.6561L5.38272 8.62239L5.37022 7.50985L2.37041 7.54356ZM2.83402 7.56685L2.03899 8.34438L4.13658 10.4892L4.93161 9.71164L2.83402 7.56685ZM2.03944 8.34394C1.55213 8.82012 1.16492 9.38891 0.900552 10.0169L3.66552 11.1809C3.77476 10.9214 3.93476 10.6864 4.13613 10.4896L2.03944 8.34394ZM0.900552 10.0169C0.636185 10.6448 0.5 11.3193 0.5 12.0006H3.5C3.5 11.7191 3.55627 11.4404 3.66552 11.1809L0.900552 10.0169ZM0.5 12.0006C0.5 12.682 0.636185 13.3564 0.900552 13.9844L3.66552 12.8204C3.55627 12.5609 3.5 12.2822 3.5 12.0006H0.5ZM0.900552 13.9844C1.16492 14.6123 1.55213 15.1811 2.03944 15.6573L4.13613 13.5116C3.93476 13.3149 3.77476 13.0798 3.66552 12.8204L0.900552 13.9844ZM2.03984 15.6577L2.83612 16.4352L4.93201 14.2888L4.13573 13.5113L2.03984 15.6577ZM2.38418 15.3435L2.37043 16.456L5.3702 16.4931L5.38395 15.3805L2.38418 15.3435ZM2.37042 16.4568C2.36235 17.1383 2.49064 17.8146 2.74774 18.4458L5.52613 17.3142C5.41989 17.0534 5.36688 16.7739 5.37021 16.4923L2.37042 16.4568ZM2.74774 18.4458C3.00484 19.0771 3.38557 19.6505 3.86752 20.1325L5.98884 18.0112C5.78969 17.812 5.63237 17.575 5.52613 17.3142L2.74774 18.4458ZM3.86752 20.1325C4.34947 20.6144 4.92293 20.9952 5.55416 21.2523L6.68579 18.4739C6.42495 18.3676 6.18799 18.2103 5.98884 18.0112L3.86752 20.1325ZM5.55416 21.2523C6.1854 21.5094 6.86167 21.6376 7.54321 21.6296L7.5077 18.6298C7.22608 18.6331 6.94663 18.5801 6.68579 18.4739L5.55416 21.2523ZM7.54231 21.6296L8.65485 21.6171L8.62114 18.6173L7.5086 18.6298L7.54231 21.6296ZM7.5656 21.166L8.34313 21.961L10.4879 19.8634L9.71039 19.0684L7.5656 21.166ZM8.34269 21.9606C8.81887 22.4479 9.38766 22.8351 10.0156 23.0994L11.1796 20.3345C10.9202 20.2252 10.6851 20.0652 10.4884 19.8639L8.34269 21.9606ZM10.0156 23.0994C10.6436 23.3638 11.318 23.5 11.9994 23.5V20.5C11.7178 20.5 11.4391 20.4437 11.1796 20.3345L10.0156 23.0994ZM11.9994 23.5C12.6807 23.5 13.3552 23.3638 13.9831 23.0994L12.8191 20.3345C12.5596 20.4437 12.2809 20.5 11.9994 20.5V23.5ZM13.9831 23.0994C14.6111 22.8351 15.1799 22.4479 15.6561 21.9606L13.5104 19.8639C13.3136 20.0652 13.0786 20.2252 12.8191 20.3345L13.9831 23.0994ZM15.6564 21.9602L16.434 21.1639L14.2875 19.068L13.51 19.8643L15.6564 21.9602ZM15.3422 21.6158L16.4548 21.6296L16.4918 18.6298L15.3793 18.616L15.3422 21.6158ZM16.4555 21.6296C17.1371 21.6376 17.8134 21.5094 18.4446 21.2523L17.313 18.4739C17.0521 18.5801 16.7727 18.6331 16.491 18.6298L16.4555 21.6296ZM18.4446 21.2523C19.0758 20.9952 19.6493 20.6144 20.1312 20.1325L18.0099 18.0112C17.8108 18.2103 17.5738 18.3676 17.313 18.4739L18.4446 21.2523ZM20.1312 20.1325C20.6132 19.6505 20.9939 19.0771 21.251 18.4458L18.4726 17.3142C18.3664 17.575 18.2091 17.812 18.0099 18.0112L20.1312 20.1325ZM21.251 18.4458C21.5081 17.8146 21.6364 17.1383 21.6283 16.4568L18.6285 16.4923C18.6319 16.7739 18.5789 17.0534 18.4726 17.3142L21.251 18.4458ZM21.6283 16.4577L21.6158 15.3451L18.616 15.3789L18.6285 16.4914L21.6283 16.4577ZM21.1647 16.4344L21.9598 15.6569L19.8622 13.5121L19.0671 14.2896L21.1647 16.4344ZM21.9593 15.6573C22.4466 15.1811 22.8338 14.6123 23.0982 13.9844L20.3332 12.8204C20.224 13.0798 20.064 13.3149 19.8626 13.5116L21.9593 15.6573ZM23.0982 13.9844C23.3626 13.3564 23.4987 12.682 23.4987 12.0006H20.4987C20.4987 12.2822 20.4425 12.5609 20.3332 12.8204L23.0982 13.9844ZM23.4987 12.0006C23.4987 11.3193 23.3626 10.6448 23.0982 10.0169L20.3332 11.1809C20.4425 11.4404 20.4987 11.7191 20.4987 12.0006H23.4987ZM23.0982 10.0169C22.8338 9.38891 22.4466 8.82012 21.9593 8.34394L19.8626 10.4896C20.064 10.6864 20.224 10.9214 20.3332 11.1809L23.0982 10.0169ZM21.9589 8.34356L21.1626 7.56603L19.0667 9.71247L19.863 10.49L21.9589 8.34356ZM21.6146 8.65779L21.6283 7.54524L18.6285 7.50817L18.6148 8.62071L21.6146 8.65779ZM21.6283 7.54446C21.6364 6.86292 21.5081 6.18665 21.251 5.55541L18.4726 6.68704C18.5789 6.94788 18.6319 7.22733 18.6285 7.50895L21.6283 7.54446ZM21.251 5.55541C20.9939 4.92418 20.6132 4.35072 20.1312 3.86877L18.0099 5.99009C18.2091 6.18924 18.3664 6.4262 18.4726 6.68704L21.251 5.55541ZM20.1312 3.86877C19.6493 3.38682 19.0758 3.00609 18.4446 2.74899L17.313 5.52738C17.5738 5.63362 17.8108 5.79094 18.0099 5.99009L20.1312 3.86877ZM18.4446 2.74899C17.8134 2.49189 17.1371 2.3636 16.4555 2.37167L16.491 5.37146C16.7727 5.36813 17.0521 5.42114 17.313 5.52738L18.4446 2.74899ZM16.4564 2.37166L15.3439 2.38416L15.3776 5.38397L16.4901 5.37147L16.4564 2.37166ZM16.434 2.83612L15.6564 2.03984L13.51 4.13573L14.2875 4.93201L16.434 2.83612ZM13.8813 9.50741L10.1312 13.2576L12.2525 15.3789L16.0026 11.6287L13.8813 9.50741ZM10.1298 13.2589C10.2111 13.1774 10.3077 13.1128 10.414 13.0687L11.5638 15.8396C11.8219 15.7324 12.0564 15.5754 12.2538 15.3775L10.1298 13.2589ZM10.414 13.0687C10.5203 13.0245 10.6342 13.0018 10.7493 13.0018V16.0018C11.0288 16.0018 11.3056 15.9467 11.5638 15.8396L10.414 13.0687ZM10.7493 13.0018C10.8644 13.0018 10.9784 13.0245 11.0847 13.0687L9.93487 15.8396C10.193 15.9467 10.4698 16.0018 10.7493 16.0018V13.0018ZM11.0847 13.0687C11.191 13.1128 11.2875 13.1774 11.3688 13.2589L9.24481 15.3775C9.44221 15.5754 9.67671 15.7324 9.93487 15.8396L11.0847 13.0687ZM11.3675 13.2576L9.4924 11.3825L7.37108 13.5038L9.24615 15.3789L11.3675 13.2576ZM9.4924 11.3825C9.57357 11.4637 9.63797 11.56 9.6819 11.6661L6.91026 12.8141C7.01709 13.0721 7.17368 13.3064 7.37108 13.5038L9.4924 11.3825ZM9.6819 11.6661C9.72583 11.7722 9.74844 11.8858 9.74844 12.0006H6.74844C6.74844 12.2798 6.80343 12.5562 6.91026 12.8141L9.6819 11.6661ZM9.74844 12.0006C9.74844 12.1154 9.72583 12.2291 9.6819 12.3352L6.91026 11.1871C6.80343 11.445 6.74844 11.7215 6.74844 12.0006H9.74844ZM9.6819 12.3352C9.63797 12.4412 9.57357 12.5376 9.4924 12.6188L7.37108 10.4974C7.17368 10.6948 7.01709 10.9292 6.91026 11.1871L9.6819 12.3352ZM9.4924 12.6188C9.41122 12.6999 9.31486 12.7643 9.20879 12.8083L8.06074 10.0366C7.80282 10.1435 7.56848 10.3 7.37108 10.4974L9.4924 12.6188ZM9.20879 12.8083C9.10273 12.8522 8.98906 12.8748 8.87426 12.8748V9.87481C8.59509 9.87481 8.31866 9.9298 8.06074 10.0366L9.20879 12.8083ZM8.87426 12.8748C8.75946 12.8748 8.64578 12.8522 8.53972 12.8083L9.68777 10.0366C9.42985 9.9298 9.15342 9.87481 8.87426 9.87481V12.8748ZM8.53972 12.8083C8.43366 12.7643 8.33729 12.6999 8.25611 12.6188L10.3774 10.4974C10.18 10.3 9.94569 10.1435 9.68777 10.0366L8.53972 12.8083ZM8.25565 12.6183L9.6882 14.0521L11.8104 11.9317L10.3779 10.4979L8.25565 12.6183ZM11.8102 14.0524L15.1178 10.7435L12.9961 8.62258L9.68847 11.9315L11.8102 14.0524ZM15.1176 10.7437C14.9537 10.9076 14.7313 10.9997 14.4995 10.9997V7.99974C13.9357 7.99974 13.395 8.22371 12.9963 8.62238L15.1176 10.7437ZM14.4995 10.9997C14.2676 10.9997 14.0453 10.9076 13.8813 10.7437L16.0026 8.62238C15.604 8.22371 15.0633 7.99974 14.4995 7.99974V10.9997ZM13.8813 10.7437C13.7174 10.5798 13.6253 10.3574 13.6253 10.1256H16.6253C16.6253 9.56176 16.4013 9.02105 16.0026 8.62238L13.8813 10.7437ZM13.6253 10.1256C13.6253 9.89371 13.7174 9.67135 13.8813 9.50741L16.0026 11.6287C16.4013 11.2301 16.6253 10.6894 16.6253 10.1256H13.6253Z" fill="white" mask="url(#path-1-outside-1_170_5156)"/>
</svg>
