<svg width="24" height="24" viewBox="0 0 24 24" fill="none" xmlns="http://www.w3.org/2000/svg">
<path d="M3.2628 7.504L3.26281 7.50486L3.27287 8.2969L2.70675 8.84919L2.70647 8.84947C2.29037 9.25583 1.95973 9.74128 1.73399 10.2773C1.50825 10.8133 1.39195 11.389 1.39196 11.9706C1.39196 12.5522 1.50825 13.1279 1.73399 13.6639C1.95968 14.1998 2.2902 14.6851 2.70614 15.0914C2.70617 15.0915 2.70619 15.0915 2.70621 15.0915C2.7063 15.0916 2.70638 15.0917 2.70647 15.0918L3.27249 15.6452L3.26368 16.4363C3.26368 16.4364 3.26368 16.4365 3.26368 16.4367C3.25701 17.0179 3.36656 17.5946 3.58591 18.1329C3.80529 18.6713 4.13008 19.1605 4.54118 19.5716C4.95228 19.9827 5.44141 20.3075 5.97982 20.5268C6.51823 20.7462 7.09506 20.8558 7.67641 20.8491L7.67668 20.8491L8.46818 20.8396L9.02072 21.406L9.02099 21.4063C9.42735 21.8224 9.9128 22.153 10.4488 22.3788C10.9848 22.6045 11.5605 22.7208 12.1421 22.7208C12.7237 22.7208 13.2995 22.6045 13.8355 22.3788C14.3713 22.1531 14.8567 21.8225 15.263 21.4066C15.2631 21.4065 15.2632 21.4064 15.2633 21.4063L15.8167 20.8403L16.6079 20.8491C16.608 20.8491 16.6081 20.8491 16.6082 20.8491C17.1894 20.8557 17.7661 20.7462 18.3044 20.5268C18.8429 20.3075 19.332 19.9827 19.7431 19.5716C20.1542 19.1605 20.479 18.6713 20.6984 18.1329C20.9177 17.5945 21.0273 17.0177 21.0206 16.4363L21.0206 16.4361L21.0112 15.6446L21.5775 15.092L21.5778 15.0918C21.9939 14.6854 22.3245 14.1999 22.5503 13.6639C22.776 13.1279 22.8923 12.5522 22.8923 11.9706C22.8923 11.389 22.776 10.8133 22.5503 10.2773C22.3246 9.74142 21.9941 9.25607 21.5781 8.84978C21.578 8.84968 21.5779 8.84957 21.5778 8.84947L21.0118 8.29602L21.0206 7.50488C21.0273 6.92353 20.9177 6.34671 20.6984 5.8083C20.479 5.26989 20.1542 4.78076 19.7431 4.36966C19.332 3.95855 18.8429 3.63377 18.3044 3.41438C17.766 3.195 17.1892 3.08545 16.6079 3.09216L16.6076 3.09216L15.8161 3.10159L15.2636 2.53522L15.2633 2.53494C14.8569 2.11885 14.3715 1.78821 13.8355 1.56247C13.2995 1.33672 12.7237 1.22043 12.1421 1.22043C11.5605 1.22043 10.9848 1.33672 10.4488 1.56247C9.91294 1.78815 9.4276 2.11868 9.02131 2.53462C9.02128 2.53464 9.02126 2.53467 9.02124 2.53469C9.02116 2.53477 9.02107 2.53486 9.02099 2.53494L8.46779 3.10071L7.6758 3.09128L7.67552 3.09127C7.09417 3.08456 6.51735 3.19411 5.97894 3.4135C5.44053 3.63288 4.9514 3.95767 4.5403 4.36877C4.12919 4.77987 3.80441 5.269 3.58502 5.80741C3.36564 6.34582 3.25609 6.92265 3.2628 7.504Z" fill="#FF3030" stroke="white" stroke-width="1.5"/>
</svg>
