<svg width="11" height="11" viewBox="0 0 11 11" fill="none" xmlns="http://www.w3.org/2000/svg">
<path d="M9.83131 3.6426V8.94138M4.087 2.64221L7.13438 0.882812L8.15272 2.64662L4.087 2.64221ZM1 3.09064C1 2.84676 1.1977 2.64907 1.44157 2.64907H9.38974C9.63362 2.64907 9.83131 2.84676 9.83131 3.09064V9.27255C9.83131 9.51643 9.63362 9.71412 9.38974 9.71412H1.44157C1.1977 9.71412 1 9.51643 1 9.27255V3.09064ZM7.89946 7.28551H9.83131V5.07768H7.89946C7.2593 5.07768 6.74035 5.57193 6.74035 6.1816C6.74035 6.79126 7.2593 7.28551 7.89946 7.28551Z" stroke="white" stroke-width="0.883131" stroke-linecap="round" stroke-linejoin="round"/>
<path fill-rule="evenodd" clip-rule="evenodd" d="M3.79072 6.21707L3.79072 7.06483H4.21462V6.21707L5.06238 6.21707V5.79317L4.21462 5.79317V4.94531L3.79072 4.94531L3.79072 5.79317L2.94287 5.79317L2.94287 6.21707L3.79072 6.21707Z" fill="white"/>
</svg>
