<svg width="48" height="43" viewBox="0 0 48 43" fill="none" xmlns="http://www.w3.org/2000/svg">
<path d="M6 0.302734C4.4087 0.302734 2.88258 0.934875 1.75736 2.06009C0.632141 3.18531 0 4.71144 0 6.30273V30.3327C0.00793057 31.9188 0.643571 33.4373 1.76793 34.556C2.89229 35.6747 4.41389 36.3028 6 36.3027H22.5C22.8978 36.3027 23.2794 36.1447 23.5607 35.8634C23.842 35.5821 24 35.2006 24 34.8027C24 34.4049 23.842 34.0234 23.5607 33.7421C23.2794 33.4608 22.8978 33.3027 22.5 33.3027H6C5.33963 33.3028 4.69769 33.085 4.17372 32.6831C3.64975 32.2812 3.27304 31.7176 3.102 31.0797L20.022 20.6667L24 23.0517L45 10.4517V19.8027C45 20.2006 45.158 20.5821 45.4393 20.8634C45.7206 21.1447 46.1022 21.3027 46.5 21.3027C46.8978 21.3027 47.2794 21.1447 47.5607 20.8634C47.842 20.5821 48 20.2006 48 19.8027V6.30273C48 4.71144 47.3679 3.18531 46.2426 2.06009C45.1174 0.934875 43.5913 0.302734 42 0.302734H6ZM17.124 18.9267L3 27.6177V10.4517L17.124 18.9267ZM3 6.95373V6.30273C3 5.50708 3.31607 4.74402 3.87868 4.18141C4.44129 3.6188 5.20435 3.30273 6 3.30273H42C42.7957 3.30273 43.5587 3.6188 44.1213 4.18141C44.6839 4.74402 45 5.50708 45 6.30273V6.95373L24 19.5537L3 6.95373Z" fill="white"/>
<path d="M42.741 37.1097C45.771 37.1097 47.502 34.5387 47.502 31.0347V30.4047C47.502 25.5927 43.92 21.3027 37.56 21.3027H37.455C31.26 21.3027 27 25.3827 27 31.5987V32.2407C27 38.7627 31.314 42.3027 37.074 42.3027H37.206C38.988 42.3027 40.26 42.0807 40.917 41.7777V39.5877C40.182 39.9177 38.898 40.1277 37.377 40.1277H37.245C33.243 40.1277 29.532 37.7637 29.532 32.1627V31.6917C29.532 26.7207 32.706 23.5197 37.452 23.5197H37.572C42.177 23.5197 45.024 26.6697 45.024 30.4977V30.8517C45.024 33.7767 44.052 35.0217 43.107 35.0217C42.411 35.0217 41.877 34.5777 41.877 33.7617V27.1917H39.159V28.8987H39.069C38.817 28.0047 37.965 27.0087 36.207 27.0087C33.873 27.0087 32.43 28.6737 32.43 31.2087V32.7927C32.43 35.4687 33.9 37.0947 36.21 37.0947C37.623 37.0947 38.898 36.4137 39.252 35.1657H39.381C39.735 36.4257 41.232 37.1097 42.741 37.1097ZM35.382 31.6647C35.382 30.0267 36.063 29.2917 37.101 29.2917C37.992 29.2917 38.817 29.8677 38.817 31.4157V32.5167C38.817 34.2357 38.058 34.7487 37.125 34.7487C36.063 34.7487 35.382 34.1037 35.382 32.3487V31.6647Z" fill="white"/>
</svg>
