<svg width="22" height="22" viewBox="0 0 22 22" fill="none" xmlns="http://www.w3.org/2000/svg">
<circle cx="10.68" cy="10.68" r="10.3348" stroke="white" stroke-width="0.690476"/>
<path fill-rule="evenodd" clip-rule="evenodd" d="M10.4443 4.69798L6.80941 10.4827C6.76606 10.5182 6.73645 10.5665 6.72359 10.6193L6.61182 10.7971L10.6804 13.1516L14.749 10.7971L10.9156 4.69665C10.9045 4.66943 10.8887 4.64457 10.8694 4.62303L10.6804 4.32227L10.4921 4.62196C10.4719 4.64409 10.4557 4.66978 10.4443 4.69798ZM10.426 5.68306L7.67372 10.0631L10.426 8.75292V5.68306ZM10.426 9.31617L7.48623 10.7156L10.426 12.4168V9.31617ZM10.9345 12.417V9.32195L13.8254 10.744L10.9345 12.417ZM10.9345 8.75518V5.68259L13.729 10.1298L10.9345 8.75518ZM10.6509 13.8409L6.61182 11.5035L10.6804 17.0366L14.749 11.5035L10.7098 13.8409C10.7001 13.8398 10.6903 13.8392 10.6802 13.8392C10.6703 13.8392 10.6605 13.8398 10.6509 13.8409ZM10.426 14.2983L8.4628 13.1623L10.426 15.8321V14.2983ZM10.9345 15.8325L12.898 13.1623L10.9345 14.2985V15.8325Z" fill="white"/>
</svg>
