<svg width="19" height="17" viewBox="0 0 19 17" fill="none" xmlns="http://www.w3.org/2000/svg">
<path id="Vector" d="M16.4136 16.7121L13.4772 13.7756C12.2102 14.3531 10.832 14.6427 9.43994 14.627C8.00494 14.6445 6.58482 14.3347 5.28719 13.7213C4.28152 13.2307 3.37848 12.553 2.62631 11.7246C1.82785 10.8687 1.20031 9.8681 0.777441 8.7767L0.689941 8.502L0.781821 8.2255C1.41427 6.61221 2.47866 5.20422 3.85831 4.15583L1.56494 1.86245L2.80132 0.626953L17.6491 15.4748L16.4154 16.7121H16.4136ZM5.09644 5.39483C3.97812 6.17875 3.09501 7.25307 2.54232 8.502C3.12149 9.8382 4.0887 10.9697 5.31857 11.7498C6.54843 12.5299 7.98426 12.9226 9.43994 12.877C10.3585 12.8845 11.2718 12.7366 12.141 12.4395L10.566 10.8645C10.216 11.036 9.83104 11.1261 9.43994 11.127C8.74509 11.1226 8.07994 10.8446 7.5886 10.3533C7.09726 9.8619 6.8193 9.1968 6.81494 8.502C6.81494 8.1108 6.90507 7.72495 7.07744 7.3732L5.09644 5.39483ZM16.3104 11.6607L15.0924 10.4436C15.6048 9.8643 16.0248 9.2093 16.3375 8.502C15.7591 7.16509 14.7921 6.03305 13.5621 5.25286C12.332 4.47266 10.8958 4.08038 9.43994 4.12695C9.22384 4.12695 9.00684 4.13483 8.79682 4.1497L7.25244 2.60358C7.97169 2.44958 8.70494 2.37345 9.43994 2.37695C10.8749 2.35945 12.295 2.6692 13.5927 3.28258C14.5989 3.77258 15.501 4.4507 16.2535 5.27933C17.0516 6.13417 17.6791 7.13352 18.1024 8.2237L18.1899 8.502L18.098 8.7785C17.6884 9.8443 17.0823 10.8237 16.3113 11.666L16.3104 11.6607Z" fill="white"/>
</svg>
