<svg width="8" height="8" viewBox="0 0 11 8" fill="none" xmlns="http://www.w3.org/2000/svg">
<path d="M3.55213 2.93909C3.41754 2.93909 3.28847 2.99255 3.19331 3.08772C3.09814 3.18288 3.04468 3.31195 3.04468 3.44654V4.46143C3.04468 4.59601 3.09814 4.72508 3.19331 4.82025C3.28847 4.91541 3.41754 4.96888 3.55213 4.96888C3.68671 4.96888 3.81578 4.91541 3.91095 4.82025C4.00611 4.72508 4.05958 4.59601 4.05958 4.46143V3.44654C4.05958 3.31195 4.00611 3.18288 3.91095 3.08772C3.81578 2.99255 3.68671 2.93909 3.55213 2.93909ZM9.64149 3.44654C9.77607 3.44654 9.90515 3.39307 10.0003 3.29791C10.0955 3.20274 10.1489 3.07367 10.1489 2.93909V0.909302C10.1489 0.774719 10.0955 0.645648 10.0003 0.550483C9.90515 0.455319 9.77607 0.401855 9.64149 0.401855H0.507447C0.372864 0.401855 0.243792 0.455319 0.148628 0.550483C0.053463 0.645648 0 0.774719 0 0.909302V2.93909C0 3.07367 0.053463 3.20274 0.148628 3.29791C0.243792 3.39307 0.372864 3.44654 0.507447 3.44654C0.64203 3.44654 0.771101 3.5 0.866266 3.59516C0.961431 3.69033 1.01489 3.8194 1.01489 3.95398C1.01489 4.08857 0.961431 4.21764 0.866266 4.3128C0.771101 4.40797 0.64203 4.46143 0.507447 4.46143C0.372864 4.46143 0.243792 4.51489 0.148628 4.61006C0.053463 4.70522 0 4.83429 0 4.96888V6.99866C0 7.13325 0.053463 7.26232 0.148628 7.35748C0.243792 7.45265 0.372864 7.50611 0.507447 7.50611H9.64149C9.77607 7.50611 9.90515 7.45265 10.0003 7.35748C10.0955 7.26232 10.1489 7.13325 10.1489 6.99866V4.96888C10.1489 4.83429 10.0955 4.70522 10.0003 4.61006C9.90515 4.51489 9.77607 4.46143 9.64149 4.46143C9.50691 4.46143 9.37784 4.40797 9.28267 4.3128C9.18751 4.21764 9.13404 4.08857 9.13404 3.95398C9.13404 3.8194 9.18751 3.69033 9.28267 3.59516C9.37784 3.5 9.50691 3.44654 9.64149 3.44654ZM9.13404 2.52298C8.84015 2.62965 8.58624 2.82422 8.40679 3.08024C8.22735 3.33627 8.13109 3.64134 8.13109 3.95398C8.13109 4.26663 8.22735 4.5717 8.40679 4.82772C8.58624 5.08375 8.84015 5.27832 9.13404 5.38498V6.49122H4.05958C4.05958 6.35663 4.00611 6.22756 3.91095 6.1324C3.81578 6.03723 3.68671 5.98377 3.55213 5.98377C3.41754 5.98377 3.28847 6.03723 3.19331 6.1324C3.09814 6.22756 3.04468 6.35663 3.04468 6.49122H1.01489V5.38498C1.30878 5.27832 1.5627 5.08375 1.74215 4.82772C1.92159 4.5717 2.01785 4.26663 2.01785 3.95398C2.01785 3.64134 1.92159 3.33627 1.74215 3.08024C1.5627 2.82422 1.30878 2.62965 1.01489 2.52298V1.41675H3.04468C3.04468 1.55133 3.09814 1.6804 3.19331 1.77557C3.28847 1.87073 3.41754 1.9242 3.55213 1.9242C3.68671 1.9242 3.81578 1.87073 3.91095 1.77557C4.00611 1.6804 4.05958 1.55133 4.05958 1.41675H9.13404V2.52298Z" fill="#C8C8C8"/>
</svg>
