<svg width="170" height="66" viewBox="0 0 170 66" fill="none" xmlns="http://www.w3.org/2000/svg">
<g clip-path="url(#clip0_1_12097)">
<path d="M1 64.6727C1 64.6727 16.4245 35.556 29 35.556C38.8245 35.556 48.1705 51.1372 57 51.1372C70.5705 51.1372 70.6515 11.976 85 11.976C93.0515 11.976 102.246 11.976 113 11.976C124.646 11.976 129.354 0.937256 141 0.937256C151.754 0.937256 169 0.937256 169 0.937256V64.6727C169 64.6727 152.2 64.6727 141 64.6727C129.8 64.6727 124.2 64.6727 113 64.6727C101.8 64.6727 96.2 64.6727 85 64.6727C73.8 64.6727 68.2 64.6727 57 64.6727C45.8 64.6727 40.2 64.6727 29 64.6727C17.8 64.6727 1 64.6727 1 64.6727Z" fill="url(#paint0_linear_1_12097)" fill-opacity="0.25"/>
<path d="M1 64.6727C1 64.6727 16.4245 35.556 29 35.556C38.8245 35.556 48.1705 51.1372 57 51.1372C70.5705 51.1372 70.6515 11.976 85 11.976C93.0515 11.976 102.246 11.976 113 11.976C124.646 11.976 129.354 0.937256 141 0.937256C151.754 0.937256 169 0.937256 169 0.937256" stroke="#20B26C" stroke-width="1.5" stroke-linecap="round" stroke-linejoin="round"/>
</g>
<defs>
<linearGradient id="paint0_linear_1_12097" x1="169" y1="0.937256" x2="169" y2="64.6727" gradientUnits="userSpaceOnUse">
<stop stop-color="#20B26C"/>
<stop offset="0.98" stop-color="#19161F"/>
</linearGradient>
<clipPath id="clip0_1_12097">
<rect width="170" height="65.61" fill="white"/>
</clipPath>
</defs>
</svg>
