<svg width="22" height="22" viewBox="0 0 22 22" fill="none" xmlns="http://www.w3.org/2000/svg">
<path d="M21.1496 11.0262C21.1496 16.6452 16.5592 21.2067 10.8888 21.2067C5.21832 21.2067 0.62793 16.6452 0.62793 11.0262C0.62793 5.4072 5.21832 0.845703 10.8888 0.845703C16.5592 0.845703 21.1496 5.4072 21.1496 11.0262Z" fill="#1E2F41" stroke="white"/>
<rect width="13.5791" height="12.4606" transform="translate(4.22754 4.66797)" fill="white"/>
<path fill-rule="evenodd" clip-rule="evenodd" d="M2.9126 11.0623L3.84299 18.019L10.8551 18.9453L18.1908 18.019L18.8475 11.0457L18.1908 3.77832L10.868 3.14258L3.45867 3.65117L2.9126 11.0623ZM9.43612 5.54933C9.18348 5.58362 8.73009 5.69602 8.42861 5.79923C6.56688 6.43613 5.26067 7.85314 4.7174 9.82526C4.55901 10.4001 4.55915 11.7901 4.7176 12.3653C5.01419 13.4421 5.42104 14.1853 6.11959 14.9265C8.23269 17.1686 11.7666 17.278 14.017 15.1708C14.8146 14.424 15.2457 13.7582 15.5575 12.7915C15.688 12.3873 15.7685 12.2625 16.1236 11.9147C16.5648 11.4825 16.925 10.8808 17.1035 10.2782C17.2241 9.87079 17.2423 8.88768 17.1376 8.43433C16.9027 7.41779 16.0932 6.43462 15.0911 5.94894C14.2136 5.52364 13.3492 5.44717 12.442 5.71461C12.1311 5.80625 12.0664 5.80376 11.5635 5.68104C10.899 5.51891 10.0488 5.46629 9.43612 5.54933ZM14.1311 7.13688C15.0548 8.05738 15.5652 9.03273 15.7545 10.239C15.794 10.4909 15.8356 10.7062 15.8469 10.7173C15.8964 10.7664 16.1646 10.0306 16.2197 9.69473C16.2957 9.2308 16.2002 8.59088 15.9849 8.12209C15.7842 7.68523 15.2181 7.08754 14.8111 6.88284C14.5009 6.72682 13.8412 6.52921 13.6304 6.52921C13.5651 6.52921 13.7662 6.77327 14.1311 7.13688ZM9.2997 6.75796C7.84503 7.07631 6.78378 7.91844 6.15222 9.2555C5.85311 9.88886 5.74543 10.3757 5.74543 11.0949C5.74543 11.8141 5.85311 12.301 6.15222 12.9343C6.47501 13.6177 6.84897 14.1 7.38986 14.5304C7.90553 14.9409 8.27135 15.134 8.90258 15.3289C10.7278 15.8924 12.8352 15.1584 13.8912 13.5913C14.0779 13.3143 14.2307 13.0614 14.2307 13.0295C14.2307 12.9975 13.9998 12.9881 13.7177 13.0085C12.616 13.0885 11.66 12.7249 10.8391 11.9138C10.2894 11.3707 10.0223 10.9103 9.83179 10.1778C9.56617 9.1567 9.83026 7.87968 10.4811 7.03775C10.614 6.86583 10.7227 6.71066 10.7227 6.69286C10.7227 6.62664 9.68233 6.6742 9.2997 6.75796Z" fill="#1E2F41"/>
</svg>
