<svg width="22" height="22" viewBox="0 0 22 22" fill="none" xmlns="http://www.w3.org/2000/svg">
<circle cx="10.68" cy="10.68" r="10.18" stroke="white"/>
<path fill-rule="evenodd" clip-rule="evenodd" d="M11.9284 8.59157L8.63828 11.8773C8.59587 11.7951 8.55757 11.7094 8.52328 11.6205C8.40839 11.322 8.35092 11.0053 8.35092 10.6707C8.35092 10.336 8.40839 10.0193 8.52328 9.7208C8.63828 9.42213 8.79763 9.16303 9.00133 8.94311C9.2051 8.72331 9.44993 8.54948 9.73568 8.42146C10.0216 8.29356 10.3353 8.22955 10.677 8.22955C11.0188 8.22955 11.3342 8.29516 11.6232 8.4265C11.7307 8.47524 11.8324 8.53022 11.9284 8.59157ZM11.6381 12.9396C11.3522 13.0676 11.0385 13.1315 10.6968 13.1315C10.355 13.1315 10.0396 13.0658 9.75046 12.9347C9.64313 12.8858 9.54142 12.8308 9.44554 12.7693L12.7355 9.48388C12.7779 9.56595 12.8162 9.65148 12.8505 9.74045C12.9654 10.039 13.0229 10.3557 13.0229 10.6904C13.0229 11.025 12.9654 11.3416 12.8505 11.6403C12.7355 11.9389 12.5762 12.198 12.3724 12.4178C12.1687 12.6376 11.924 12.8116 11.6381 12.9396ZM12.1359 13.9583C12.5762 13.768 12.9573 13.5105 13.2793 13.1855C13.6012 12.8608 13.8508 12.4818 14.0282 12.0487C14.2058 11.6157 14.2945 11.1563 14.2945 10.6707C14.2945 10.1851 14.2058 9.72572 14.0282 9.29251C13.9231 9.03567 13.7935 8.79848 13.6398 8.58081L15.7797 6.44387L14.9294 5.59473L12.783 7.73817C12.5903 7.60697 12.3811 7.49355 12.1555 7.3978C11.7152 7.21082 11.229 7.11719 10.6968 7.11719C10.1644 7.11719 9.67826 7.21241 9.23794 7.40272C8.79763 7.59302 8.41645 7.85053 8.09452 8.17537C7.77254 8.5002 7.52281 8.87923 7.34539 9.3123C7.16798 9.74537 7.07927 10.2047 7.07927 10.6904C7.07927 11.176 7.16798 11.6352 7.34539 12.0684C7.45072 12.3253 7.58022 12.5625 7.73396 12.7803L5.59424 14.917L6.44453 15.7662L8.59081 13.6228C8.78351 13.754 8.99272 13.8675 9.21827 13.9632C9.65859 14.1502 10.1448 14.2437 10.677 14.2437C11.2093 14.2437 11.6955 14.1485 12.1359 13.9583Z" fill="white"/>
</svg>
