<svg width="22" height="22" viewBox="0 0 22 22" fill="none" xmlns="http://www.w3.org/2000/svg">
<path d="M21.3683 10.9032C21.3683 16.5222 16.7779 21.0837 11.1075 21.0837C5.43707 21.0837 0.84668 16.5222 0.84668 10.9032C0.84668 5.28416 5.43707 0.722656 11.1075 0.722656C16.7779 0.722656 21.3683 5.28416 21.3683 10.9032Z" stroke="white"/>
<path d="M8.46605 11.7842C8.84922 11.7842 9.20165 11.6561 9.48442 11.4405L7.14853 9.12207C6.92929 9.40069 6.80225 9.75253 6.80225 10.1328C6.80225 11.0419 7.54809 11.7842 8.46605 11.7842Z" fill="white"/>
<path d="M15.4102 10.1309C15.4102 9.75057 15.2811 9.40077 15.0639 9.12012L12.728 11.4365C13.0087 11.6541 13.3632 11.7802 13.7464 11.7802C14.6644 11.7843 15.4102 11.042 15.4102 10.1309Z" fill="white"/>
<path d="M16.5865 7.60645L15.5538 8.63145C15.896 9.03819 16.1009 9.55883 16.1009 10.1283C16.1009 11.4177 15.0436 12.4671 13.7445 12.4671C13.1728 12.4671 12.6462 12.2617 12.2364 11.9241L11.1054 13.0467L9.97429 11.9241C9.56449 12.2637 9.03994 12.4671 8.46621 12.4671C7.16713 12.4671 6.10983 11.4177 6.10983 10.1283C6.10983 9.56086 6.31678 9.03819 6.65692 8.63145L6.12827 8.10674L5.62626 7.60848C5.04024 8.57044 4.70215 9.69712 4.70215 10.9031C4.70215 14.4134 7.56874 17.2606 11.1074 17.2606C14.6461 17.2606 17.5127 14.4154 17.5127 10.9031C17.5106 9.69509 17.1725 8.57044 16.5865 7.60645Z" fill="white"/>
<path d="M15.7384 6.51455C14.5745 5.30245 12.9271 4.5459 11.1055 4.5459C9.28393 4.5459 7.63651 5.30245 6.47266 6.51455C6.31489 6.68132 6.16531 6.85419 6.02393 7.03519L11.1055 12.0829L16.1871 7.03519C16.0498 6.85215 15.8982 6.68132 15.7384 6.51455ZM11.1055 5.3777C12.6054 5.3777 13.9967 5.95121 15.0437 6.99655L11.1055 10.9054L7.16728 6.99655C8.21433 5.94918 9.60767 5.3777 11.1055 5.3777Z" fill="white"/>
</svg>
