<svg width="22" height="22" viewBox="0 0 22 22" fill="none" xmlns="http://www.w3.org/2000/svg">
<path d="M19.2116 2.67571C18.2181 1.6461 16.9125 0.97322 15.4975 0.761483C14.0824 0.549745 12.6371 0.810996 11.3857 1.50469C10.1343 2.19838 9.14694 3.28573 8.57673 4.59798C8.00653 5.91023 7.8854 7.374 8.23217 8.76212L0.596202 16.1361C0.519296 16.2101 0.457729 16.2985 0.415022 16.3963C0.372314 16.4941 0.349304 16.5994 0.347307 16.7061L0.28717 20.1514C0.28517 20.2582 0.304262 20.3644 0.343354 20.4638C0.382444 20.5632 0.440764 20.654 0.514974 20.7308C0.589185 20.8076 0.677828 20.8691 0.775825 20.9116C0.873821 20.9542 0.979247 20.977 1.08606 20.9787L4.53134 21.0388C4.63815 21.0408 4.74431 21.0217 4.84373 20.9826C4.94315 20.9435 5.03389 20.8852 5.11073 20.811C5.18758 20.7368 5.24903 20.6482 5.29157 20.5502C5.3341 20.4522 5.35689 20.3467 5.35862 20.2399L5.38339 18.755L6.86828 18.7821C6.9751 18.7841 7.08125 18.765 7.18067 18.7259C7.2801 18.6868 7.37083 18.6285 7.44768 18.5543C7.52452 18.48 7.58597 18.3914 7.62851 18.2934C7.67105 18.1954 7.69383 18.09 7.69556 17.9832L7.72033 16.4982L9.20523 16.5253C9.31204 16.5273 9.4182 16.5082 9.51762 16.4691C9.61704 16.43 9.70777 16.3717 9.78462 16.2975C9.86147 16.2233 9.92292 16.1346 9.96545 16.0366C10.008 15.9387 10.0308 15.8332 10.0325 15.7264L10.0573 14.2415L11.5422 14.2685C11.6489 14.2703 11.7549 14.2509 11.8541 14.2117C11.9534 14.1724 12.0439 14.114 12.1206 14.0397L12.7457 13.436C14.1209 13.831 15.588 13.761 16.9193 13.237C18.2507 12.7129 19.3718 11.7641 20.1088 10.5377C20.8457 9.31126 21.1572 7.87591 20.995 6.45436C20.8328 5.0328 20.2059 3.70454 19.2116 2.67571ZM11.1525 3.68381C11.7801 3.07827 12.5586 2.65222 13.4069 2.4501C14.2552 2.24799 15.1422 2.27722 15.9754 2.53474C16.8086 2.79226 17.5574 3.26864 18.1437 3.91418C18.73 4.55973 19.1323 5.35077 19.3087 6.2048C19.4851 7.05883 19.4291 7.94455 19.1465 8.76956C18.864 9.59456 18.3652 10.3286 17.7022 10.8952C17.0392 11.4617 16.2364 11.84 15.3774 11.9905C14.5185 12.141 13.6348 12.0583 12.8188 11.7509C12.6751 11.6971 12.5192 11.6851 12.3691 11.7162C12.2189 11.7473 12.0806 11.8203 11.9702 11.9268L11.234 12.6376L9.2737 12.6023C9.16689 12.6003 9.06074 12.6194 8.96131 12.6585C8.86189 12.6976 8.77116 12.7559 8.69431 12.8301C8.61747 12.9043 8.55602 12.9929 8.51348 13.0909C8.47094 13.1889 8.44816 13.2944 8.44643 13.4012L8.42166 14.8861L6.93676 14.859C6.82995 14.857 6.72379 14.8761 6.62437 14.9152C6.52495 14.9543 6.43422 15.0126 6.35737 15.0868C6.28052 15.1611 6.21907 15.2497 6.17654 15.3477C6.134 15.4457 6.11121 15.5511 6.10948 15.6579L6.08471 17.1429L4.59982 17.1158C4.49301 17.1138 4.38685 17.1329 4.28743 17.172C4.18801 17.2111 4.09727 17.2694 4.02043 17.3436C3.94358 17.4178 3.88213 17.5065 3.83959 17.6045C3.79706 17.7025 3.77427 17.8079 3.77254 17.9147L3.74777 19.3996L1.92637 19.3678L1.96646 17.071L9.71342 9.58982C9.82365 9.4832 9.90144 9.34754 9.93779 9.19855C9.97414 9.04956 9.96756 8.89332 9.91882 8.74791C9.62393 7.8736 9.58333 6.93354 9.80173 6.03706C10.0201 5.14058 10.4886 4.32452 11.1525 3.68381Z" fill="white"/>
<path d="M14.5377 7.18923C14.8369 7.49913 15.2471 7.67745 15.6778 7.68497C16.1085 7.69249 16.5246 7.52859 16.8345 7.22932C17.1444 6.93006 17.3228 6.51994 17.3303 6.0892C17.3378 5.65845 17.1739 5.24237 16.8746 4.93247C16.5754 4.62257 16.1652 4.44425 15.7345 4.43673C15.3038 4.42921 14.8877 4.59311 14.5778 4.89238C14.2679 5.19164 14.0896 5.60176 14.082 6.0325C14.0745 6.46324 14.2384 6.87933 14.5377 7.18923Z" fill="white"/>
</svg>
