<svg width="16" height="16" viewBox="0 0 16 16" fill="none" xmlns="http://www.w3.org/2000/svg">
<path fill-rule="evenodd" clip-rule="evenodd" d="M10.3522 6.1452C10.3988 6.19164 10.4357 6.24682 10.4609 6.30756C10.4861 6.36831 10.4991 6.43343 10.4991 6.4992C10.4991 6.56496 10.4861 6.63008 10.4609 6.69083C10.4357 6.75157 10.3988 6.80675 10.3522 6.8532L7.35222 9.8532C7.30577 9.89976 7.2506 9.9367 7.18985 9.96191C7.12911 9.98711 7.06399 10.0001 6.99822 10.0001C6.93245 10.0001 6.86733 9.98711 6.80658 9.96191C6.74584 9.9367 6.69066 9.89976 6.64422 9.8532L5.14422 8.3532C5.09773 8.30671 5.06085 8.25152 5.0357 8.19078C5.01054 8.13004 4.99759 8.06494 4.99759 7.9992C4.99759 7.93345 5.01054 7.86835 5.0357 7.80761C5.06085 7.74687 5.09773 7.69168 5.14422 7.6452C5.19071 7.59871 5.2459 7.56183 5.30663 7.53667C5.36737 7.51151 5.43247 7.49856 5.49822 7.49856C5.56396 7.49856 5.62906 7.51151 5.6898 7.53667C5.75054 7.56183 5.80573 7.59871 5.85222 7.6452L6.99822 8.7922L9.64422 6.1452C9.69066 6.09863 9.74584 6.06169 9.80659 6.03648C9.86733 6.01128 9.93245 5.9983 9.99822 5.9983C10.064 5.9983 10.1291 6.01128 10.1899 6.03648C10.2506 6.06169 10.3058 6.09863 10.3522 6.1452Z" fill="white"/>
<path d="M10.2712 2.5122L9.35022 1.5682L10.0652 0.870195L10.6872 1.5072L11.5772 1.4962C11.9625 1.49164 12.3447 1.56415 12.7016 1.70948C13.0584 1.85481 13.3825 2.07002 13.655 2.34245C13.9274 2.61489 14.1426 2.93904 14.2879 3.29586C14.4333 3.65267 14.5058 4.03495 14.5012 4.4202L14.4912 5.31019L15.1272 5.9322C15.4027 6.20137 15.6216 6.52288 15.771 6.87784C15.9204 7.23281 15.9974 7.61406 15.9974 7.9992C15.9974 8.38433 15.9204 8.76558 15.771 9.12055C15.6216 9.47551 15.4027 9.79703 15.1272 10.0662L14.4902 10.6882L14.5012 11.5782C14.5058 11.9634 14.4333 12.3457 14.2879 12.7025C14.1426 13.0593 13.9274 13.3835 13.655 13.6559C13.3825 13.9284 13.0584 14.1436 12.7016 14.2889C12.3447 14.4342 11.9625 14.5068 11.5772 14.5022L10.6872 14.4922L10.0652 15.1282C9.79605 15.4037 9.47453 15.6225 9.11957 15.772C8.76461 15.9214 8.38336 15.9984 7.99822 15.9984C7.61308 15.9984 7.23183 15.9214 6.87687 15.772C6.5219 15.6225 6.20039 15.4037 5.93122 15.1282L5.30922 14.4912L4.41922 14.5022C4.03397 14.5068 3.6517 14.4342 3.29488 14.2889C2.93806 14.1436 2.61391 13.9284 2.34148 13.6559C2.06905 13.3835 1.85384 13.0593 1.70851 12.7025C1.56318 12.3457 1.49066 11.9634 1.49522 11.5782L1.50522 10.6882L0.869219 10.0662C0.593759 9.79703 0.374879 9.47551 0.225442 9.12055C0.0760041 8.76558 -0.000976563 8.38433 -0.000976562 7.9992C-0.000976563 7.61406 0.0760041 7.23281 0.225442 6.87784C0.374879 6.52288 0.593759 6.20137 0.869219 5.9322L1.50622 5.31019L1.49522 4.4202C1.49066 4.03495 1.56318 3.65267 1.70851 3.29586C1.85384 2.93904 2.06905 2.61489 2.34148 2.34245C2.61391 2.07002 2.93806 1.85481 3.29488 1.70948C3.6517 1.56415 4.03397 1.49164 4.41922 1.4962L5.30922 1.5062L5.93122 0.870195C6.20039 0.594736 6.5219 0.375856 6.87687 0.226418C7.23183 0.0769807 7.61308 0 7.99822 0C8.38336 0 8.76461 0.0769807 9.11957 0.226418C9.47453 0.375856 9.79605 0.594736 10.0652 0.870195L9.35022 1.5682C9.17418 1.38798 8.96389 1.24478 8.73171 1.14701C8.49953 1.04924 8.25014 0.998875 7.99822 0.998875C7.74629 0.998875 7.49691 1.04924 7.26473 1.14701C7.03255 1.24478 6.82226 1.38798 6.64622 1.5682L5.72622 2.5122L4.40622 2.4962C4.1544 2.49338 3.90455 2.54092 3.67136 2.63602C3.43817 2.73113 3.22634 2.87187 3.04831 3.04999C2.87028 3.22812 2.72964 3.44002 2.63466 3.67326C2.53968 3.9065 2.49227 4.15637 2.49522 4.4082L2.51122 5.7262L1.56722 6.64719C1.38701 6.82323 1.2438 7.03352 1.14603 7.26571C1.04826 7.49789 0.997899 7.74727 0.997899 7.9992C0.997899 8.25112 1.04826 8.5005 1.14603 8.73269C1.2438 8.96487 1.38701 9.17516 1.56722 9.3512L2.51122 10.2712L2.49522 11.5912C2.4924 11.843 2.53994 12.0929 2.63505 12.3261C2.73015 12.5592 2.8709 12.7711 3.04902 12.9491C3.22714 13.1271 3.43905 13.2678 3.67229 13.3628C3.90553 13.4577 4.1554 13.5051 4.40722 13.5022L5.72522 13.4862L6.64622 14.4302C6.82226 14.6104 7.03255 14.7536 7.26473 14.8514C7.49691 14.9491 7.74629 14.9995 7.99822 14.9995C8.25014 14.9995 8.49953 14.9491 8.73171 14.8514C8.96389 14.7536 9.17418 14.6104 9.35022 14.4302L10.2702 13.4862L11.5902 13.5022C11.842 13.505 12.0919 13.4575 12.3251 13.3624C12.5583 13.2673 12.7701 13.1265 12.9481 12.9484C13.1262 12.7703 13.2668 12.5584 13.3618 12.3251C13.4568 12.0919 13.5042 11.842 13.5012 11.5902L13.4852 10.2722L14.4292 9.3512C14.6094 9.17516 14.7526 8.96487 14.8504 8.73269C14.9482 8.5005 14.9985 8.25112 14.9985 7.9992C14.9985 7.74727 14.9482 7.49789 14.8504 7.26571C14.7526 7.03352 14.6094 6.82323 14.4292 6.64719L13.4852 5.7272L13.5012 4.4072C13.504 4.15537 13.4565 3.90553 13.3614 3.67234C13.2663 3.43915 13.1255 3.22731 12.9474 3.04928C12.7693 2.87125 12.5574 2.73062 12.3242 2.63564C12.0909 2.54066 11.841 2.49325 11.5892 2.4962L10.2712 2.5122Z" fill="white"/>
</svg>
