<svg width="10" height="14" viewBox="0 0 10 14" fill="none" xmlns="http://www.w3.org/2000/svg">
<path d="M5 1C5.53043 1 6.03914 1.21071 6.41421 1.58579C6.78929 1.96086 7 2.46957 7 3V5H3V3C3 2.46957 3.21071 1.96086 3.58579 1.58579C3.96086 1.21071 4.46957 1 5 1ZM8 5V3C8 2.20435 7.68393 1.44129 7.12132 0.87868C6.55871 0.316071 5.79565 0 5 0C4.20435 0 3.44129 0.316071 2.87868 0.87868C2.31607 1.44129 2 2.20435 2 3V5C1.46957 5 0.960859 5.21071 0.585786 5.58579C0.210714 5.96086 0 6.46957 0 7V12C0 12.5304 0.210714 13.0391 0.585786 13.4142C0.960859 13.7893 1.46957 14 2 14H8C8.53043 14 9.03914 13.7893 9.41421 13.4142C9.78929 13.0391 10 12.5304 10 12V7C10 6.46957 9.78929 5.96086 9.41421 5.58579C9.03914 5.21071 8.53043 5 8 5ZM2 6H8C8.26522 6 8.51957 6.10536 8.70711 6.29289C8.89464 6.48043 9 6.73478 9 7V12C9 12.2652 8.89464 12.5196 8.70711 12.7071C8.51957 12.8946 8.26522 13 8 13H2C1.73478 13 1.48043 12.8946 1.29289 12.7071C1.10536 12.5196 1 12.2652 1 12V7C1 6.73478 1.10536 6.48043 1.29289 6.29289C1.48043 6.10536 1.73478 6 2 6Z" fill="#4C5E72"/>
<path d="M5 7.5C4.73736 7.5 4.47728 7.55173 4.23463 7.65224C3.99198 7.75275 3.7715 7.90007 3.58579 8.08579C3.40007 8.2715 3.25275 8.49198 3.15224 8.73463C3.05173 8.97728 3 9.23736 3 9.5C3 9.76264 3.05173 10.0227 3.15224 10.2654C3.25275 10.508 3.40007 10.7285 3.58579 10.9142C3.7715 11.0999 3.99198 11.2472 4.23463 11.3478C4.47728 11.4483 4.73736 11.5 5 11.5C5.53043 11.5 6.03914 11.2893 6.41421 10.9142C6.78929 10.5391 7 10.0304 7 9.5C7 8.96957 6.78929 8.46086 6.41421 8.08579C6.03914 7.71071 5.53043 7.5 5 7.5ZM3.61614 9.5C3.61614 9.13298 3.76194 8.78099 4.02147 8.52147C4.28099 8.26194 4.63298 8.11614 5 8.11614C5.36702 8.11614 5.71901 8.26194 5.97853 8.52147C6.23806 8.78099 6.38386 9.13298 6.38386 9.5C6.38386 9.86702 6.23806 10.219 5.97853 10.4785C5.71901 10.7381 5.36702 10.8839 5 10.8839C4.63298 10.8839 4.28099 10.7381 4.02147 10.4785C3.76194 10.219 3.61614 9.86702 3.61614 9.5Z" fill="#4C5E72"/>
</svg>
