<svg width="64" height="65" viewBox="0 0 64 65" fill="none" xmlns="http://www.w3.org/2000/svg">
<mask id="mask0_170_5388" style="mask-type:alpha" maskUnits="userSpaceOnUse" x="0" y="0" width="64" height="65">
<path d="M32 64.1006C49.6731 64.1006 64 49.7737 64 32.1006C64 14.4275 49.6731 0.100586 32 0.100586C14.3269 0.100586 0 14.4275 0 32.1006C0 49.7737 14.3269 64.1006 32 64.1006Z" fill="white"/>
</mask>
<g mask="url(#mask0_170_5388)">
<path d="M64 0.100586H0V64.1006H64V0.100586Z" fill="#758696"/>
<g filter="url(#filter0_d_170_5388)">
<path d="M48.2911 50.6427L39.6519 46.4398C38.8371 46.0429 38.3306 45.2457 38.3306 44.3586V41.3833C38.5377 41.1369 38.7557 40.8562 38.9809 40.5465C40.1013 39.0065 40.9994 37.2922 41.6523 35.4433C42.9283 34.874 43.7567 33.6464 43.7567 32.2604V28.7404C43.7567 27.8929 43.4312 27.0719 42.8524 26.4304V21.7497C42.903 21.2657 43.102 18.3845 40.9605 16.0077C39.1029 13.9458 36.0888 12.9004 32.0002 12.9004C27.9116 12.9004 24.8975 13.9458 23.0399 16.0068C20.8984 18.3837 21.0974 21.2657 21.148 21.7497V26.4304C20.5692 27.0719 20.2437 27.8929 20.2437 28.7404V32.2604C20.2437 33.3313 20.7438 34.3301 21.5975 34.9963C22.4259 38.1881 24.1595 40.5931 24.7654 41.3649V44.2768C24.7654 45.1286 24.2879 45.9101 23.5201 46.3184L15.4524 50.6005C12.8289 51.9935 11.2002 54.6634 11.2002 57.5709V60.4204C11.2002 64.5969 24.8061 65.7004 32.0002 65.7004C39.1943 65.7004 52.8002 64.5969 52.8002 60.4204V57.7425C52.8002 54.7171 51.072 51.9961 48.2911 50.6427Z" fill="black"/>
</g>
<path d="M48.2911 50.6427L39.6519 46.4398C38.8371 46.0429 38.3306 45.2457 38.3306 44.3586V41.3833C38.5377 41.1369 38.7557 40.8562 38.9809 40.5465C40.1013 39.0065 40.9994 37.2922 41.6523 35.4433C42.9283 34.874 43.7567 33.6464 43.7567 32.2604V28.7404C43.7567 27.8929 43.4312 27.0719 42.8524 26.4304V21.7497C42.903 21.2657 43.102 18.3845 40.9605 16.0077C39.1029 13.9458 36.0888 12.9004 32.0002 12.9004C27.9116 12.9004 24.8975 13.9458 23.0399 16.0068C20.8984 18.3837 21.0974 21.2657 21.148 21.7497V26.4304C20.5692 27.0719 20.2437 27.8929 20.2437 28.7404V32.2604C20.2437 33.3313 20.7438 34.3301 21.5975 34.9963C22.4259 38.1881 24.1595 40.5931 24.7654 41.3649V44.2768C24.7654 45.1286 24.2879 45.9101 23.5201 46.3184L15.4524 50.6005C12.8289 51.9935 11.2002 54.6634 11.2002 57.5709V60.4204C11.2002 64.5969 24.8061 65.7004 32.0002 65.7004C39.1943 65.7004 52.8002 64.5969 52.8002 60.4204V57.7425C52.8002 54.7171 51.072 51.9961 48.2911 50.6427Z" fill="white"/>
</g>
<defs>
<filter id="filter0_d_170_5388" x="3.2002" y="8.90039" width="57.5996" height="68.7998" filterUnits="userSpaceOnUse" color-interpolation-filters="sRGB">
<feFlood flood-opacity="0" result="BackgroundImageFix"/>
<feColorMatrix in="SourceAlpha" type="matrix" values="0 0 0 0 0 0 0 0 0 0 0 0 0 0 0 0 0 0 127 0" result="hardAlpha"/>
<feOffset dy="4"/>
<feGaussianBlur stdDeviation="4"/>
<feColorMatrix type="matrix" values="0 0 0 0 0 0 0 0 0 0 0 0 0 0 0 0 0 0 0.161458 0"/>
<feBlend mode="normal" in2="BackgroundImageFix" result="effect1_dropShadow_170_5388"/>
<feBlend mode="normal" in="SourceGraphic" in2="effect1_dropShadow_170_5388" result="shape"/>
</filter>
</defs>
</svg>
