<svg width="21" height="20" viewBox="0 0 21 20" fill="none" xmlns="http://www.w3.org/2000/svg">
<path d="M13.4404 18.9587H8.4404C3.9154 18.9587 1.98206 17.0253 1.98206 12.5003V7.50033C1.98206 2.97533 3.9154 1.04199 8.4404 1.04199H13.4404C17.9654 1.04199 19.8988 2.97533 19.8988 7.50033V12.5003C19.8988 17.0253 17.9654 18.9587 13.4404 18.9587ZM8.4404 2.29199C4.59873 2.29199 3.23206 3.65866 3.23206 7.50033V12.5003C3.23206 16.342 4.59873 17.7087 8.4404 17.7087H13.4404C17.2821 17.7087 18.6488 16.342 18.6488 12.5003V7.50033C18.6488 3.65866 17.2821 2.29199 13.4404 2.29199H8.4404Z" fill="white" fill-opacity="0.8"/>
<path d="M10.9404 10.8337C10.4737 10.8337 10.1071 10.4587 10.1071 10.0003C10.1071 9.54199 10.4821 9.16699 10.9404 9.16699C11.3988 9.16699 11.7738 9.54199 11.7738 10.0003C11.7738 10.4587 11.4071 10.8337 10.9404 10.8337Z" fill="white" fill-opacity="0.8"/>
<path d="M14.2734 10.8337C13.8068 10.8337 13.4401 10.4587 13.4401 10.0003C13.4401 9.54199 13.8151 9.16699 14.2734 9.16699C14.7318 9.16699 15.1068 9.54199 15.1068 10.0003C15.1068 10.4587 14.7401 10.8337 14.2734 10.8337Z" fill="white" fill-opacity="0.8"/>
<path d="M7.6064 10.8337C7.13973 10.8337 6.77307 10.4587 6.77307 10.0003C6.77307 9.54199 7.14807 9.16699 7.6064 9.16699C8.06473 9.16699 8.43973 9.54199 8.43973 10.0003C8.43973 10.4587 8.07307 10.8337 7.6064 10.8337Z" fill="white" fill-opacity="0.8"/>
</svg>
