<svg width="48" height="55" viewBox="0 0 48 55" fill="none" xmlns="http://www.w3.org/2000/svg">
<path d="M14.8731 5.45142C11.6077 6.35137 8.36452 7.32994 5.1463 8.38628C4.85243 8.48147 4.59121 8.65728 4.39239 8.89369C4.19357 9.13009 4.06514 9.41759 4.02173 9.72342C2.1223 23.976 6.51087 34.3748 11.7463 41.2251C13.9629 44.1544 16.606 46.7351 19.5874 48.8811C20.7737 49.7177 21.8229 50.3211 22.6491 50.7085C23.0606 50.904 23.3966 51.0342 23.6537 51.1131C23.7662 51.1525 23.8821 51.1812 24 51.1988C24.1165 51.1799 24.2312 51.1512 24.3429 51.1131C24.6034 51.0342 24.9394 50.904 25.3509 50.7085C26.1737 50.3211 27.2263 49.7142 28.4126 48.8811C31.394 46.7351 34.037 44.1544 36.2537 41.2251C41.4891 34.3783 45.8777 23.976 43.9783 9.72342C43.9352 9.41745 43.807 9.12976 43.6081 8.89329C43.4092 8.65682 43.1478 8.48111 42.8537 8.38628C40.6217 7.65599 36.8537 6.46628 33.1269 5.45485C29.3211 4.42285 25.8206 3.65828 24 3.65828C22.1829 3.65828 18.6789 4.41943 14.8731 5.45142ZM13.9611 1.92C17.6811 0.908571 21.6343 0 24 0C26.3657 0 30.3189 0.908571 34.0388 1.92C37.8446 2.94857 41.6811 4.16571 43.9371 4.90285C44.8804 5.21434 45.7166 5.78559 46.3498 6.55097C46.9829 7.31635 47.3873 8.24481 47.5166 9.22971C49.56 24.5794 44.8183 35.9554 39.0651 43.4811C36.6255 46.7005 33.7165 49.5355 30.4354 51.8914C29.3009 52.7066 28.0988 53.4235 26.8423 54.0342C25.8823 54.4868 24.8503 54.8571 24 54.8571C23.1497 54.8571 22.1211 54.4868 21.1577 54.0342C19.9012 53.4235 18.6991 52.7066 17.5646 51.8914C14.2835 49.5354 11.3746 46.7004 8.93487 43.4811C3.18173 35.9554 -1.55998 24.5794 0.483447 9.22971C0.61266 8.24481 1.01708 7.31635 1.65025 6.55097C2.28341 5.78559 3.11964 5.21434 4.06287 4.90285C7.33781 3.82906 10.6382 2.83448 13.9611 1.92Z" fill="white"/>
<path d="M29.1429 22.2857C29.1434 23.3497 28.814 24.3876 28.1999 25.2565C27.5858 26.1254 26.7174 26.7825 25.7143 27.1371L27.0343 33.96C27.0823 34.2081 27.0749 34.4638 27.0125 34.7088C26.9501 34.9537 26.8343 35.1818 26.6734 35.3768C26.5126 35.5717 26.3106 35.7287 26.0819 35.8364C25.8533 35.9442 25.6036 36 25.3509 36H22.6491C22.3967 35.9995 22.1474 35.9433 21.9192 35.8354C21.691 35.7274 21.4894 35.5704 21.3289 35.3755C21.1684 35.1806 21.0529 34.9526 20.9907 34.708C20.9285 34.4633 20.9212 34.2078 20.9691 33.96L22.2857 27.1371C21.3969 26.8229 20.6116 26.2704 20.0155 25.54C19.4195 24.8096 19.0356 23.9294 18.906 22.9956C18.7764 22.0618 18.9059 21.1104 19.2804 20.2452C19.6549 19.3801 20.2601 18.6345 21.0297 18.09C21.7993 17.5456 22.7037 17.2231 23.6442 17.1579C24.5847 17.0926 25.525 17.2872 26.3624 17.7202C27.1998 18.1533 27.902 18.8082 28.3924 19.6133C28.8827 20.4185 29.1424 21.343 29.1429 22.2857Z" fill="white"/>
</svg>
