<svg width="10" height="14" viewBox="0 0 10 14" fill="none" xmlns="http://www.w3.org/2000/svg">
<path d="M4.99902 1C5.52946 1 6.03816 1.21071 6.41324 1.58579C6.78831 1.96086 6.99902 2.46957 6.99902 3V5H2.99902V3C2.99902 2.46957 3.20974 1.96086 3.58481 1.58579C3.95988 1.21071 4.46859 1 4.99902 1ZM7.99902 5V3C7.99902 2.20435 7.68295 1.44129 7.12034 0.87868C6.55773 0.316071 5.79467 0 4.99902 0C4.20337 0 3.44031 0.316071 2.8777 0.87868C2.31509 1.44129 1.99902 2.20435 1.99902 3V5C1.46859 5 0.959882 5.21071 0.58481 5.58579C0.209737 5.96086 -0.000976562 6.46957 -0.000976562 7V12C-0.000976562 12.5304 0.209737 13.0391 0.58481 13.4142C0.959882 13.7893 1.46859 14 1.99902 14H7.99902C8.52946 14 9.03816 13.7893 9.41324 13.4142C9.78831 13.0391 9.99902 12.5304 9.99902 12V7C9.99902 6.46957 9.78831 5.96086 9.41324 5.58579C9.03816 5.21071 8.52946 5 7.99902 5ZM1.99902 6H7.99902C8.26424 6 8.51859 6.10536 8.70613 6.29289C8.89367 6.48043 8.99902 6.73478 8.99902 7V12C8.99902 12.2652 8.89367 12.5196 8.70613 12.7071C8.51859 12.8946 8.26424 13 7.99902 13H1.99902C1.73381 13 1.47945 12.8946 1.29192 12.7071C1.10438 12.5196 0.999023 12.2652 0.999023 12V7C0.999023 6.73478 1.10438 6.48043 1.29192 6.29289C1.47945 6.10536 1.73381 6 1.99902 6Z" fill="white"/>
<path d="M4.99902 7.5C4.73638 7.5 4.47631 7.55173 4.23366 7.65224C3.99101 7.75275 3.77053 7.90007 3.58481 8.08579C3.39909 8.2715 3.25177 8.49198 3.15127 8.73463C3.05076 8.97728 2.99902 9.23736 2.99902 9.5C2.99902 9.76264 3.05076 10.0227 3.15127 10.2654C3.25177 10.508 3.39909 10.7285 3.58481 10.9142C3.77053 11.0999 3.99101 11.2472 4.23366 11.3478C4.47631 11.4483 4.73638 11.5 4.99902 11.5C5.52946 11.5 6.03816 11.2893 6.41324 10.9142C6.78831 10.5391 6.99902 10.0304 6.99902 9.5C6.99902 8.96957 6.78831 8.46086 6.41324 8.08579C6.03816 7.71071 5.52946 7.5 4.99902 7.5ZM3.61517 9.5C3.61517 9.13298 3.76097 8.78099 4.02049 8.52147C4.28001 8.26194 4.632 8.11614 4.99902 8.11614C5.36604 8.11614 5.71803 8.26194 5.97756 8.52147C6.23708 8.78099 6.38288 9.13298 6.38288 9.5C6.38288 9.86702 6.23708 10.219 5.97756 10.4785C5.71803 10.7381 5.36604 10.8839 4.99902 10.8839C4.632 10.8839 4.28001 10.7381 4.02049 10.4785C3.76097 10.219 3.61517 9.86702 3.61517 9.5Z" fill="white"/>
</svg>
