<svg width="20" height="16" viewBox="0 0 20 16" fill="none" xmlns="http://www.w3.org/2000/svg">
<path d="M3.74816 4.98449C3.74832 4.27343 3.94249 3.57448 4.31184 2.95546C4.68119 2.33645 5.21317 1.8184 5.85616 1.45159C6.49915 1.08478 7.23131 0.881658 7.98159 0.861938C8.73185 0.842218 9.47475 1.00658 10.1382 1.33906C10.8017 1.67154 11.3631 2.16085 11.7681 2.75951C12.1732 3.35817 12.4079 4.04585 12.4497 4.75581C12.4915 5.46577 12.3388 6.17391 12.0065 6.8115C11.6742 7.44909 11.1736 7.99448 10.5533 8.39474C11.8892 8.85894 13.048 9.6913 13.8804 10.7846C14.7128 11.878 15.1808 13.1823 15.2241 14.5297C15.2223 14.675 15.1612 14.814 15.0538 14.9177C14.9463 15.0213 14.8007 15.0816 14.6474 15.086C14.4941 15.0903 14.345 15.0384 14.2312 14.941C14.1174 14.8437 14.0476 14.7084 14.0366 14.5635C13.9895 13.1021 13.3435 11.7155 12.2357 10.6975C11.1279 9.6796 9.64525 9.1103 8.10195 9.1103C6.55861 9.1103 5.07594 9.6796 3.96811 10.6975C2.86027 11.7155 2.21434 13.1021 2.1672 14.5635C2.15927 14.7104 2.09094 14.8485 1.97685 14.9482C1.86276 15.0479 1.71197 15.1013 1.5568 15.097C1.40163 15.0927 1.25442 15.031 1.1467 14.9251C1.03897 14.8192 0.979306 14.6776 0.980486 14.5305C1.02368 13.1829 1.4916 11.8784 2.32402 10.7849C3.15644 9.6914 4.31526 8.85899 5.65133 8.39474C5.06457 8.01647 4.58439 7.50796 4.25267 6.91355C3.92094 6.31913 3.74774 5.65687 3.74816 4.98449ZM8.10235 1.98449C7.26247 1.98449 6.45702 2.30056 5.86315 2.86317C5.26929 3.42578 4.93566 4.18884 4.93566 4.98449C4.93566 5.78014 5.26929 6.5432 5.86315 7.10581C6.45702 7.66842 7.26247 7.98449 8.10235 7.98449C8.94215 7.98449 9.74765 7.66842 10.3414 7.10581C10.9353 6.5432 11.2689 5.78014 11.2689 4.98449C11.2689 4.18884 10.9353 3.42578 10.3414 2.86317C9.74765 2.30056 8.94215 1.98449 8.10235 1.98449ZM14.6652 4.98449C14.548 4.98449 14.434 4.99199 14.3216 5.00699C14.2431 5.02031 14.1626 5.01851 14.0849 5.0017C14.0071 4.9849 13.9338 4.95343 13.8691 4.90918C13.8045 4.86493 13.75 4.8088 13.7087 4.74415C13.6675 4.67949 13.6404 4.60763 13.6292 4.53285C13.6179 4.45807 13.6226 4.3819 13.6431 4.3089C13.6636 4.23589 13.6994 4.16753 13.7483 4.10791C13.7973 4.04829 13.8584 3.99862 13.9281 3.96187C13.9977 3.92511 14.0745 3.90203 14.1538 3.89399C14.9411 3.78614 15.744 3.92939 16.436 4.30118C17.1281 4.67298 17.67 5.25222 17.9764 5.94774C18.2829 6.64326 18.3365 7.41557 18.1289 8.14315C17.9213 8.87072 17.4642 9.5122 16.8296 9.9667C17.7625 10.3625 18.5546 11.0055 19.1103 11.8182C19.666 12.6309 19.9616 13.5786 19.9614 14.547C19.9614 14.6962 19.8989 14.8393 19.7875 14.9447C19.6762 15.0502 19.5252 15.1095 19.3677 15.1095C19.2102 15.1095 19.0592 15.0502 18.9478 14.9447C18.8365 14.8393 18.7739 14.6962 18.7739 14.547C18.7738 13.7101 18.4892 12.8955 17.9622 12.2239C17.4352 11.5522 16.6938 11.0592 15.8479 10.818L15.4252 10.698V9.441L15.7498 9.2842C16.2309 9.0533 16.6159 8.67558 16.8425 8.21192C17.0692 7.74827 17.1242 7.22578 16.9989 6.72881C16.8735 6.23184 16.575 5.7894 16.1516 5.47291C15.7282 5.15642 15.2045 4.98436 14.6652 4.98449Z" fill="#CCCCCC"/>
</svg>
