<svg width="40" height="25" viewBox="0 0 40 25" fill="none" xmlns="http://www.w3.org/2000/svg">
<path d="M0 3.75C0 2.75544 0.395088 1.80161 1.09835 1.09835C1.80161 0.395088 2.75544 0 3.75 0H36.25C37.2446 0 38.1984 0.395088 38.9016 1.09835C39.6049 1.80161 40 2.75544 40 3.75V7.5C40 7.83152 39.8683 8.14946 39.6339 8.38388C39.3995 8.6183 39.0815 8.75 38.75 8.75C37.7554 8.75 36.8016 9.14509 36.0984 9.84835C35.3951 10.5516 35 11.5054 35 12.5C35 13.4946 35.3951 14.4484 36.0984 15.1517C36.8016 15.8549 37.7554 16.25 38.75 16.25C39.0815 16.25 39.3995 16.3817 39.6339 16.6161C39.8683 16.8505 40 17.1685 40 17.5V21.25C40 22.2446 39.6049 23.1984 38.9016 23.9017C38.1984 24.6049 37.2446 25 36.25 25H3.75C2.75544 25 1.80161 24.6049 1.09835 23.9017C0.395088 23.1984 0 22.2446 0 21.25V17.5C0 17.1685 0.131696 16.8505 0.366117 16.6161C0.600537 16.3817 0.918479 16.25 1.25 16.25C2.24456 16.25 3.19839 15.8549 3.90165 15.1517C4.60491 14.4484 5 13.4946 5 12.5C5 11.5054 4.60491 10.5516 3.90165 9.84835C3.19839 9.14509 2.24456 8.75 1.25 8.75C0.918479 8.75 0.600537 8.6183 0.366117 8.38388C0.131696 8.14946 0 7.83152 0 7.5V3.75ZM3.75 2.5C3.41848 2.5 3.10054 2.6317 2.86612 2.86612C2.6317 3.10054 2.5 3.41848 2.5 3.75V6.375C3.91286 6.66189 5.18309 7.42841 6.09547 8.54468C7.00785 9.66094 7.50627 11.0583 7.50627 12.5C7.50627 13.9417 7.00785 15.3391 6.09547 16.4553C5.18309 17.5716 3.91286 18.3381 2.5 18.625V21.25C2.5 21.5815 2.6317 21.8995 2.86612 22.1339C3.10054 22.3683 3.41848 22.5 3.75 22.5H36.25C36.5815 22.5 36.8995 22.3683 37.1339 22.1339C37.3683 21.8995 37.5 21.5815 37.5 21.25V18.625C36.0871 18.3381 34.8169 17.5716 33.9045 16.4553C32.9921 15.3391 32.4937 13.9417 32.4937 12.5C32.4937 11.0583 32.9921 9.66094 33.9045 8.54468C34.8169 7.42841 36.0871 6.66189 37.5 6.375V3.75C37.5 3.41848 37.3683 3.10054 37.1339 2.86612C36.8995 2.6317 36.5815 2.5 36.25 2.5H3.75Z" fill="white"/>
<path d="M13.3887 9.26758V8.51562C13.3887 7.97526 13.5059 7.48372 13.7402 7.04102C13.9746 6.59831 14.3262 6.24349 14.7949 5.97656C15.2637 5.70964 15.8464 5.57617 16.543 5.57617C17.2591 5.57617 17.8516 5.70964 18.3203 5.97656C18.7891 6.24349 19.1374 6.59831 19.3652 7.04102C19.5996 7.48372 19.7168 7.97526 19.7168 8.51562V9.26758C19.7168 9.79492 19.5996 10.2799 19.3652 10.7227C19.1374 11.1654 18.7891 11.5202 18.3203 11.7871C17.8581 12.054 17.2754 12.1875 16.5723 12.1875C15.8626 12.1875 15.2734 12.054 14.8047 11.7871C14.3359 11.5202 13.9811 11.1654 13.7402 10.7227C13.5059 10.2799 13.3887 9.79492 13.3887 9.26758ZM15.498 8.51562V9.26758C15.498 9.46289 15.5371 9.64844 15.6152 9.82422C15.6934 10 15.8105 10.1432 15.9668 10.2539C16.1296 10.3581 16.3281 10.4102 16.5625 10.4102C16.8034 10.4102 16.9987 10.3581 17.1484 10.2539C17.2982 10.1432 17.4089 10 17.4805 9.82422C17.5586 9.64844 17.5977 9.46289 17.5977 9.26758V8.51562C17.5977 8.30729 17.5586 8.11523 17.4805 7.93945C17.4089 7.76367 17.2949 7.6237 17.1387 7.51953C16.9824 7.40885 16.7839 7.35352 16.543 7.35352C16.3151 7.35352 16.123 7.40885 15.9668 7.51953C15.8105 7.6237 15.6934 7.76367 15.6152 7.93945C15.5371 8.11523 15.498 8.30729 15.498 8.51562ZM20.1367 17.2656V16.5137C20.1367 15.9798 20.2539 15.4915 20.4883 15.0488C20.7292 14.6061 21.084 14.2513 21.5527 13.9844C22.028 13.7174 22.6139 13.584 23.3105 13.584C24.0267 13.584 24.6159 13.7174 25.0781 13.9844C25.5469 14.2513 25.8952 14.6061 26.123 15.0488C26.3574 15.4915 26.4746 15.9798 26.4746 16.5137V17.2656C26.4746 17.7995 26.3574 18.2878 26.123 18.7305C25.8952 19.1732 25.5501 19.528 25.0879 19.7949C24.6257 20.0618 24.043 20.1953 23.3398 20.1953C22.6302 20.1953 22.0378 20.0618 21.5625 19.7949C21.0872 19.528 20.7292 19.1732 20.4883 18.7305C20.2539 18.2878 20.1367 17.7995 20.1367 17.2656ZM22.2559 16.5137V17.2656C22.2559 17.4674 22.3047 17.6562 22.4023 17.832C22.5 18.0078 22.6302 18.151 22.793 18.2617C22.9557 18.3659 23.1348 18.418 23.3301 18.418C23.6296 18.418 23.8509 18.3659 23.9941 18.2617C24.1439 18.151 24.2415 18.0078 24.2871 17.832C24.3392 17.6562 24.3652 17.4674 24.3652 17.2656V16.5137C24.3652 16.3118 24.3262 16.123 24.248 15.9473C24.1699 15.7715 24.0527 15.6315 23.8965 15.5273C23.7402 15.4167 23.5449 15.3613 23.3105 15.3613C23.0762 15.3613 22.8809 15.4167 22.7246 15.5273C22.5684 15.6315 22.4512 15.7715 22.373 15.9473C22.2949 16.123 22.2559 16.3118 22.2559 16.5137ZM24.1309 7.82227L17.1875 18.9355L15.6543 18.1641L22.5977 7.05078L24.1309 7.82227Z" fill="white"/>
</svg>
