<svg width="17" height="10" viewBox="0 0 17 10" fill="none" xmlns="http://www.w3.org/2000/svg">
<path d="M0.261719 1.5C0.261719 1.10218 0.419754 0.720644 0.701059 0.43934C0.982363 0.158035 1.36389 0 1.76172 0H14.7617C15.1595 0 15.5411 0.158035 15.8224 0.43934C16.1037 0.720644 16.2617 1.10218 16.2617 1.5V3C16.2617 3.13261 16.209 3.25979 16.1153 3.35355C16.0215 3.44732 15.8943 3.5 15.7617 3.5C15.3639 3.5 14.9824 3.65804 14.7011 3.93934C14.4198 4.22064 14.2617 4.60218 14.2617 5C14.2617 5.39782 14.4198 5.77936 14.7011 6.06066C14.9824 6.34196 15.3639 6.5 15.7617 6.5C15.8943 6.5 16.0215 6.55268 16.1153 6.64645C16.209 6.74021 16.2617 6.86739 16.2617 7V8.5C16.2617 8.89782 16.1037 9.27936 15.8224 9.56066C15.5411 9.84196 15.1595 10 14.7617 10H1.76172C1.36389 10 0.982363 9.84196 0.701059 9.56066C0.419754 9.27936 0.261719 8.89782 0.261719 8.5V7C0.261719 6.86739 0.314397 6.74021 0.408165 6.64645C0.501934 6.55268 0.629111 6.5 0.761719 6.5C1.15954 6.5 1.54107 6.34196 1.82238 6.06066C2.10368 5.77936 2.26172 5.39782 2.26172 5C2.26172 4.60218 2.10368 4.22064 1.82238 3.93934C1.54107 3.65804 1.15954 3.5 0.761719 3.5C0.629111 3.5 0.501934 3.44732 0.408165 3.35355C0.314397 3.25979 0.261719 3.13261 0.261719 3V1.5ZM1.76172 1C1.62911 1 1.50193 1.05268 1.40817 1.14645C1.3144 1.24021 1.26172 1.36739 1.26172 1.5V2.55C1.82686 2.66476 2.33496 2.97136 2.69991 3.41787C3.06486 3.86438 3.26423 4.42332 3.26423 5C3.26423 5.57668 3.06486 6.13562 2.69991 6.58213C2.33496 7.02864 1.82686 7.33524 1.26172 7.45V8.5C1.26172 8.63261 1.3144 8.75979 1.40817 8.85355C1.50193 8.94732 1.62911 9 1.76172 9H14.7617C14.8943 9 15.0215 8.94732 15.1153 8.85355C15.209 8.75979 15.2617 8.63261 15.2617 8.5V7.45C14.6966 7.33524 14.1885 7.02864 13.8235 6.58213C13.4586 6.13562 13.2592 5.57668 13.2592 5C13.2592 4.42332 13.4586 3.86438 13.8235 3.41787C14.1885 2.97136 14.6966 2.66476 15.2617 2.55V1.5C15.2617 1.36739 15.209 1.24021 15.1153 1.14645C15.0215 1.05268 14.8943 1 14.7617 1H1.76172Z" fill="white"/>
<path d="M5.61719 3.70703V3.40625C5.61719 3.1901 5.66406 2.99349 5.75781 2.81641C5.85156 2.63932 5.99219 2.4974 6.17969 2.39062C6.36719 2.28385 6.60026 2.23047 6.87891 2.23047C7.16536 2.23047 7.40234 2.28385 7.58984 2.39062C7.77734 2.4974 7.91667 2.63932 8.00781 2.81641C8.10156 2.99349 8.14844 3.1901 8.14844 3.40625V3.70703C8.14844 3.91797 8.10156 4.11198 8.00781 4.28906C7.91667 4.46615 7.77734 4.60807 7.58984 4.71484C7.40495 4.82161 7.17188 4.875 6.89062 4.875C6.60677 4.875 6.37109 4.82161 6.18359 4.71484C5.99609 4.60807 5.85417 4.46615 5.75781 4.28906C5.66406 4.11198 5.61719 3.91797 5.61719 3.70703ZM6.46094 3.40625V3.70703C6.46094 3.78516 6.47656 3.85938 6.50781 3.92969C6.53906 4 6.58594 4.05729 6.64844 4.10156C6.71354 4.14323 6.79297 4.16406 6.88672 4.16406C6.98307 4.16406 7.0612 4.14323 7.12109 4.10156C7.18099 4.05729 7.22526 4 7.25391 3.92969C7.28516 3.85938 7.30078 3.78516 7.30078 3.70703V3.40625C7.30078 3.32292 7.28516 3.24609 7.25391 3.17578C7.22526 3.10547 7.17969 3.04948 7.11719 3.00781C7.05469 2.96354 6.97526 2.94141 6.87891 2.94141C6.78776 2.94141 6.71094 2.96354 6.64844 3.00781C6.58594 3.04948 6.53906 3.10547 6.50781 3.17578C6.47656 3.24609 6.46094 3.32292 6.46094 3.40625ZM8.31641 6.90625V6.60547C8.31641 6.39193 8.36328 6.19661 8.45703 6.01953C8.55339 5.84245 8.69531 5.70052 8.88281 5.59375C9.07292 5.48698 9.30729 5.43359 9.58594 5.43359C9.8724 5.43359 10.1081 5.48698 10.293 5.59375C10.4805 5.70052 10.6198 5.84245 10.7109 6.01953C10.8047 6.19661 10.8516 6.39193 10.8516 6.60547V6.90625C10.8516 7.11979 10.8047 7.3151 10.7109 7.49219C10.6198 7.66927 10.4818 7.8112 10.2969 7.91797C10.112 8.02474 9.87891 8.07812 9.59766 8.07812C9.3138 8.07812 9.07682 8.02474 8.88672 7.91797C8.69661 7.8112 8.55339 7.66927 8.45703 7.49219C8.36328 7.3151 8.31641 7.11979 8.31641 6.90625ZM9.16406 6.60547V6.90625C9.16406 6.98698 9.18359 7.0625 9.22266 7.13281C9.26172 7.20312 9.3138 7.26042 9.37891 7.30469C9.44401 7.34635 9.51562 7.36719 9.59375 7.36719C9.71354 7.36719 9.80208 7.34635 9.85938 7.30469C9.91927 7.26042 9.95833 7.20312 9.97656 7.13281C9.9974 7.0625 10.0078 6.98698 10.0078 6.90625V6.60547C10.0078 6.52474 9.99219 6.44922 9.96094 6.37891C9.92969 6.30859 9.88281 6.2526 9.82031 6.21094C9.75781 6.16667 9.67969 6.14453 9.58594 6.14453C9.49219 6.14453 9.41406 6.16667 9.35156 6.21094C9.28906 6.2526 9.24219 6.30859 9.21094 6.37891C9.17969 6.44922 9.16406 6.52474 9.16406 6.60547ZM9.91406 3.12891L7.13672 7.57422L6.52344 7.26562L9.30078 2.82031L9.91406 3.12891Z" fill="white"/>
</svg>
