<svg width="204" height="204" viewBox="0 0 204 204" fill="none" xmlns="http://www.w3.org/2000/svg">
<rect x="1" y="1" width="202" height="202" stroke="#75808D" stroke-width="2" stroke-linejoin="round" stroke-dasharray="10 10"/>
<path d="M45.75 45.75H64.5V64.5H45.75V45.75Z" fill="white" fill-opacity="0.6"/>
<path d="M83.25 27V83.25H27V27H83.25ZM73.875 36.375H36.375V73.875H73.875V36.375ZM64.5 139.5H45.75V158.25H64.5V139.5Z" fill="white" fill-opacity="0.6"/>
<path d="M83.25 120.75V177H27V120.75H83.25ZM36.375 130.125V167.625H73.875V130.125H36.375ZM139.5 45.75H158.25V64.5H139.5V45.75Z" fill="white" fill-opacity="0.6"/>
<path d="M120.75 27V83.25H177V27H120.75ZM167.625 36.375V73.875H130.125V36.375H167.625ZM102 36.375V27H111.375V45.75H102V64.5H92.625V36.375H102ZM102 83.25V64.5H111.375V83.25H102ZM83.25 102V92.625H92.625V83.25H102V102H111.375V92.625H158.25V102H120.75V111.375H92.625V102H83.25ZM83.25 102V111.375H45.75V102H36.375V111.375H27V92.625H55.125V102H83.25ZM177 111.375H167.625V92.625H177V111.375ZM167.625 111.375H158.25V130.125H177V120.75H167.625V111.375ZM130.125 111.375H148.875V120.75H139.5V130.125H130.125V111.375ZM148.875 139.5V130.125H139.5V139.5H130.125V148.875H111.375V158.25H139.5V139.5H148.875ZM148.875 139.5H177V148.875H158.25V158.25H148.875V139.5ZM111.375 130.125V139.5H120.75V120.75H92.625V130.125H111.375Z" fill="white" fill-opacity="0.6"/>
<path d="M92.625 139.5H102V167.625H139.5V177H92.625V139.5ZM177 158.25V177H148.875V167.625H167.625V158.25H177Z" fill="white" fill-opacity="0.6"/>
</svg>
