<svg width="12" height="13" viewBox="0 0 12 13" fill="none" xmlns="http://www.w3.org/2000/svg">
<path d="M4.51028 11.6395C3.68365 11.3934 2.94784 10.9365 2.36521 10.3311C2.58256 10.0735 2.71355 9.74061 2.71355 9.37719C2.71355 8.55978 2.0509 7.89713 1.23349 7.89713C1.18405 7.89713 1.13516 7.89955 1.08696 7.90429C1.0213 7.58326 0.986816 7.25087 0.986816 6.91043C0.986816 6.39473 1.06594 5.89751 1.21272 5.43023C1.21963 5.43033 1.22656 5.43038 1.23349 5.43038C2.0509 5.43038 2.71355 4.76773 2.71355 3.95033C2.71355 3.71566 2.65893 3.49375 2.56174 3.29663C3.13228 2.76613 3.82864 2.36911 4.60113 2.15527C4.84591 2.63507 5.34476 2.96363 5.92033 2.96363C6.4959 2.96363 6.99475 2.63507 7.23952 2.15527C8.01201 2.36911 8.70838 2.76613 9.27891 3.29663C9.18172 3.49375 9.12711 3.71566 9.12711 3.95033C9.12711 4.76773 9.78975 5.43038 10.6072 5.43038C10.6141 5.43038 10.621 5.43033 10.6279 5.43023C10.7747 5.89751 10.8538 6.39473 10.8538 6.91043C10.8538 7.25087 10.8194 7.58326 10.7537 7.90429C10.7055 7.89955 10.6566 7.89713 10.6072 7.89713C9.78975 7.89713 9.12711 8.55978 9.12711 9.37719C9.12711 9.74061 9.2581 10.0735 9.47544 10.3311C8.89282 10.9365 8.15701 11.3934 7.33037 11.6395C7.1396 11.0427 6.58043 10.6106 5.92033 10.6106C5.26022 10.6106 4.70106 11.0427 4.51028 11.6395Z" stroke="#CCCCCC" stroke-width="0.986702" stroke-linejoin="round"/>
<path d="M5.92009 8.63754C6.87374 8.63754 7.64682 7.86446 7.64682 6.91081C7.64682 5.95716 6.87374 5.18408 5.92009 5.18408C4.96644 5.18408 4.19336 5.95716 4.19336 6.91081C4.19336 7.86446 4.96644 8.63754 5.92009 8.63754Z" stroke="#CCCCCC" stroke-width="0.986702" stroke-linejoin="round"/>
</svg>
