<svg width="19" height="19" viewBox="0 0 19 19" fill="none" xmlns="http://www.w3.org/2000/svg">
<path fill-rule="evenodd" clip-rule="evenodd" d="M6.36069 13.0316L6.03131 17.4278C6.00816 17.7367 6.28279 17.9495 6.52843 17.8118C8.26761 16.8376 13.7155 13.2594 16.4767 5.39528C16.6033 5.03453 16.2631 4.709 15.9726 4.91249C14.3416 6.05475 10.777 8.41558 8.57422 8.86531C8.57422 8.86531 9.98489 7.88547 10.8293 6.38137C10.912 6.23395 10.9052 6.04517 10.8129 5.91208L7.73366 1.47388C7.55117 1.21079 7.17667 1.31979 7.11076 1.65515L6.15215 6.53294L1.65273 10.4599C1.42714 10.6567 1.47316 11.0544 1.73362 11.1598L6.36069 13.0316Z" fill="#959595" fill-opacity="0.85"/>
<path d="M6.55896 12.9085L6.54868 13.0457L6.2193 17.4419L6.03131 17.4278L6.2193 17.4419C6.21218 17.5369 6.25089 17.6045 6.29439 17.6381C6.33498 17.6695 6.38366 17.6768 6.43625 17.6473L6.43631 17.6473C8.15263 16.6859 13.5583 13.1381 16.2988 5.33283C16.3377 5.22209 16.3027 5.12824 16.2507 5.07847C16.203 5.0328 16.1445 5.02221 16.0807 5.0669L6.55896 12.9085ZM6.55896 12.9085L6.43139 12.8568L1.80431 10.985L1.8043 10.985C1.7522 10.9639 1.70804 10.9078 1.69817 10.8225C1.68836 10.7376 1.71731 10.6537 1.77666 10.6019L1.77669 10.6019L6.27611 6.67497L6.3247 6.63257L6.33713 6.56929L7.29574 1.6915C7.31599 1.58847 7.37847 1.53644 7.43117 1.52111C7.4796 1.50701 7.53463 1.5177 7.57876 1.58132L7.57877 1.58134L10.6579 6.01951C10.7071 6.09041 10.7141 6.20142 10.6649 6.28909C10.2552 7.01881 9.70578 7.625 9.25563 8.05035C9.03109 8.26252 8.83259 8.42845 8.69068 8.54101C8.61976 8.59726 8.56306 8.64011 8.52443 8.66867C8.50511 8.68294 8.49032 8.69364 8.48054 8.70065L8.46967 8.70837L8.46716 8.71013L8.46667 8.71048M6.55896 12.9085L8.46667 8.71048M8.46667 8.71048L8.46667 8.71048L8.46662 8.71051L8.46679 8.71075M8.46667 8.71048L8.46679 8.71075M8.46679 8.71075L8.61193 9.05001C9.74571 8.81854 11.2104 8.10181 12.5819 7.31196C13.959 6.51886 15.2629 5.63961 16.0807 5.0669L15.9726 4.91249L8.46679 8.71075Z" stroke="#959595" stroke-opacity="0.85" stroke-width="0.377034"/>
<path fill-rule="evenodd" clip-rule="evenodd" d="M14.318 11.2993C14.033 11.6969 13.4192 12.5147 12.8525 13.0146C12.7392 13.1145 12.7544 13.282 12.8844 13.3637L15.8789 15.2434C16.0591 15.3566 16.3026 15.2223 16.2722 15.026C16.1329 14.1276 15.7315 12.2546 14.717 11.2714C14.6036 11.1617 14.4083 11.1732 14.318 11.2993Z" fill="#959595" fill-opacity="0.85"/>
<path d="M16.2722 15.026C16.3026 15.2223 16.0591 15.3566 15.8789 15.2434L12.8844 13.3637C12.7544 13.282 12.7392 13.1145 12.8525 13.0146C13.4192 12.5147 14.033 11.6969 14.318 11.2993M16.2722 15.026L12.9847 13.204C12.9677 13.1934 12.9653 13.1828 12.965 13.1788C12.9647 13.1761 12.965 13.1732 12.9663 13.1701C12.9675 13.1671 12.9703 13.162 12.9772 13.1559L12.9772 13.1559C13.5617 12.6404 14.1865 11.8064 14.4712 11.4091L14.318 11.2993M16.2722 15.026C16.1329 14.1276 15.7315 12.2546 14.717 11.2714C14.6036 11.1617 14.4083 11.1732 14.318 11.2993M16.2722 15.026L14.4712 11.4091M14.318 11.2993L14.4712 11.4091M14.4712 11.4091C14.4793 11.3978 14.4956 11.3867 14.5213 11.385C14.5473 11.3833 14.5708 11.3923 14.5858 11.4068C15.0622 11.8685 15.4041 12.5503 15.6447 13.2424C15.8842 13.9313 16.0172 14.612 16.0859 15.0549L16.0859 15.0549C16.0869 15.0611 16.0858 15.0641 16.0842 15.0671C16.0817 15.0715 16.0756 15.079 16.0634 15.0857C16.0379 15.0998 16.0057 15.1004 15.9791 15.0838C15.9791 15.0838 15.9791 15.0838 15.9791 15.0838L12.9847 13.2041L14.4712 11.4091Z" stroke="#959595" stroke-opacity="0.85" stroke-width="0.377034"/>
</svg>
