<svg width="48" height="48" viewBox="0 0 48 48" fill="none" xmlns="http://www.w3.org/2000/svg">
<path fill-rule="evenodd" clip-rule="evenodd" d="M31.0627 18.4374C31.2024 18.5768 31.3133 18.7423 31.3889 18.9246C31.4645 19.1068 31.5034 19.3022 31.5034 19.4995C31.5034 19.6969 31.4645 19.8923 31.3889 20.0745C31.3133 20.2568 31.2024 20.4223 31.0627 20.5617L22.0618 29.5626C21.9225 29.7023 21.7569 29.8131 21.5747 29.8887C21.3924 29.9644 21.197 30.0033 20.9997 30.0033C20.8024 30.0033 20.607 29.9644 20.4247 29.8887C20.2425 29.8131 20.0769 29.7023 19.9376 29.5626L15.4371 25.0621C15.2977 24.9226 15.187 24.757 15.1115 24.5748C15.036 24.3926 14.9972 24.1973 14.9972 24C14.9972 23.8027 15.036 23.6074 15.1115 23.4252C15.187 23.243 15.2977 23.0774 15.4371 22.9379C15.5766 22.7984 15.7422 22.6878 15.9244 22.6123C16.1067 22.5368 16.302 22.498 16.4992 22.498C16.6965 22.498 16.8918 22.5368 17.0741 22.6123C17.2563 22.6878 17.4219 22.7984 17.5614 22.9379L20.9997 26.3792L28.9385 18.4374C29.0778 18.2977 29.2434 18.1869 29.4256 18.1113C29.6079 18.0356 29.8033 17.9967 30.0006 17.9967C30.1979 17.9967 30.3933 18.0356 30.5756 18.1113C30.7578 18.1869 30.9234 18.2977 31.0627 18.4374Z" fill="white"/>
<path d="M30.8197 7.53734L28.0564 4.70506L30.2016 2.61085L32.0678 4.52204L34.7381 4.48904C35.8939 4.47536 37.0409 4.69293 38.1114 5.12897C39.182 5.565 40.1546 6.21069 40.9719 7.02807C41.7893 7.84545 42.435 8.81801 42.871 9.88857C43.3071 10.9591 43.5246 12.1061 43.511 13.2619L43.481 15.9322L45.3892 17.7984C46.2156 18.606 46.8723 19.5706 47.3207 20.6356C47.769 21.7006 48 22.8445 48 24C48 25.1555 47.769 26.2994 47.3207 27.3644C46.8723 28.4294 46.2156 29.394 45.3892 30.2016L43.478 32.0678L43.511 34.7381C43.5246 35.8939 43.3071 37.0409 42.871 38.1114C42.435 39.182 41.7893 40.1546 40.9719 40.9719C40.1546 41.7893 39.182 42.435 38.1114 42.871C37.0409 43.3071 35.8939 43.5246 34.7381 43.511L32.0678 43.481L30.2016 45.3892C29.394 46.2156 28.4294 46.8723 27.3644 47.3207C26.2994 47.769 25.1555 48 24 48C22.8445 48 21.7006 47.769 20.6356 47.3207C19.5706 46.8723 18.606 46.2156 17.7984 45.3892L15.9322 43.478L13.2619 43.511C12.1061 43.5246 10.9591 43.3071 9.88857 42.871C8.81801 42.435 7.84545 41.7893 7.02807 40.9719C6.21069 40.1546 5.565 39.182 5.12897 38.1114C4.69293 37.0409 4.47536 35.8939 4.48904 34.7381L4.51904 32.0678L2.61085 30.2016C1.78439 29.394 1.12768 28.4294 0.679323 27.3644C0.230965 26.2994 0 25.1555 0 24C0 22.8445 0.230965 21.7006 0.679323 20.6356C1.12768 19.5706 1.78439 18.606 2.61085 17.7984L4.52204 15.9322L4.48904 13.2619C4.47536 12.1061 4.69293 10.9591 5.12897 9.88857C5.565 8.81801 6.21069 7.84545 7.02807 7.02807C7.84545 6.21069 8.81801 5.565 9.88857 5.12897C10.9591 4.69293 12.1061 4.47536 13.2619 4.48904L15.9322 4.51904L17.7984 2.61085C18.606 1.78439 19.5706 1.12768 20.6356 0.679323C21.7006 0.230965 22.8445 0 24 0C25.1555 0 26.2994 0.230965 27.3644 0.679323C28.4294 1.12768 29.394 1.78439 30.2016 2.61085L28.0564 4.70506C27.5282 4.16436 26.8973 3.73472 26.2007 3.44138C25.5041 3.14804 24.7559 2.99693 24 2.99693C23.2441 2.99693 22.4959 3.14804 21.7993 3.44138C21.1027 3.73472 20.4718 4.16436 19.9436 4.70506L17.1833 7.53734L13.2229 7.48934C12.4674 7.48089 11.7178 7.62353 11.0181 7.90886C10.3185 8.1942 9.68292 8.61648 9.14877 9.15091C8.61463 9.68533 8.19268 10.3211 7.90771 11.0209C7.62274 11.7207 7.4805 12.4704 7.48934 13.2259L7.53734 17.1803L4.70506 19.9436C4.16436 20.4718 3.73472 21.1027 3.44138 21.7993C3.14804 22.4959 2.99693 23.2441 2.99693 24C2.99693 24.7559 3.14804 25.5041 3.44138 26.2007C3.73472 26.8973 4.16436 27.5282 4.70506 28.0564L7.53734 30.8167L7.48934 34.7771C7.48089 35.5326 7.62353 36.2822 7.90886 36.9819C8.1942 37.6815 8.61648 38.3171 9.15091 38.8512C9.68533 39.3854 10.3211 39.8073 11.0209 40.0923C11.7207 40.3773 12.4704 40.5195 13.2259 40.5107L17.1803 40.4627L19.9436 43.2949C20.4718 43.8356 21.1027 44.2653 21.7993 44.5586C22.4959 44.852 23.2441 45.0031 24 45.0031C24.7559 45.0031 25.5041 44.852 26.2007 44.5586C26.8973 44.2653 27.5282 43.8356 28.0564 43.2949L30.8167 40.4627L34.7771 40.5107C35.5326 40.5191 36.2822 40.3765 36.9819 40.0911C37.6815 39.8058 38.3171 39.3835 38.8512 38.8491C39.3854 38.3147 39.8073 37.6789 40.0923 36.9791C40.3773 36.2793 40.5195 35.5296 40.5107 34.7741L40.4627 30.8197L43.2949 28.0564C43.8356 27.5282 44.2653 26.8973 44.5586 26.2007C44.852 25.5041 45.0031 24.7559 45.0031 24C45.0031 23.2441 44.852 22.4959 44.5586 21.7993C44.2653 21.1027 43.8356 20.4718 43.2949 19.9436L40.4627 17.1833L40.5107 13.2229C40.5191 12.4674 40.3765 11.7178 40.0911 11.0181C39.8058 10.3185 39.3835 9.68292 38.8491 9.14877C38.3147 8.61463 37.6789 8.19268 36.9791 7.90771C36.2793 7.62274 35.5296 7.4805 34.7741 7.48934L30.8197 7.53734Z" fill="white"/>
</svg>
