<svg width="8" height="10" viewBox="0 0 8 10" fill="none" xmlns="http://www.w3.org/2000/svg">
<path d="M5.60045 1.93073C5.70117 1.98791 5.82041 2.00294 5.93217 1.97254C6.04392 1.94214 6.13912 1.86877 6.19698 1.76844C6.24486 1.68394 6.31944 1.61772 6.409 1.58017C6.49857 1.54262 6.59807 1.53586 6.6919 1.56094C6.78572 1.58603 6.86857 1.64155 6.92744 1.71879C6.98632 1.79603 7.01789 1.89063 7.01721 1.98775C7.01721 2.10408 6.971 2.21565 6.88874 2.29791C6.80648 2.38016 6.69492 2.42638 6.57859 2.42638C6.46226 2.42638 6.35069 2.47259 6.26843 2.55485C6.18617 2.63711 6.13996 2.74867 6.13996 2.865C6.13996 2.98133 6.18617 3.0929 6.26843 3.17516C6.35069 3.25742 6.46226 3.30363 6.57859 3.30363C6.80953 3.30348 7.03638 3.24255 7.23632 3.12696C7.43626 3.01138 7.60226 2.8452 7.71764 2.64514C7.83302 2.44508 7.89371 2.21817 7.89362 1.98722C7.89353 1.75628 7.83265 1.52942 7.71711 1.32945C7.60157 1.12948 7.43544 0.963437 7.23541 0.848011C7.03537 0.732585 6.80848 0.671838 6.57753 0.671875C6.34658 0.671912 6.11971 0.732731 5.91971 0.848222C5.71971 0.963712 5.55363 1.12981 5.43816 1.32981C5.40916 1.37987 5.39035 1.43518 5.38281 1.49254C5.37527 1.54991 5.37916 1.60819 5.39424 1.66405C5.40933 1.7199 5.43531 1.77222 5.4707 1.81799C5.50609 1.86376 5.55019 1.90207 5.60045 1.93073ZM7.48654 5.05813C7.3714 5.04319 7.25504 5.0745 7.16295 5.14521C7.07086 5.21592 7.01057 5.32025 6.99528 5.43535C6.90323 6.17889 6.5425 6.86311 5.98101 7.35916C5.41953 7.8552 4.69605 8.12883 3.94683 8.12851H1.49492L1.78002 7.8434C1.86172 7.76122 1.90757 7.65005 1.90757 7.53417C1.90757 7.41829 1.86172 7.30712 1.78002 7.22494C1.35234 6.79558 1.06129 6.24925 0.943518 5.65478C0.82575 5.06031 0.886539 4.44428 1.11823 3.88429C1.34991 3.32431 1.74213 2.8454 2.24549 2.50791C2.74884 2.17042 3.34081 1.98943 3.94683 1.98775C4.06316 1.98775 4.17473 1.94154 4.25699 1.85928C4.33925 1.77702 4.38546 1.66546 4.38546 1.54913C4.38546 1.43279 4.33925 1.32123 4.25699 1.23897C4.17473 1.15671 4.06316 1.1105 3.94683 1.1105C3.20522 1.11359 2.47948 1.32553 1.85275 1.72203C1.22602 2.11853 0.723653 2.68355 0.403207 3.35237C0.0827608 4.02118 -0.0428053 4.76674 0.0408939 5.50362C0.124593 6.24051 0.414172 6.93891 0.876455 7.51882L0.126406 8.25571C0.0655432 8.31739 0.0243141 8.39572 0.00792085 8.48081C-0.00847239 8.56589 0.000704826 8.65393 0.0342945 8.73381C0.0672002 8.81391 0.12308 8.88248 0.194892 8.93088C0.266704 8.97927 0.351234 9.00533 0.43783 9.00576H3.94683C4.90806 9.00589 5.83631 8.6553 6.55745 8.01976C7.27859 7.38422 7.74307 6.5074 7.86376 5.55378C7.87178 5.49643 7.86837 5.43806 7.85372 5.38204C7.83907 5.32602 7.81347 5.27345 7.7784 5.22737C7.74333 5.18129 7.69949 5.14261 7.64939 5.11357C7.5993 5.08452 7.54395 5.06568 7.48654 5.05813ZM6.74526 3.77296C6.66541 3.73763 6.57683 3.72694 6.49086 3.74225L6.41191 3.76857L6.33296 3.80805L6.26716 3.86507C6.22771 3.90549 6.19643 3.95315 6.17505 4.00543C6.14912 4.06014 6.13706 4.1204 6.13996 4.18088C6.13868 4.23938 6.14912 4.29754 6.17066 4.35194C6.19335 4.40458 6.22613 4.45227 6.26716 4.4923C6.30815 4.53295 6.35675 4.56512 6.41019 4.58694C6.46364 4.60877 6.52086 4.61984 6.57859 4.6195C6.69492 4.6195 6.80648 4.57329 6.88874 4.49103C6.971 4.40877 7.01721 4.29721 7.01721 4.18088C7.01869 4.12334 7.00668 4.06626 6.98212 4.0142C6.93499 3.9088 6.85066 3.82447 6.74526 3.77734V3.77296Z" fill="#C8C8C8"/>
</svg>
