<svg width="12" height="9" viewBox="0 0 12 9" fill="none" xmlns="http://www.w3.org/2000/svg">
<path d="M11.4628 2.95394L9.17693 0.668064C9.12365 0.614781 9.0604 0.572515 8.99078 0.543679C8.92116 0.514842 8.84655 0.5 8.77119 0.5C8.61901 0.5 8.47306 0.560455 8.36545 0.668064C8.25784 0.775674 8.19739 0.921624 8.19739 1.07381C8.19739 1.22599 8.25784 1.37194 8.36545 1.47955L9.67983 2.78821H3.0565C2.90494 2.78821 2.75959 2.84842 2.65241 2.95559C2.54524 3.06276 2.48503 3.20812 2.48503 3.35968C2.48503 3.51125 2.54524 3.6566 2.65241 3.76377C2.75959 3.87094 2.90494 3.93115 3.0565 3.93115H11.0571C11.1699 3.93059 11.28 3.89664 11.3736 3.83359C11.4671 3.77054 11.5399 3.6812 11.5828 3.57684C11.6266 3.47277 11.6385 3.35807 11.6172 3.24721C11.5958 3.13635 11.5421 3.0343 11.4628 2.95394ZM8.77119 5.07409H0.770628C0.657805 5.07465 0.547674 5.1086 0.454113 5.17165C0.360552 5.2347 0.287748 5.32404 0.244876 5.4284C0.201114 5.53247 0.189157 5.64717 0.210515 5.75803C0.231873 5.86889 0.285589 5.97094 0.364885 6.0513L2.65076 8.33718C2.70389 8.39074 2.76709 8.43325 2.83673 8.46227C2.90637 8.49128 2.98106 8.50622 3.0565 8.50622C3.13194 8.50622 3.20664 8.49128 3.27628 8.46227C3.34592 8.43325 3.40912 8.39074 3.46225 8.33718C3.51581 8.28405 3.55832 8.22085 3.58734 8.15121C3.61635 8.08157 3.63129 8.00687 3.63129 7.93143C3.63129 7.85599 3.61635 7.7813 3.58734 7.71166C3.55832 7.64202 3.51581 7.57882 3.46225 7.52569L2.14787 6.21703H8.77119C8.92276 6.21703 9.06811 6.15682 9.17528 6.04965C9.28245 5.94248 9.34266 5.79712 9.34266 5.64556C9.34266 5.494 9.28245 5.34864 9.17528 5.24147C9.06811 5.1343 8.92276 5.07409 8.77119 5.07409Z" fill="white"/>
</svg>
