<svg width="14" height="14" viewBox="0 0 14 14" fill="none" xmlns="http://www.w3.org/2000/svg">
<path d="M11.3122 4.17255C11.258 4.11787 11.1935 4.07448 11.1224 4.04486C11.0513 4.01525 10.975 4 10.898 4C10.821 4 10.7448 4.01525 10.6737 4.04486C10.6026 4.07448 10.5381 4.11787 10.4839 4.17255L5.83612 9.08765L4.01029 7.25598C3.95398 7.20159 3.88752 7.15882 3.81469 7.13012C3.74185 7.10142 3.66408 7.08734 3.58581 7.0887C3.50754 7.09005 3.4303 7.10681 3.3585 7.13801C3.28671 7.16922 3.22176 7.21426 3.16737 7.27056C3.11298 7.32687 3.07022 7.39333 3.04151 7.46616C3.01281 7.539 2.99874 7.61677 3.00009 7.69504C3.00144 7.77331 3.0182 7.85055 3.04941 7.92235C3.08061 7.99414 3.12565 8.05909 3.18195 8.11348L5.42195 10.3535C5.47618 10.4082 5.5407 10.4516 5.61178 10.4812C5.68287 10.5108 5.75911 10.526 5.83612 10.526C5.91313 10.526 5.98937 10.5108 6.06046 10.4812C6.13154 10.4516 6.19606 10.4082 6.25029 10.3535L11.3122 5.03005C11.3714 4.97542 11.4187 4.90913 11.451 4.83534C11.4833 4.76154 11.5 4.68186 11.5 4.6013C11.5 4.52074 11.4833 4.44105 11.451 4.36726C11.4187 4.29347 11.3714 4.22717 11.3122 4.17255Z" fill="white"/>
</svg>
