<svg width="23" height="19" viewBox="0 0 23 19" fill="none" xmlns="http://www.w3.org/2000/svg">
<path d="M1.30286 12.1517C1.48316 12.1517 1.65607 12.2233 1.78356 12.3508C1.91105 12.4783 1.98267 12.6512 1.98267 12.8315V16.2306C1.98267 16.5912 2.12592 16.937 2.3809 17.192C2.63588 17.4469 2.9817 17.5902 3.3423 17.5902H19.6578C20.0184 17.5902 20.3642 17.4469 20.6192 17.192C20.8742 16.937 21.0174 16.5912 21.0174 16.2306V12.8315C21.0174 12.6512 21.089 12.4783 21.2165 12.3508C21.344 12.2233 21.5169 12.1517 21.6972 12.1517C21.8775 12.1517 22.0504 12.2233 22.1779 12.3508C22.3054 12.4783 22.377 12.6512 22.377 12.8315V16.2306C22.377 16.9517 22.0906 17.6434 21.5806 18.1534C21.0706 18.6633 20.379 18.9498 19.6578 18.9498H3.3423C2.62111 18.9498 1.92945 18.6633 1.4195 18.1534C0.909538 17.6434 0.623047 16.9517 0.623047 16.2306V12.8315C0.623047 12.6512 0.69467 12.4783 0.822159 12.3508C0.949649 12.2233 1.12256 12.1517 1.30286 12.1517Z" fill="white"/>
<path d="M11.0187 0.249525C11.0819 0.186217 11.1569 0.135988 11.2395 0.101717C11.3221 0.0674455 11.4106 0.0498047 11.5 0.0498047C11.5895 0.0498047 11.678 0.0674455 11.7606 0.101717C11.8432 0.135988 11.9182 0.186217 11.9814 0.249525L16.0602 4.3284C16.1879 4.45605 16.2596 4.62918 16.2596 4.80971C16.2596 4.99023 16.1879 5.16336 16.0602 5.29101C15.9326 5.41866 15.7594 5.49038 15.5789 5.49038C15.3984 5.49038 15.2253 5.41866 15.0976 5.29101L12.1799 2.3719V14.3271C12.1799 14.5074 12.1082 14.6803 11.9807 14.8078C11.8533 14.9353 11.6803 15.0069 11.5 15.0069C11.3197 15.0069 11.1468 14.9353 11.0193 14.8078C10.8919 14.6803 10.8202 14.5074 10.8202 14.3271V2.3719L7.90248 5.29101C7.83927 5.35422 7.76424 5.40436 7.68165 5.43857C7.59907 5.47277 7.51056 5.49038 7.42117 5.49038C7.33178 5.49038 7.24327 5.47277 7.16069 5.43857C7.07811 5.40436 7.00307 5.35422 6.93986 5.29101C6.87666 5.22781 6.82652 5.15277 6.79231 5.07019C6.75811 4.98761 6.7405 4.89909 6.7405 4.80971C6.7405 4.72032 6.75811 4.63181 6.79231 4.54923C6.82652 4.46664 6.87666 4.39161 6.93986 4.3284L11.0187 0.249525Z" fill="white"/>
</svg>
