<svg width="19" height="17" viewBox="0 0 19 17" fill="none" xmlns="http://www.w3.org/2000/svg">
<path fill-rule="evenodd" clip-rule="evenodd" d="M3.02165 4.82276C2.83075 4.82276 2.64767 4.89859 2.51268 5.03358C2.3777 5.16856 2.30186 5.35164 2.30186 5.54254L2.302 14.786C2.302 14.9769 2.37784 15.16 2.51282 15.295C2.64781 15.43 2.83089 15.5058 3.02178 15.5058H15.9778C16.1687 15.5058 16.3518 15.43 16.4868 15.295C16.6218 15.16 16.6976 14.9769 16.6976 14.786L16.6975 5.54254C16.6975 5.35164 16.6216 5.16856 16.4866 5.03358C16.3517 4.89859 16.1686 4.82276 15.9777 4.82276H13.0986C12.9077 4.82276 12.7246 4.74693 12.5896 4.61194C12.4546 4.47696 12.3788 4.29388 12.3788 4.10298C12.3788 3.91208 12.4546 3.729 12.5896 3.59402C12.7246 3.45903 12.9077 3.3832 13.0986 3.3832H15.9777C16.5504 3.3832 17.0996 3.6107 17.5046 4.01566C17.9095 4.42061 18.137 4.96985 18.137 5.54254L18.1372 14.786C18.1372 15.3587 17.9097 15.908 17.5047 16.3129C17.0998 16.7179 16.5505 16.9454 15.9778 16.9454H3.02178C2.44909 16.9454 1.89985 16.7179 1.4949 16.3129C1.08994 15.908 0.862443 15.3587 0.862443 14.786L0.862305 5.54254C0.862305 4.96985 1.08981 4.42061 1.49476 4.01566C1.89972 3.6107 2.44895 3.3832 3.02165 3.3832H5.90077C6.09166 3.3832 6.27474 3.45903 6.40973 3.59402C6.54471 3.729 6.62055 3.91208 6.62055 4.10298C6.62055 4.29388 6.54471 4.47696 6.40973 4.61194C6.27474 4.74693 6.09166 4.82276 5.90077 4.82276H3.02165Z" fill="white"/>
<path fill-rule="evenodd" clip-rule="evenodd" d="M8.99006 13.2501C9.05692 13.3171 9.13635 13.3703 9.2238 13.4066C9.31124 13.4428 9.40499 13.4615 9.49967 13.4615C9.59434 13.4615 9.68809 13.4428 9.77553 13.4066C9.86298 13.3703 9.94241 13.3171 10.0093 13.2501L14.328 8.93137C14.4631 8.79622 14.539 8.61291 14.539 8.42177C14.539 8.23063 14.4631 8.04732 14.328 7.91217C14.1928 7.77701 14.0095 7.70108 13.8183 7.70108C13.6272 7.70108 13.4439 7.77701 13.3087 7.91217L10.2194 11.0029L10.2201 0.975151C10.2201 0.784254 10.1443 0.601175 10.0093 0.46619C9.87429 0.331205 9.69121 0.255371 9.50031 0.255371C9.30941 0.255371 9.12633 0.331205 8.99135 0.46619C8.85636 0.601175 8.78053 0.784254 8.78053 0.975151L8.77989 11.0029L5.69059 7.91217C5.55543 7.77701 5.37212 7.70108 5.18099 7.70108C4.98985 7.70108 4.80654 7.77701 4.67138 7.91217C4.53623 8.04732 4.4603 8.23063 4.4603 8.42177C4.4603 8.61291 4.53623 8.79622 4.67138 8.93137L8.99006 13.2501Z" fill="white"/>
</svg>
