<svg width="19" height="17" viewBox="0 0 19 17" fill="none" xmlns="http://www.w3.org/2000/svg">
<path d="M14.2045 9.80655L18.6522 12.5858C18.7059 12.6194 18.7489 12.6676 18.7762 12.7247C18.8035 12.7819 18.814 12.8457 18.8064 12.9086C18.7988 12.9715 18.7734 13.0309 18.7332 13.0799C18.693 13.1289 18.6397 13.1654 18.5795 13.1852L14.6876 14.4651C14.6412 14.4804 14.592 14.4852 14.5435 14.4794C14.495 14.4735 14.4483 14.457 14.4069 14.4311C14.3655 14.4052 14.3302 14.3705 14.3037 14.3295C14.2771 14.2885 14.2599 14.2421 14.2533 14.1937L13.6975 10.1346C13.6889 10.0718 13.6984 10.0079 13.7248 9.95032C13.7512 9.89273 13.7935 9.84387 13.8467 9.80945C13.8999 9.77502 13.9618 9.75647 14.0252 9.75596C14.0885 9.75544 14.1507 9.77299 14.2045 9.80655ZM0.348227 4.29383L4.7959 7.07304C4.84964 7.1066 4.91184 7.12415 4.9752 7.12364C5.03856 7.12312 5.10046 7.10457 5.15365 7.07015C5.20685 7.03572 5.24914 6.98686 5.27556 6.92927C5.30199 6.87168 5.31146 6.80776 5.30287 6.74498L4.74713 2.68587C4.74048 2.63746 4.72327 2.59111 4.69672 2.55008C4.67017 2.50906 4.63492 2.47438 4.59349 2.44848C4.55205 2.42259 4.50542 2.40612 4.45691 2.40024C4.40841 2.39436 4.3592 2.39921 4.31277 2.41445L0.420842 3.69435C0.360653 3.71415 0.307351 3.75069 0.267177 3.79968C0.227003 3.84868 0.20162 3.90811 0.194001 3.97101C0.186381 4.03391 0.196841 4.09768 0.224155 4.15486C0.251468 4.21203 0.294505 4.26023 0.348227 4.29383Z" fill="white"/>
<path fill-rule="evenodd" clip-rule="evenodd" d="M13.0343 2.78406C11.2787 1.68708 9.20899 1.50573 7.38646 2.11428C7.30262 2.14538 7.2134 2.15929 7.12408 2.15521C7.03476 2.15113 6.94718 2.12912 6.86654 2.09051C6.78589 2.0519 6.71384 1.99747 6.65465 1.93045C6.59547 1.86343 6.55037 1.78519 6.52202 1.70039C6.49368 1.61559 6.48268 1.52596 6.48967 1.43683C6.49667 1.34769 6.52152 1.26087 6.56274 1.18153C6.60396 1.10219 6.66071 1.03194 6.72962 0.974976C6.79854 0.918008 6.8782 0.875479 6.96388 0.849917C8.41867 0.364712 9.98221 0.307568 11.4685 0.685284C12.9549 1.063 14.3014 1.85968 15.3481 2.98057C16.3947 4.10145 17.0974 5.49937 17.3725 7.00806C17.6476 8.51675 17.4836 10.0727 16.9 11.4909L15.7496 10.7721C16.2866 9.33159 16.3097 7.74988 15.8149 6.29437C15.3201 4.83886 14.3379 3.59887 13.0343 2.78406ZM3.25075 6.10753C2.81135 7.28722 2.71467 8.56716 2.97188 9.79948C3.22909 11.0318 3.8297 12.1662 4.70432 13.0716C5.57893 13.977 6.69187 14.6165 7.91454 14.9163C9.13722 15.216 10.4197 15.1636 11.6139 14.7653C11.6978 14.7342 11.787 14.7203 11.8763 14.7244C11.9656 14.7285 12.0532 14.7505 12.1338 14.7891C12.2145 14.8277 12.2865 14.8821 12.3457 14.9491C12.4049 15.0162 12.45 15.0944 12.4784 15.1792C12.5067 15.264 12.5177 15.3536 12.5107 15.4428C12.5037 15.5319 12.4789 15.6187 12.4376 15.6981C12.3964 15.7774 12.3397 15.8477 12.2708 15.9046C12.2018 15.9616 12.1222 16.0041 12.0365 16.0297C10.5817 16.5149 9.01817 16.572 7.53185 16.1943C6.04552 15.8166 4.69895 15.0199 3.65232 13.899C2.60568 12.7781 1.90301 11.3802 1.62788 9.87153C1.35276 8.36284 1.51676 6.80687 2.10037 5.38869L3.25075 6.10753Z" fill="white"/>
</svg>
