<svg width="48" height="37" viewBox="0 0 48 37" fill="none" xmlns="http://www.w3.org/2000/svg">
<path d="M15 18.2017C16.5913 18.2017 18.1174 17.5695 19.2426 16.4443C20.3679 15.3191 21 13.793 21 12.2017C21 10.6104 20.3679 9.08424 19.2426 7.95902C18.1174 6.8338 16.5913 6.20166 15 6.20166C13.4087 6.20166 11.8826 6.8338 10.7574 7.95902C9.63214 9.08424 9 10.6104 9 12.2017C9 13.793 9.63214 15.3191 10.7574 16.4443C11.8826 17.5695 13.4087 18.2017 15 18.2017ZM27 10.7017C27 10.3038 27.158 9.92231 27.4393 9.641C27.7206 9.3597 28.1022 9.20166 28.5 9.20166H40.5C40.8978 9.20166 41.2794 9.3597 41.5607 9.641C41.842 9.92231 42 10.3038 42 10.7017C42 11.0995 41.842 11.481 41.5607 11.7623C41.2794 12.0436 40.8978 12.2017 40.5 12.2017H28.5C28.1022 12.2017 27.7206 12.0436 27.4393 11.7623C27.158 11.481 27 11.0995 27 10.7017ZM27 18.2017C27 17.8038 27.158 17.4223 27.4393 17.141C27.7206 16.8597 28.1022 16.7017 28.5 16.7017H40.5C40.8978 16.7017 41.2794 16.8597 41.5607 17.141C41.842 17.4223 42 17.8038 42 18.2017C42 18.5995 41.842 18.981 41.5607 19.2623C41.2794 19.5436 40.8978 19.7017 40.5 19.7017H28.5C28.1022 19.7017 27.7206 19.5436 27.4393 19.2623C27.158 18.981 27 18.5995 27 18.2017ZM30 25.7017C30 25.3038 30.158 24.9223 30.4393 24.641C30.7206 24.3597 31.1022 24.2017 31.5 24.2017H40.5C40.8978 24.2017 41.2794 24.3597 41.5607 24.641C41.842 24.9223 42 25.3038 42 25.7017C42 26.0995 41.842 26.481 41.5607 26.7623C41.2794 27.0436 40.8978 27.2017 40.5 27.2017H31.5C31.1022 27.2017 30.7206 27.0436 30.4393 26.7623C30.158 26.481 30 26.0995 30 25.7017Z" fill="white"/>
<path d="M6 0.20166C4.4087 0.20166 2.88258 0.833801 1.75736 1.95902C0.632141 3.08424 0 4.61036 0 6.20166V30.2017C0 31.793 0.632141 33.3191 1.75736 34.4443C2.88258 35.5695 4.4087 36.2017 6 36.2017H42C43.5913 36.2017 45.1174 35.5695 46.2426 34.4443C47.3679 33.3191 48 31.793 48 30.2017V6.20166C48 4.61036 47.3679 3.08424 46.2426 1.95902C45.1174 0.833801 43.5913 0.20166 42 0.20166H6ZM3 6.20166C3 5.40601 3.31607 4.64295 3.87868 4.08034C4.44129 3.51773 5.20435 3.20166 6 3.20166H42C42.7957 3.20166 43.5587 3.51773 44.1213 4.08034C44.6839 4.64295 45 5.40601 45 6.20166V30.2017C45 30.9973 44.6839 31.7604 44.1213 32.323C43.5587 32.8856 42.7957 33.2017 42 33.2017H26.88C26.958 32.7127 27 32.2117 27 31.7017C27 25.9027 21.63 21.2017 15 21.2017C8.742 21.2017 3.6 25.3957 3.048 30.7447C3.01565 30.5655 2.99959 30.3837 3 30.2017V6.20166Z" fill="white"/>
</svg>
