<svg width="12" height="12" viewBox="0 0 12 12" fill="none" xmlns="http://www.w3.org/2000/svg">
<path d="M1.38135 2.50981L5.52749 1.2998L9.66965 2.50981V4.99125C9.66965 7.59942 8.00053 9.9149 5.5261 10.7394C3.051 9.91491 1.38135 7.59891 1.38135 4.9901V2.50981Z" stroke="#C8C8C8" stroke-width="0.920922" stroke-linejoin="round"/>
<path d="M7.22745 4.62377C7.20604 4.60219 7.18058 4.58506 7.15252 4.57337C7.12447 4.56168 7.09438 4.55566 7.06398 4.55566C7.03359 4.55566 7.0035 4.56168 6.97544 4.57337C6.94739 4.58506 6.92192 4.60219 6.90052 4.62377L5.06614 6.56366L4.34552 5.84074C4.3233 5.81927 4.29706 5.80239 4.26832 5.79106C4.23957 5.77973 4.20888 5.77418 4.17799 5.77471C4.14709 5.77525 4.11661 5.78186 4.08827 5.79418C4.05994 5.80649 4.0343 5.82427 4.01284 5.84649C3.99137 5.86871 3.97449 5.89495 3.96316 5.92369C3.95183 5.95244 3.94628 5.98313 3.94681 6.01403C3.94735 6.04492 3.95396 6.0754 3.96628 6.10374C3.97859 6.13208 3.99637 6.15771 4.01859 6.17918L4.90268 7.06326C4.92408 7.08484 4.94954 7.10197 4.9776 7.11366C5.00565 7.12535 5.03575 7.13136 5.06614 7.13136C5.09653 7.13136 5.12663 7.12535 5.15468 7.11366C5.18274 7.10197 5.2082 7.08484 5.2296 7.06326L7.22745 4.9622C7.25082 4.94065 7.26947 4.91448 7.28222 4.88536C7.29498 4.85623 7.30157 4.82478 7.30157 4.79299C7.30157 4.76119 7.29498 4.72974 7.28222 4.70062C7.26947 4.67149 7.25082 4.64533 7.22745 4.62377Z" fill="white"/>
</svg>
