<svg width="21" height="21" viewBox="0 0 21 21" fill="none" xmlns="http://www.w3.org/2000/svg">
<path d="M10.5 19.6875C8.06332 19.6875 5.72645 18.7195 4.00346 16.9965C2.28047 15.2736 1.3125 12.9367 1.3125 10.5C1.3125 8.06332 2.28047 5.72645 4.00346 4.00346C5.72645 2.28047 8.06332 1.3125 10.5 1.3125C12.9367 1.3125 15.2736 2.28047 16.9965 4.00346C18.7195 5.72645 19.6875 8.06332 19.6875 10.5C19.6875 12.9367 18.7195 15.2736 16.9965 16.9965C15.2736 18.7195 12.9367 19.6875 10.5 19.6875ZM10.5 21C13.2848 21 15.9555 19.8938 17.9246 17.9246C19.8938 15.9555 21 13.2848 21 10.5C21 7.71523 19.8938 5.04451 17.9246 3.07538C15.9555 1.10625 13.2848 0 10.5 0C7.71523 0 5.04451 1.10625 3.07538 3.07538C1.10625 5.04451 0 7.71523 0 10.5C0 13.2848 1.10625 15.9555 3.07538 17.9246C5.04451 19.8938 7.71523 21 10.5 21Z" fill="#85888B"/>
<path d="M9.19013 14.4375C9.19013 14.2651 9.22407 14.0945 9.29003 13.9352C9.35599 13.776 9.45267 13.6313 9.57455 13.5094C9.69643 13.3875 9.84111 13.2909 10.0004 13.2249C10.1596 13.1589 10.3303 13.125 10.5026 13.125C10.675 13.125 10.8457 13.1589 11.0049 13.2249C11.1641 13.2909 11.3088 13.3875 11.4307 13.5094C11.5526 13.6313 11.6493 13.776 11.7152 13.9352C11.7812 14.0945 11.8151 14.2651 11.8151 14.4375C11.8151 14.7856 11.6768 15.1194 11.4307 15.3656C11.1846 15.6117 10.8507 15.75 10.5026 15.75C10.1545 15.75 9.82069 15.6117 9.57455 15.3656C9.32841 15.1194 9.19013 14.7856 9.19013 14.4375ZM9.31875 6.55594C9.30127 6.39035 9.3188 6.22295 9.3702 6.06457C9.4216 5.9062 9.50572 5.76041 9.61711 5.63665C9.72849 5.51288 9.86465 5.41392 10.0168 5.34618C10.1689 5.27844 10.3335 5.24344 10.5 5.24344C10.6665 5.24344 10.8311 5.27844 10.9832 5.34618C11.1354 5.41392 11.2715 5.51288 11.3829 5.63665C11.4943 5.76041 11.5784 5.9062 11.6298 6.06457C11.6812 6.22295 11.6987 6.39035 11.6813 6.55594L11.2219 11.1589C11.2064 11.3397 11.1237 11.5081 10.99 11.6309C10.8564 11.7536 10.6815 11.8218 10.5 11.8218C10.3185 11.8218 10.1436 11.7536 10.01 11.6309C9.8763 11.5081 9.79356 11.3397 9.77813 11.1589L9.31875 6.55594Z" fill="#85888B"/>
</svg>
