<svg width="11" height="11" viewBox="0 0 11 11" fill="none" xmlns="http://www.w3.org/2000/svg">
<path d="M9.80399 3.63162V8.91401M4.07746 2.63432L7.1154 0.880371L8.13059 2.63873L4.07746 2.63432ZM1 3.08137C1 2.83825 1.19708 2.64117 1.4402 2.64117H9.36379C9.60691 2.64117 9.80399 2.83825 9.80399 3.08137V9.24416C9.80399 9.48728 9.60691 9.68436 9.36379 9.68436H1.4402C1.19708 9.68436 1 9.48728 1 9.24416V3.08137ZM7.87811 7.26326H9.80399V5.06226H7.87811C7.23994 5.06226 6.72259 5.55498 6.72259 6.16276C6.72259 6.77055 7.23994 7.26326 7.87811 7.26326Z" stroke="white" stroke-width="0.880399" stroke-linecap="round" stroke-linejoin="round"/>
<path fill-rule="evenodd" clip-rule="evenodd" d="M2.93701 5.77539L5.04997 5.77539V6.19798L2.93701 6.19798L2.93701 5.77539Z" fill="white"/>
</svg>
