<svg width="23" height="22" viewBox="0 0 23 22" fill="none" xmlns="http://www.w3.org/2000/svg">
<path d="M11.5 0C17.5753 0 22.5 4.9247 22.5 11C22.5 17.0753 17.5753 22 11.5 22C5.4247 22 0.5 17.0753 0.5 11C0.5 4.9247 5.4247 0 11.5 0ZM8.0053 14.6773C7.5708 14.1526 7.0307 13.9656 6.3784 14.1174L6.2134 14.1625L5.5644 15.2801C5.442 15.4794 5.40146 15.7183 5.45127 15.9467C5.50108 16.1752 5.63737 16.3756 5.8316 16.5058C6.02582 16.6361 6.26291 16.6861 6.49321 16.6454C6.7235 16.6048 6.92912 16.4766 7.067 16.2877L7.1352 16.1854L8.0042 14.6773H8.0053ZM12.831 7.326C12.2942 7.7704 11.753 9.0827 12.512 10.3917L15.856 16.1843C15.9718 16.3811 16.1576 16.5269 16.3763 16.5927C16.5949 16.6584 16.8304 16.6392 17.0355 16.5388C17.2406 16.4385 17.4003 16.2645 17.4826 16.0515C17.5649 15.8385 17.5639 15.6023 17.4796 15.3901L17.4257 15.2801L16.5435 13.7489H17.8525C17.9714 13.7492 18.0892 13.726 18.1991 13.6806C18.309 13.6352 18.4089 13.5685 18.4929 13.4843C18.5769 13.4002 18.6435 13.3003 18.6888 13.1903C18.7341 13.0803 18.7571 12.9625 18.7567 12.8436C18.7573 12.623 18.677 12.4099 18.5311 12.2445C18.3851 12.0791 18.1836 11.9729 17.9647 11.946L17.8514 11.9394H15.4974L13.084 7.7627L12.831 7.3271V7.326ZM13.1368 3.9776C12.9468 3.86849 12.7238 3.83177 12.5089 3.87423C12.294 3.91669 12.1017 4.03545 11.9675 4.2086L11.8993 4.3098L11.4956 5.0061L11.1007 4.3098C10.9849 4.11301 10.7991 3.96717 10.5804 3.90145C10.3618 3.83572 10.1263 3.85494 9.92123 3.95527C9.71612 4.0556 9.55644 4.22965 9.4741 4.44262C9.39176 4.65559 9.39283 4.89179 9.4771 5.104L9.531 5.214L10.4528 6.8167L7.4993 11.935H5.1926C5.07378 11.9347 4.95607 11.9579 4.84623 12.0032C4.7364 12.0486 4.63661 12.1152 4.55259 12.1992C4.46857 12.2832 4.40197 12.383 4.35664 12.4928C4.3113 12.6027 4.28811 12.7204 4.2884 12.8392C4.2884 13.3023 4.6316 13.6818 5.0793 13.7379L5.1926 13.7445H13.4206C13.7946 13.0405 13.3546 12.0406 12.5296 11.9427L12.3965 11.935H9.5882L13.469 5.214C13.5889 5.00599 13.6213 4.75887 13.559 4.527C13.4967 4.29513 13.3448 4.09751 13.1368 3.9776Z" fill="#C1C1C1"/>
</svg>
