<svg width="34" height="28" viewBox="0 0 34 28" fill="none" xmlns="http://www.w3.org/2000/svg">
<path d="M17 0C13.919 0 10.976 1.07178 8.60901 3.01467C7.95951 3.54667 7.8605 4.52821 8.375 5.20177C8.8895 5.87532 9.83451 5.978 10.484 5.44444C12.3245 3.934 14.6015 3.11111 17 3.11111C22.799 3.11111 27.5 7.98622 27.5 14H24.5L29 20.2222L33.5 14H30.5C30.5 6.26733 24.4565 0 17 0ZM5 7.77778L0.5 14H3.5C3.5 21.7327 9.5435 28 17 28C20.0825 28 23.024 26.9298 25.391 24.9853C26.0405 24.4533 26.1395 23.4718 25.625 22.7982C25.1105 22.1247 24.1655 22.022 23.516 22.5556C21.674 24.0676 19.4 24.8889 17 24.8889C11.201 24.8889 6.5 20.0138 6.5 14H9.5L5 7.77778Z" fill="white"/>
</svg>
