<svg width="25" height="27" viewBox="0 0 25 27" fill="none" xmlns="http://www.w3.org/2000/svg">
<path d="M24.6258 16.5241C22.9562 23.2213 16.173 27.2971 9.475 25.627C2.77981 23.9574 -1.29598 17.1738 0.374396 10.4771C2.04331 3.77919 8.82649 -0.296902 15.5224 1.37274C22.2199 3.04238 26.2956 9.8266 24.6258 16.5241Z" fill="#F7931A"/>
<path d="M18.0335 11.7091C18.2823 10.0455 17.0157 9.15121 15.2838 8.55464L15.8456 6.30108L14.4738 5.95926L13.9269 8.15349C13.5662 8.06354 13.1959 7.97879 12.8278 7.89477L13.3787 5.68605L12.0077 5.34423L11.4456 7.59706C11.1471 7.52911 10.854 7.46196 10.5696 7.3912L10.5712 7.38411L8.67945 6.9117L8.31453 8.37689C8.31453 8.37689 9.3323 8.61019 9.31085 8.62455C9.86636 8.76319 9.96682 9.13093 9.95013 9.4224L9.31012 11.9897C9.34837 11.9995 9.39799 12.0135 9.45274 12.0355C9.40697 12.0241 9.35827 12.0117 9.30773 11.9996L8.41065 15.5961C8.34276 15.7649 8.17044 16.0182 7.78206 15.922C7.7958 15.9419 6.785 15.6732 6.785 15.6732L6.10392 17.2435L7.88911 17.6885C8.22122 17.7718 8.54667 17.8589 8.86716 17.9408L8.2995 20.2203L9.66972 20.5621L10.2319 18.3069C10.6062 18.4085 10.9695 18.5022 11.3251 18.5906L10.7649 20.8352L12.1367 21.177L12.7043 18.9019C15.0436 19.3446 16.8025 19.1661 17.5428 17.0502C18.1394 15.3467 17.5131 14.3642 16.2825 13.7234C17.1788 13.5167 17.8535 12.927 18.0335 11.7091ZM14.8992 16.1042C14.4753 17.8077 11.6071 16.8868 10.6772 16.6559L11.4305 13.6361C12.3604 13.8682 15.3423 14.3276 14.8992 16.1042ZM15.3235 11.6845C14.9368 13.234 12.5496 12.4467 11.7752 12.2537L12.4581 9.51491C13.2325 9.70794 15.7262 10.0682 15.3235 11.6845Z" fill="white"/>
</svg>
